<?xml version="1.0" encoding="UTF-8" standalone="no"?>
<!-- Created with Inkscape (http://www.inkscape.org/) -->

<svg
   width="64mm"
   height="64mm"
   viewBox="0 0 64 64"
   version="1.1"
   id="svg15717"
   sodipodi:docname="recto_verre.svg"
   inkscape:version="1.2.2 (b0a8486541, 2022-12-01)"
   inkscape:export-filename="../png/recto3.png"
   inkscape:export-xdpi="300"
   inkscape:export-ydpi="300"
   xmlns:inkscape="http://www.inkscape.org/namespaces/inkscape"
   xmlns:sodipodi="http://sodipodi.sourceforge.net/DTD/sodipodi-0.dtd"
   xmlns="http://www.w3.org/2000/svg"
   xmlns:svg="http://www.w3.org/2000/svg">
  <sodipodi:namedview
     id="namedview15719"
     pagecolor="#ffffff"
     bordercolor="#666666"
     borderopacity="1.0"
     inkscape:showpageshadow="2"
     inkscape:pageopacity="0.0"
     inkscape:pagecheckerboard="0"
     inkscape:deskcolor="#d1d1d1"
     inkscape:document-units="mm"
     showgrid="false"
     inkscape:zoom="2.3786088"
     inkscape:cx="127.17518"
     inkscape:cy="103.00138"
     inkscape:window-width="1624"
     inkscape:window-height="1011"
     inkscape:window-x="0"
     inkscape:window-y="32"
     inkscape:window-maximized="1"
     inkscape:current-layer="g1057" />
  <defs
     id="defs15714">
    <inkscape:path-effect
       effect="skeletal"
       id="path-effect16785"
       is_visible="true"
       lpeversion="1"
       pattern="m 144.21566,34.105663 -0.61376,1.767048 -0.6294,0.646434 -3.30006,-0.537176 2.5285,-0.894407 -0.14022,-0.330096 -2.95305,0.597145 -1.0669,3.141508 -1.09902,-3.655654 2.16831,-1.627483 -2.95575,2.198489 0.0223,0.241877 -0.23619,-0.226495 -0.21035,0.226779 -3.25949,-1.009718 0.57033,-1.86598 -1.21498,-2.476044 0.62243,1.086903 2.59934,-0.538283 -1.12389,-0.02405 -5.62594,-4.066816 0.34093,0.08905 0.49836,-1.118129 3.25105,1.835954 1.20602,-2.344307 0.19166,-2.588894 -0.43842,1.174548 -2.44225,0.988517 -0.54485,-3.109674 3.20518,-0.004 2.82846,2.055403 0.75075,-0.667739 -0.40534,-1.268342 0.36144,-2.139501 2.66615,0.667478 0.89335,-0.13749 0.22127,-1.571012 0.82714,2.266318 0.64126,1.688928 2.91771,1.832978 2.20895,-1.321149 0.50942,-0.778539 -2.35919,0.667679 0.39229,-0.07355 -2.04669,3.233784 2.70223,3.513713 0.57712,0.01565 -2.21281,2.566155 0.4453,1.215666 -1.26872,0.656545 z"
       copytype="single_stretched"
       prop_scale="1"
       scale_y_rel="false"
       spacing="0"
       normal_offset="0"
       tang_offset="0"
       prop_units="false"
       vertical_pattern="false"
       hide_knot="false"
       fuse_tolerance="0" />
    <inkscape:path-effect
       effect="skeletal"
       id="path-effect16704"
       is_visible="true"
       lpeversion="1"
       pattern="m 144.21566,34.105663 -0.61376,1.767048 -0.6294,0.646434 -3.30006,-0.537176 2.5285,-0.894407 -0.14022,-0.330096 -2.95305,0.597145 -1.0669,3.141508 -1.09902,-3.655654 2.16831,-1.627483 -2.95575,2.198489 0.0223,0.241877 -0.23619,-0.226495 -0.21035,0.226779 -3.25949,-1.009718 0.57033,-1.86598 -1.21498,-2.476044 0.62243,1.086903 2.59934,-0.538283 -1.12389,-0.02405 -5.62594,-4.066816 0.34093,0.08905 0.49836,-1.118129 3.25105,1.835954 1.20602,-2.344307 0.19166,-2.588894 -0.43842,1.174548 -2.44225,0.988517 -0.54485,-3.109674 3.20518,-0.004 2.82846,2.055403 0.75075,-0.667739 -0.40534,-1.268342 0.36144,-2.139501 2.66615,0.667478 0.89335,-0.13749 0.22127,-1.571012 0.82714,2.266318 0.64126,1.688928 2.91771,1.832978 2.20895,-1.321149 0.50942,-0.778539 -2.35919,0.667679 0.39229,-0.07355 -2.04669,3.233784 2.70223,3.513713 0.57712,0.01565 -2.21281,2.566155 0.4453,1.215666 -1.26872,0.656545 z"
       copytype="single_stretched"
       prop_scale="1"
       scale_y_rel="false"
       spacing="0"
       normal_offset="0"
       tang_offset="0"
       prop_units="false"
       vertical_pattern="false"
       hide_knot="false"
       fuse_tolerance="0" />
    <inkscape:path-effect
       effect="skeletal"
       id="path-effect16561"
       is_visible="true"
       lpeversion="1"
       pattern="m 144.21566,34.105663 -0.61376,1.767048 -0.6294,0.646434 -3.30006,-0.537176 2.5285,-0.894407 -0.14022,-0.330096 -2.95305,0.597145 -1.0669,3.141508 -1.09902,-3.655654 2.16831,-1.627483 -2.95575,2.198489 0.0223,0.241877 -0.23619,-0.226495 -0.21035,0.226779 -3.25949,-1.009718 0.57033,-1.86598 -1.21498,-2.476044 0.62243,1.086903 2.59934,-0.538283 -1.12389,-0.02405 -5.62594,-4.066816 0.34093,0.08905 0.49836,-1.118129 3.25105,1.835954 1.20602,-2.344307 0.19166,-2.588894 -0.43842,1.174548 -2.44225,0.988517 -0.54485,-3.109674 3.20518,-0.004 2.82846,2.055403 0.75075,-0.667739 -0.40534,-1.268342 0.36144,-2.139501 2.66615,0.667478 0.89335,-0.13749 0.22127,-1.571012 0.82714,2.266318 0.64126,1.688928 2.91771,1.832978 2.20895,-1.321149 0.50942,-0.778539 -2.35919,0.667679 0.39229,-0.07355 -2.04669,3.233784 2.70223,3.513713 0.57712,0.01565 -2.21281,2.566155 0.4453,1.215666 -1.26872,0.656545 z"
       copytype="single_stretched"
       prop_scale="1.1014479"
       scale_y_rel="false"
       spacing="0"
       normal_offset="0"
       tang_offset="0"
       prop_units="false"
       vertical_pattern="false"
       hide_knot="false"
       fuse_tolerance="0" />
    <inkscape:path-effect
       effect="skeletal"
       id="path-effect16418"
       is_visible="true"
       lpeversion="1"
       pattern="m 144.21566,34.105663 -0.61376,1.767048 -0.6294,0.646434 -3.30006,-0.537176 2.5285,-0.894407 -0.14022,-0.330096 -2.95305,0.597145 -1.0669,3.141508 -1.09902,-3.655654 2.16831,-1.627483 -2.95575,2.198489 0.0223,0.241877 -0.23619,-0.226495 -0.21035,0.226779 -3.25949,-1.009718 0.57033,-1.86598 -1.21498,-2.476044 0.62243,1.086903 2.59934,-0.538283 -1.12389,-0.02405 -5.62594,-4.066816 0.34093,0.08905 0.49836,-1.118129 3.25105,1.835954 1.20602,-2.344307 0.19166,-2.588894 -0.43842,1.174548 -2.44225,0.988517 -0.54485,-3.109674 3.20518,-0.004 2.82846,2.055403 0.75075,-0.667739 -0.40534,-1.268342 0.36144,-2.139501 2.66615,0.667478 0.89335,-0.13749 0.22127,-1.571012 0.82714,2.266318 0.64126,1.688928 2.91771,1.832978 2.20895,-1.321149 0.50942,-0.778539 -2.35919,0.667679 0.39229,-0.07355 -2.04669,3.233784 2.70223,3.513713 0.57712,0.01565 -2.21281,2.566155 0.4453,1.215666 -1.26872,0.656545 z"
       copytype="single_stretched"
       prop_scale="1"
       scale_y_rel="false"
       spacing="0"
       normal_offset="0"
       tang_offset="0"
       prop_units="false"
       vertical_pattern="false"
       hide_knot="false"
       fuse_tolerance="0" />
    <inkscape:path-effect
       effect="skeletal"
       id="path-effect16321"
       is_visible="true"
       lpeversion="1"
       pattern="m 144.21566,34.105663 -0.61376,1.767048 -0.6294,0.646434 -3.30006,-0.537176 2.5285,-0.894407 -0.14022,-0.330096 -2.95305,0.597145 -1.0669,3.141508 -1.09902,-3.655654 2.16831,-1.627483 -2.95575,2.198489 0.0223,0.241877 -0.23619,-0.226495 -0.21035,0.226779 -3.25949,-1.009718 0.57033,-1.86598 -1.21498,-2.476044 0.62243,1.086903 2.59934,-0.538283 -1.12389,-0.02405 -5.62594,-4.066816 0.34093,0.08905 0.49836,-1.118129 3.25105,1.835954 1.20602,-2.344307 0.19166,-2.588894 -0.43842,1.174548 -2.44225,0.988517 -0.54485,-3.109674 3.20518,-0.004 2.82846,2.055403 0.75075,-0.667739 -0.40534,-1.268342 0.36144,-2.139501 2.66615,0.667478 0.89335,-0.13749 0.22127,-1.571012 0.82714,2.266318 0.64126,1.688928 2.91771,1.832978 2.20895,-1.321149 0.50942,-0.778539 -2.35919,0.667679 0.39229,-0.07355 -2.04669,3.233784 2.70223,3.513713 0.57712,0.01565 -2.21281,2.566155 0.4453,1.215666 -1.26872,0.656545 z"
       copytype="single_stretched"
       prop_scale="1"
       scale_y_rel="false"
       spacing="0"
       normal_offset="0"
       tang_offset="0"
       prop_units="false"
       vertical_pattern="false"
       hide_knot="false"
       fuse_tolerance="0" />
    <inkscape:path-effect
       effect="skeletal"
       id="path-effect16241"
       is_visible="true"
       lpeversion="1"
       pattern="m 144.21566,34.105663 -0.61376,1.767048 -0.6294,0.646434 -3.30006,-0.537176 2.5285,-0.894407 -0.14022,-0.330096 -2.95305,0.597145 -1.0669,3.141508 -1.09902,-3.655654 2.16831,-1.627483 -2.95575,2.198489 0.0223,0.241877 -0.23619,-0.226495 -0.21035,0.226779 -3.25949,-1.009718 0.57033,-1.86598 -1.21498,-2.476044 0.62243,1.086903 2.59934,-0.538283 -1.12389,-0.02405 -5.62594,-4.066816 0.34093,0.08905 0.49836,-1.118129 3.25105,1.835954 1.20602,-2.344307 0.19166,-2.588894 -0.43842,1.174548 -2.44225,0.988517 -0.54485,-3.109674 3.20518,-0.004 2.82846,2.055403 0.75075,-0.667739 -0.40534,-1.268342 0.36144,-2.139501 2.66615,0.667478 0.89335,-0.13749 0.22127,-1.571012 0.82714,2.266318 0.64126,1.688928 2.91771,1.832978 2.20895,-1.321149 0.50942,-0.778539 -2.35919,0.667679 0.39229,-0.07355 -2.04669,3.233784 2.70223,3.513713 0.57712,0.01565 -2.21281,2.566155 0.4453,1.215666 -1.26872,0.656545 z"
       copytype="single_stretched"
       prop_scale="1"
       scale_y_rel="false"
       spacing="0"
       normal_offset="0"
       tang_offset="0"
       prop_units="false"
       vertical_pattern="false"
       hide_knot="false"
       fuse_tolerance="0" />
    <inkscape:path-effect
       effect="skeletal"
       id="path-effect16223"
       is_visible="true"
       lpeversion="1"
       pattern="m 144.21566,34.105663 -0.61376,1.767048 -0.6294,0.646434 -3.30006,-0.537176 2.5285,-0.894407 -0.14022,-0.330096 -2.95305,0.597145 -1.0669,3.141508 -1.09902,-3.655654 2.16831,-1.627483 -2.95575,2.198489 0.0223,0.241877 -0.23619,-0.226495 -0.21035,0.226779 -3.25949,-1.009718 0.57033,-1.86598 -1.21498,-2.476044 0.62243,1.086903 2.59934,-0.538283 -1.12389,-0.02405 -5.62594,-4.066816 0.34093,0.08905 0.49836,-1.118129 3.25105,1.835954 1.20602,-2.344307 0.19166,-2.588894 -0.43842,1.174548 -2.44225,0.988517 -0.54485,-3.109674 3.20518,-0.004 2.82846,2.055403 0.75075,-0.667739 -0.40534,-1.268342 0.36144,-2.139501 2.66615,0.667478 0.89335,-0.13749 0.22127,-1.571012 0.82714,2.266318 0.64126,1.688928 2.91771,1.832978 2.20895,-1.321149 0.50942,-0.778539 -2.35919,0.667679 0.39229,-0.07355 -2.04669,3.233784 2.70223,3.513713 0.57712,0.01565 -2.21281,2.566155 0.4453,1.215666 -1.26872,0.656545 z"
       copytype="single_stretched"
       prop_scale="1"
       scale_y_rel="false"
       spacing="0"
       normal_offset="0"
       tang_offset="0"
       prop_units="false"
       vertical_pattern="false"
       hide_knot="false"
       fuse_tolerance="0" />
    <inkscape:path-effect
       effect="skeletal"
       id="path-effect16189"
       is_visible="true"
       lpeversion="1"
       pattern="m 144.21566,34.105663 -0.61376,1.767048 -0.6294,0.646434 -3.30006,-0.537176 2.5285,-0.894407 -0.14022,-0.330096 -2.95305,0.597145 -1.0669,3.141508 -1.09902,-3.655654 2.16831,-1.627483 -2.95575,2.198489 0.0223,0.241877 -0.23619,-0.226495 -0.21035,0.226779 -3.25949,-1.009718 0.57033,-1.86598 -1.21498,-2.476044 0.62243,1.086903 2.59934,-0.538283 -1.12389,-0.02405 -5.62594,-4.066816 0.34093,0.08905 0.49836,-1.118129 3.25105,1.835954 1.20602,-2.344307 0.19166,-2.588894 -0.43842,1.174548 -2.44225,0.988517 -0.54485,-3.109674 3.20518,-0.004 2.82846,2.055403 0.75075,-0.667739 -0.40534,-1.268342 0.36144,-2.139501 2.66615,0.667478 0.89335,-0.13749 0.22127,-1.571012 0.82714,2.266318 0.64126,1.688928 2.91771,1.832978 2.20895,-1.321149 0.50942,-0.778539 -2.35919,0.667679 0.39229,-0.07355 -2.04669,3.233784 2.70223,3.513713 0.57712,0.01565 -2.21281,2.566155 0.4453,1.215666 -1.26872,0.656545 z"
       copytype="single_stretched"
       prop_scale="1"
       scale_y_rel="false"
       spacing="0"
       normal_offset="0"
       tang_offset="0"
       prop_units="false"
       vertical_pattern="false"
       hide_knot="false"
       fuse_tolerance="0" />
    <inkscape:path-effect
       effect="skeletal"
       id="path-effect16172"
       is_visible="true"
       lpeversion="1"
       pattern="m 144.21566,34.105663 -0.61376,1.767048 -0.6294,0.646434 -3.30006,-0.537176 2.5285,-0.894407 -0.14022,-0.330096 -2.95305,0.597145 -1.0669,3.141508 -1.09902,-3.655654 2.16831,-1.627483 -2.95575,2.198489 0.0223,0.241877 -0.23619,-0.226495 -0.21035,0.226779 -3.25949,-1.009718 0.57033,-1.86598 -1.21498,-2.476044 0.62243,1.086903 2.59934,-0.538283 -1.12389,-0.02405 -5.62594,-4.066816 0.34093,0.08905 0.49836,-1.118129 3.25105,1.835954 1.20602,-2.344307 0.19166,-2.588894 -0.43842,1.174548 -2.44225,0.988517 -0.54485,-3.109674 3.20518,-0.004 2.82846,2.055403 0.75075,-0.667739 -0.40534,-1.268342 0.36144,-2.139501 2.66615,0.667478 0.89335,-0.13749 0.22127,-1.571012 0.82714,2.266318 0.64126,1.688928 2.91771,1.832978 2.20895,-1.321149 0.50942,-0.778539 -2.35919,0.667679 0.39229,-0.07355 -2.04669,3.233784 2.70223,3.513713 0.57712,0.01565 -2.21281,2.566155 0.4453,1.215666 -1.26872,0.656545 z"
       copytype="single_stretched"
       prop_scale="1"
       scale_y_rel="false"
       spacing="0"
       normal_offset="0"
       tang_offset="0"
       prop_units="false"
       vertical_pattern="false"
       hide_knot="false"
       fuse_tolerance="0" />
    <inkscape:path-effect
       effect="skeletal"
       id="path-effect16155"
       is_visible="true"
       lpeversion="1"
       pattern="m 144.21566,34.105663 -0.61376,1.767048 -0.6294,0.646434 -3.30006,-0.537176 2.5285,-0.894407 -0.14022,-0.330096 -2.95305,0.597145 -1.0669,3.141508 -1.09902,-3.655654 2.16831,-1.627483 -2.95575,2.198489 0.0223,0.241877 -0.23619,-0.226495 -0.21035,0.226779 -3.25949,-1.009718 0.57033,-1.86598 -1.21498,-2.476044 0.62243,1.086903 2.59934,-0.538283 -1.12389,-0.02405 -5.62594,-4.066816 0.34093,0.08905 0.49836,-1.118129 3.25105,1.835954 1.20602,-2.344307 0.19166,-2.588894 -0.43842,1.174548 -2.44225,0.988517 -0.54485,-3.109674 3.20518,-0.004 2.82846,2.055403 0.75075,-0.667739 -0.40534,-1.268342 0.36144,-2.139501 2.66615,0.667478 0.89335,-0.13749 0.22127,-1.571012 0.82714,2.266318 0.64126,1.688928 2.91771,1.832978 2.20895,-1.321149 0.50942,-0.778539 -2.35919,0.667679 0.39229,-0.07355 -2.04669,3.233784 2.70223,3.513713 0.57712,0.01565 -2.21281,2.566155 0.4453,1.215666 -1.26872,0.656545 z"
       copytype="single_stretched"
       prop_scale="1"
       scale_y_rel="false"
       spacing="0"
       normal_offset="0"
       tang_offset="0"
       prop_units="false"
       vertical_pattern="false"
       hide_knot="false"
       fuse_tolerance="0" />
    <filter
       style="color-interpolation-filters:sRGB"
       x="-0.18551447"
       width="1.3710289"
       y="-0.05055326"
       height="1.1011065"
       inkscape:label="Ink Blot"
       id="filter17656">
      <feGaussianBlur
         in="SourceGraphic"
         stdDeviation="8.81469 1.95714"
         result="blur1"
         id="feGaussianBlur17646" />
      <feTurbulence
         type="fractalNoise"
         baseFrequency="0.106007"
         numOctaves="1"
         seed="13"
         result="turbulence"
         id="feTurbulence17648" />
      <feDisplacementMap
         in="blur1"
         in2="turbulence"
         xChannelSelector="R"
         yChannelSelector="G"
         scale="3.62795"
         result="map"
         id="feDisplacementMap17650" />
      <feGaussianBlur
         in="map"
         stdDeviation="1.53475"
         result="blur2"
         id="feGaussianBlur17652" />
      <feComposite
         in="blur2"
         in2="map"
         operator="over"
         result="composite"
         id="feComposite17654" />
    </filter>
  </defs>
  <g
     inkscape:label="Calque 1"
     inkscape:groupmode="layer"
     id="layer1">
    <rect
       style="fill:#ffffff;fill-rule:evenodd;stroke:#ffffff;stroke-width:0.264583px;stroke-linecap:butt;stroke-linejoin:miter;stroke-opacity:1"
       id="rect1788"
       width="268.45081"
       height="361.52139"
       x="-25.936825"
       y="-20.879484" />
    <g
       id="g1057"
       transform="translate(1.0140708e-6,0.00971155)">
      <g
         id="g18697"
         inkscape:label="logo"
         transform="matrix(0.25185394,0,0,0.25185394,3.9795576,-5.6225927)"
         style="display:inline">
        <path
           id="path17066"
           style="opacity:1;fill:#e6e6e6;stroke-width:0.478998;stroke-linecap:round;stroke-linejoin:bevel;filter:url(#filter17656)"
           d="M 82.298413,49.803111 C 17.261257,84.824452 31.527798,211.98163 110.5927,215.57948 194.03215,210.46005 197.53816,72.783258 115.3864,59.534057 104.47258,55.900149 93.299493,53.145446 82.298413,49.803111 Z"
           inkscape:label="ombre"
           transform="matrix(0.82606472,0,0,1,21.893109,12.387524)" />
        <g
           id="g16938"
           inkscape:label="verre"
           transform="matrix(0.75139116,0,0,0.75139116,58.338557,66.202669)">
          <ellipse
             style="opacity:1;fill:#800080;stroke:none;stroke-width:0.430213;stroke-linecap:round;stroke-linejoin:bevel"
             id="path17051"
             cx="66.324921"
             cy="193.16417"
             rx="34.627583"
             ry="3.756856"
             inkscape:label="bas pied" />
          <path
             style="fill:#800080;stroke:none;stroke-width:0.222469px;stroke-linecap:butt;stroke-linejoin:miter;stroke-opacity:1"
             d="m 61.022548,193.58276 c 3.002224,-15.06545 1.752572,-30.4979 2.113322,-45.74919 -0.04642,-9.19578 0.168133,-14.67302 -0.317069,-23.89929 -0.09248,-1.75861 -1.411589,-9.22711 -1.495864,-10.97619 -1.982823,-4.41106 7.396441,-1.05686 7.677926,-1.23553 -0.851354,4.41159 -1.551472,1.20761 -2.431531,12.08332 -0.709638,8.76966 0.215083,18.67459 0.317609,27.43114 -0.82732,8.72737 3.347215,41.77913 2.70879,41.87432 l -2.663378,0.39715 c -1.527044,0.26394 -4.381563,0.52226 -5.909805,0.0743 z"
             id="path16996"
             sodipodi:nodetypes="ccsccscscc"
             inkscape:label="pieed" />
          <path
             style="display:inline;opacity:1;fill:#0000ff;stroke:#0000ff;stroke-width:0.499999;stroke-linecap:round;stroke-linejoin:bevel"
             d="m 87.578258,62.692088 c -0.04892,-2.676471 -0.466506,-15.10861 0.152755,-17.785549 0.226609,-0.979585 4.367372,7.143924 5.169339,6.334848 1.689254,-1.704228 0.812636,-4.280093 1.273105,-6.468196 0.232187,-1.103327 -0.555751,2.217764 -0.415596,3.314401 -1.222242,56.841158 -10.434961,-31.298155 3.689898,-1.028243 3.178981,19.135724 -7.360272,2.629997 0.896552,-8.307583 -0.02729,-1.342897 1.493431,-4.965347 2.180969,-3.704458 2.90318,5.324199 3.10104,11.423578 3.73383,17.390407 0.1168,1.101345 -0.0261,2.21006 -0.0689,3.314578 1.85109,18.287379 -7.945471,19.256471 0.19309,0.384482 1.83366,9.853602 -0.0974,31.907403 -9.598183,39.432718 -10.029132,10.662357 -39.772788,6.470627 -37.64302,5.020957 2.129768,-1.449677 13.581333,-4.347837 10.19916,-4.624583 14.724286,-5.903815 20.637796,-22.163414 20.237001,-33.273779 z"
             id="path16770"
             transform="matrix(0.99909807,0,0,1.2994865,-9.3101747,-20.484183)"
             inkscape:label="bleu"
             sodipodi:nodetypes="cssscccsscccscc" />
          <path
             style="display:inline;opacity:1;fill:#d40000;stroke:#d40000;stroke-width:0.499999;stroke-linecap:round;stroke-linejoin:bevel"
             d="M 39.516268,69.416988 C 38.50331,69.106972 37.488888,68.7277 36.482512,68.276885 36.287764,68.0905 36.095185,67.900806 35.904878,67.707824 35.428746,67.228635 34.964057,66.738742 34.51064,66.239407 31.065256,61.881672 27.5706,57.575882 27.987947,49.145891 l 0.545278,-19.788777 c 0.01906,-0.691644 -0.985428,-2.000767 0.100453,-2.06384 1.207709,-0.07015 1.05149,2.443998 1.942459,1.930031 1.79826,-1.037349 1.436159,-2.913696 2.324119,-4.31366 0.44705,-0.704822 2.616916,1.193016 2.47402,1.951242 0.851131,3.469236 -2.892556,13.704018 -2.703721,5.346723 1.579597,-5.31344 5.346798,-19.374695 4.407527,-3.215222 0.376739,0.601307 0.404338,1.346996 1.134058,1.796109 0.654626,0.402895 1.988466,0.934985 2.619598,0.519197 -8.333476,3.916977 -3.547312,-11.922471 1.540097,-7.363154 1.375812,3.031836 -0.83874,1.852203 -0.709265,4.852166 0.02486,0.576014 0.137469,1.431398 0.0619,2.002348 3.604988,24.583678 10.619262,35.180872 16.011925,40.325534 -7.112257,7.392948 -13.934188,1.839204 -18.220256,-1.707654 l 7.1e-5,5.4e-5 z"
             id="path16226"
             transform="matrix(0.99745035,0,0,1.5882582,0.10514322,-7.4224941)"
             inkscape:label="rouge"
             sodipodi:nodetypes="cccccsssscccsccsccccc" />
          <path
             style="display:inline;opacity:1;fill:#008000;stroke:#008000;stroke-width:0.499999;stroke-linecap:round;stroke-linejoin:bevel"
             d="M 58.650589,96.815241 C 57.845369,96.144027 57.060622,95.436518 56.299136,94.69316 56.096576,94.489646 55.895938,94.284388 55.697217,94.077439 51.793413,91.543286 49.620108,83.284285 48.246708,72.379038 l -0.8201,-11.970802 c 4.256349,16.629798 0.997612,6.387019 -0.728304,-4.2545 -0.0798,0.04181 -0.159569,0.08369 -0.23932,0.125654 0.06644,-0.429211 0.134989,-0.857182 0.205531,-1.283951 -0.08003,-0.378625 -0.158526,-0.757458 -0.235552,-1.136438 0.22339,-4.166639 0.630084,-8.25998 1.110355,-12.279428 0.197792,-1.655345 -0.676906,-3.91794 0.621638,-4.94075 0.920169,-0.724779 0.686177,3.752737 1.655887,3.097909 1.878825,-1.268737 1.839688,-4.13468 2.928995,-6.099297 9.389387,-18.994429 -1.066714,8.243458 -1.478929,16.645206 0.0479,-1.954892 0.0484,-3.911078 0.234024,-5.84827 0.08423,-0.878998 0.335023,-1.732245 0.5071,-2.594919 -0.07782,-4.327021 6.791945,-23.798434 6.165611,-15.706788 -1.081641,11.268898 -4.229655,23.080723 -1.76157,3.844381 0.306958,-1.360456 5.336943,-4.514461 5.547299,-3.133467 -8.062062,35.612251 21.198584,80.795462 -3.308784,69.971663 z"
             id="path16306"
             transform="translate(-10.638043,6.0226119)"
             inkscape:label="vert"
             sodipodi:nodetypes="cccccccccsssccsccccc" />
          <path
             style="display:inline;opacity:1;fill:#008080;stroke:#008080;stroke-width:0.499999;stroke-linecap:round;stroke-linejoin:bevel"
             d="m 70.038625,40.721632 3e-6,-2e-6 c 1.797488,-4.787289 11.523428,-7.401885 13.183761,-4.645341 -5.398906,14.252954 -1.52415,9.634154 -7.22414,23.751154 -0.01907,1.131157 -0.02066,2.266256 -0.01093,3.406286 12.977054,7.646968 -0.0985,29.355231 0.08005,34.991762 -0.317361,-4.970583 -5.009108,-8.923093 -4.869526,-2.491349 v 10e-7 c -0.02598,2.156079 0.609725,4.483897 1.049382,6.651707 v 0 c 0.0227,0.1191 0.04485,0.23803 0.06634,0.3567 0.401875,0.77526 0.778178,1.55024 1.081396,2.32514 -0.608227,-0.77273 -1.294023,-1.49381 -1.989916,-2.22122 -7.236795,-9.992535 -4.062587,-59.882903 -1.36642,-62.124838 z"
             id="path16546"
             inkscape:label="bleu canar"
             sodipodi:nodetypes="cccccccssscccc"
             transform="matrix(0.99924822,0,0,1.1098705,-7.7028797,-12.453145)" />
          <path
             style="display:inline;opacity:1;fill:#ff7f2a;stroke:#ff7f2a;stroke-width:0.499999;stroke-linecap:round;stroke-linejoin:bevel"
             d="m 78.16201,98.16389 c 0.364088,-0.743493 0.646823,-1.492392 0.837355,-2.233669 0.119312,-0.180875 0.232552,-0.364211 0.339347,-0.549897 1.397385,-2.160561 2.169109,-5.120375 2.585219,-8.382578 l 0.169694,-1.330361 C 81.446594,82.071679 82.350169,87.190268 79.98512,73.939426 78.333483,71.256702 79.663126,64.345107 79.865649,61.248723 79.288122,56.229715 78.700458,51.064646 78.414461,45.763328 c -0.06219,-1.152717 -1.302968,-3.362429 -0.135856,-3.490824 1.297308,-0.142718 1.293351,4.135262 2.163493,3.204571 1.709739,-1.828712 1.11136,-4.90975 1.986814,-7.236407 0.44186,-1.174313 -0.830694,2.406808 -0.910016,3.667182 0.222726,2.529773 -0.09811,-7.26902 2.440921,-7.217073 9.814066,0.200791 6.83234,-9.089258 8.285961,28.258605 0.455236,1.369085 -1.945781,-20.487423 -1.505391,-19.093548 0.298791,-0.835622 -0.02699,14.802267 3.738334,20.727957 0.535331,0.842478 1.62951,1.146548 2.442191,1.73287 0.251848,2.256772 0.479241,4.549579 0.656129,6.878448 0.240841,2.997459 0.373626,6.121616 0.286729,9.337717 0.63036,7.043571 -0.04121,11.352086 -4.98935,16.693218 -0.472951,0.907216 -0.99038,1.798746 -1.554453,2.669356 -9.851612,14.56319 -16.385192,21.7231 -13.105414,6.98717 -10.625435,2.77663 -0.683995,-2.30874 -0.05254,-10.71868 z"
             id="path16689"
             transform="translate(-11.613852,-3.8356436)"
             inkscape:label="orange"
             sodipodi:nodetypes="cccscccsssscaccacccccccc" />
          <path
             style="display:inline;opacity:1;fill:#ffcc00;stroke:#ffcc00;stroke-width:0.499999;stroke-linecap:round;stroke-linejoin:bevel"
             d="M 54.451794,99.976405 C 53.589537,97.916924 52.876166,95.869607 52.26953,93.867408 50.835808,89.30043 49.769393,84.704749 48.966167,80.131592 L 48.370342,75.863144 C 45.934657,63.465573 47.139905,50.780902 47.924286,38.129419 c 0.07036,-0.442685 -0.233163,-1.387694 0.215675,-1.33328 0.509329,0.06175 0.380444,0.949714 0.573238,1.4189 0.304423,0.740846 0.141794,2.131697 0.931315,2.201074 0.73167,0.06429 0.600527,-1.338819 0.909703,-2.001271 2.138091,-3.473736 2.837457,-7.007963 0.836279,-1.35712 -0.151499,0.456944 -0.07702,0.958383 -0.111666,1.435761 -8.890562,35.034322 9.123203,-43.7391563 3.952163,-1.309333 -2.035343,16.205641 2.771963,-3.678113 4.224037,-7.515668 6.868702,-7.222406 1.778443,7.058767 1.421924,9.866714 -0.176035,1.541071 -0.146029,3.110078 -0.386632,4.654869 -6e-4,3.305055 -2.746465,13.408576 -1.923925,15.500708 0.743269,1.718258 3.42058,1.821734 4.374034,3.523003 1.607016,2.934007 0.481861,6.675108 0.860846,9.998851 0.163855,1.437023 0.325587,2.87785 0.610564,4.295832 1.839285,4.757763 2.475525,6.849074 1.854057,11.539927 -0.09048,0.761987 -0.177511,1.523231 -0.256011,2.28473 l 0.434888,9.236234 -0.910043,8.71619 c 0.335178,0.75271 0.479206,-9.451937 0.949513,-8.69481 0.595386,0.86107 -0.01215,11.15445 -0.777681,10.62172 -7.239652,-2.83113 -8.51233,-5.31751 -11.25477,-11.236045 z"
             id="path16403"
             inkscape:label="jaune"
             transform="translate(0.63353872,2.0407198)"
             sodipodi:nodetypes="cccccssscccccccccacccccccc" />
        </g>
      </g>
      <text
         xml:space="preserve"
         style="font-size:5.29167px;line-height:10px;font-family:Quicksand;-inkscape-font-specification:Quicksand;text-align:center;writing-mode:lr-tb;text-anchor:middle;fill:#000000;stroke:#000000;stroke-width:0.499999;stroke-linecap:round;stroke-linejoin:bevel"
         x="31.870354"
         y="6.7764816"
         id="text380"
         inkscape:label="Domaine 24ème"><tspan
           sodipodi:role="line"
           id="tspan378"
           style="stroke:none;stroke-width:0.5"
           x="31.870354"
           y="6.7764816">Domaine 24ème</tspan></text>
      <text
         xml:space="preserve"
         style="font-size:5.29167px;line-height:10px;font-family:Quicksand;-inkscape-font-specification:Quicksand;text-align:center;writing-mode:lr-tb;text-anchor:middle;fill:#000000;stroke:none;stroke-width:0.499999;stroke-linecap:round;stroke-linejoin:bevel"
         x="30.655376"
         y="12.671211"
         id="text988"
         inkscape:label="Bonne année"><tspan
           sodipodi:role="line"
           id="tspan986"
           style="stroke-width:0.5"
           x="30.655376"
           y="12.671211">AOC Bonne Année</tspan></text>
      <text
         xml:space="preserve"
         id="text3431"
         style="font-style:normal;font-variant:normal;font-weight:normal;font-stretch:normal;font-size:5.29167px;font-family:'TeX Gyre Chorus';-inkscape-font-specification:'TeX Gyre Chorus';text-align:center;letter-spacing:0px;word-spacing:0px;writing-mode:lr-tb;text-anchor:middle;fill:#000000;stroke:none;stroke-width:0.264583px;stroke-linecap:butt;stroke-linejoin:miter;stroke-opacity:1"
         inkscape:label="CUVEE"
         x="31.711603"
         y="54.849083"><tspan
           sodipodi:role="line"
           id="tspan52731"
           x="31.711603"
           y="54.849083"
           style="font-size:5.29167px">%CUVEE%</tspan></text>
    </g>
    <g
       id="g1746"
       inkscape:label="2024"
       transform="translate(-46.287887,50.566126)">
      <text
         xml:space="preserve"
         style="font-size:5.29167px;line-height:10px;font-family:Quicksand;-inkscape-font-specification:Quicksand;text-align:center;writing-mode:lr-tb;text-anchor:middle;opacity:1;fill:#000000;stroke:none;stroke-width:0.499999;stroke-linecap:round;stroke-linejoin:bevel"
         x="78.28524"
         y="10.357085"
         id="text1097"><tspan
           sodipodi:role="line"
           id="tspan1095"
           style="stroke-width:0.5"
           x="78.28524"
           y="10.357085">- 2   24 -</tspan></text>
      <path
         inkscape:connector-curvature="0"
         id="path3054"
         d="M 76.48291,10.649755 C 75.543955,10.520502 74.787761,9.847711 74.582622,8.9590536 74.532842,8.7434696 74.513395,8.4121584 74.54023,8.2373658 74.593169,7.8923306 74.671245,7.6578583 74.815271,7.4115631 74.939407,7.1992748 75.132632,6.971373 75.320624,6.8155388 75.613296,6.572933 75.998098,6.3960417 76.375005,6.3308417 c 0.384119,-0.066456 0.730114,-0.043934 1.117889,0.072826 0.03818,0.011596 0.07143,0.024172 0.07391,0.028173 0.0024,0.00408 -0.01952,0.033906 -0.04881,0.066456 l -0.05338,0.059172 -0.108358,-0.030492 c -0.364822,-0.1026972 -0.747775,-0.1044121 -1.130305,-0.00506 -0.482668,0.1252194 -0.927855,0.4417972 -1.207147,0.8583267 -0.220481,0.3288189 -0.334096,0.7036865 -0.334096,1.1023486 0,0.5019309 0.17497,0.9501891 0.522523,1.3385896 0.09598,0.1072376 0.09689,0.1081195 0.235744,0.2215734 0.284233,0.232239 0.610042,0.375143 1.024539,0.449372 0.09545,0.01718 0.418385,0.02376 0.534907,0.01094 0.804824,-0.08792 1.474896,-0.5919277 1.75706,-1.321602 0.158513,-0.4099216 0.169417,-0.8983506 0.02935,-1.315847 l -0.0294,-0.087688 0.05734,-0.063696 0.05734,-0.063679 0.0279,0.07098 c 0.042,0.1067475 0.08674,0.2698365 0.111772,0.4073982 0.03015,0.1656694 0.03235,0.5066019 0.0046,0.6764116 -0.07685,0.4675253 -0.282818,0.8676263 -0.61733,1.1992162 -0.296962,0.294366 -0.668131,0.503767 -1.054469,0.594886 -0.03675,0.0088 -0.07607,0.01803 -0.08737,0.02084 -0.161909,0.04001 -0.583467,0.056 -0.776086,0.02948 z M 76.189949,9.4895954 c -0.01719,-0.00245 -0.09486,-0.020056 -0.173151,-0.039181 -0.08935,-0.02182 -0.181161,-0.03696 -0.246701,-0.0407 -0.10216,-0.00555 -0.106253,-0.00506 -0.191431,0.02997 -0.04788,0.019762 -0.08949,0.033416 -0.09253,0.030378 -0.01223,-0.012086 -0.0019,-0.1779056 0.01478,-0.2348774 0.03397,-0.1172002 0.136604,-0.2788911 0.258082,-0.4065946 0.02791,-0.029267 0.106219,-0.1112063 0.174069,-0.1820327 0.301043,-0.3141607 0.401835,-0.4835784 0.437607,-0.7355556 0.02057,-0.1450794 -0.009,-0.2409563 -0.09246,-0.2968616 -0.06128,-0.041174 -0.181018,-0.028238 -0.239563,0.025919 -0.07502,0.069396 -0.07361,0.2413825 0.0024,0.321342 0.04283,0.04493 0.04075,0.049634 -0.04083,0.091705 -0.06653,0.034314 -0.152109,0.038267 -0.203607,0.00947 -0.07899,-0.044244 -0.117275,-0.1460267 -0.100987,-0.268432 0.02026,-0.1523473 0.145519,-0.2724024 0.336941,-0.3230177 0.07996,-0.02115 0.326098,-0.024417 0.407912,-0.00539 0.22649,0.052606 0.330178,0.2010043 0.316574,0.4531579 -0.01529,0.2874656 -0.153044,0.4817671 -0.585697,0.8274 -0.06892,0.055056 -0.164186,0.1369949 -0.211733,0.1820883 -0.08351,0.079211 -0.170187,0.1782044 -0.162623,0.185732 0.0019,0.0018 0.04496,0.008 0.09545,0.013719 0.05048,0.00539 0.147252,0.017002 0.215114,0.025658 0.277974,0.035523 0.369705,0.016169 0.519133,-0.1091974 l 0.07193,-0.060348 -5.49e-4,0.1004107 c -0.0011,0.2386812 -0.05348,0.3555237 -0.177139,0.39665 -0.04723,0.015679 -0.246521,0.021052 -0.331144,0.00898 z m 1.088981,-0.03175 c 0.0031,-0.00947 0.01719,-0.072466 0.03123,-0.1400981 0.0141,-0.067616 0.03533,-0.1667898 0.04693,-0.2203433 0.01155,-0.053537 0.0324,-0.1510733 0.0462,-0.2167306 0.01376,-0.065672 0.02794,-0.1267709 0.03144,-0.13577 0.0058,-0.014862 -0.02553,-0.016365 -0.328391,-0.016365 h -0.334718 l 0.02429,-0.064039 c 0.01342,-0.035196 0.06687,-0.1539805 0.118855,-0.2639014 0.14552,-0.3074841 0.198774,-0.4442781 0.232139,-0.596088 0.01749,-0.079816 0.02383,-0.2934236 0.01002,-0.3355477 -0.0078,-0.024417 -0.0076,-0.02458 0.04638,-0.018178 0.03001,0.00343 0.07915,0.018439 0.109208,0.033089 0.13735,0.066995 0.171269,0.2159467 0.09908,0.4350242 -0.03684,0.1117779 -0.08146,0.1887845 -0.269758,0.4656439 -0.04579,0.067289 -0.08319,0.1283715 -0.08319,0.1357864 0,0.010616 0.04343,0.013392 0.21053,0.013392 0.209992,0 0.210542,-5.72e-5 0.215537,-0.023061 0.0031,-0.012739 0.02157,-0.101456 0.04185,-0.1972855 0.02026,-0.095838 0.05026,-0.2364861 0.06663,-0.3125846 0.01613,-0.076108 0.04696,-0.2190628 0.06794,-0.3177063 0.02098,-0.098614 0.03925,-0.1808062 0.04056,-0.1825864 0.0019,-0.00212 0.375291,-0.052867 0.392754,-0.053112 0.0031,-4.41e-5 -0.0019,0.025315 -0.01846,0.09734 -0.0051,0.022555 -0.02133,0.098614 -0.03594,0.1690943 -0.01444,0.070474 -0.03069,0.1465657 -0.0358,0.1690927 -0.06189,0.2743949 -0.133597,0.6130147 -0.133597,0.630781 0,0.018178 0.0076,0.020007 0.08224,0.020007 0.04523,0 0.08214,0.00109 0.08202,0.00245 -1.2e-4,0.00139 -0.01104,0.044081 -0.02437,0.094792 l -0.02415,0.092261 -0.08282,0.0031 -0.08278,0.0031 -0.01172,0.053406 c -0.0063,0.029365 -0.02286,0.1064373 -0.03643,0.1712665 -0.01376,0.064839 -0.04341,0.2054859 -0.06615,0.3125846 -0.02274,0.1070906 -0.04137,0.198347 -0.04141,0.2027731 -3.4e-5,0.00441 -0.08813,0.00768 -0.195791,0.00653 -0.177854,-9.31e-4 -0.195248,-0.0031 -0.190356,-0.018292 z m 0.515201,-2.2063467 c -0.02683,-0.031766 -0.02841,-0.038805 -0.02405,-0.1061269 0.01036,-0.1588965 0.09205,-0.2482633 0.207315,-0.2267031 0.04127,0.00768 0.06349,0.048556 0.0528,0.096997 -0.0088,0.040455 -0.07566,0.099708 -0.128179,0.1138032 -0.03475,0.00947 -0.0417,0.015516 -0.0417,0.037107 0,0.062683 0.04728,0.088439 0.108902,0.059286 0.06748,-0.031897 0.09835,-0.097291 0.124222,-0.2627533 l 0.0059,-0.038446 h 0.05488 c 0.04455,0 0.05374,0.0031 0.04896,0.015352 -0.0075,0.019354 0.0058,0.019207 0.03164,-3.217e-4 0.02921,-0.022032 0.08764,-0.018929 0.11432,0.00588 l 0.02254,0.021134 0.03465,-0.021069 c 0.04693,-0.028516 0.102261,-0.027732 0.128994,0.0018 0.03361,0.037237 0.03482,0.053929 0.01155,0.1618199 -0.024,0.1113207 -0.01994,0.1303151 0.02554,0.1189315 0.0229,-0.00555 0.02541,-0.012412 0.03074,-0.082445 0.01053,-0.1372563 0.06797,-0.2203695 0.158631,-0.2289602 0.03964,-0.00376 0.05481,-3.185e-4 0.07758,0.017508 0.07057,0.05553 0.0024,0.1699975 -0.118227,0.1988696 -0.02301,0.00539 -0.02828,0.012412 -0.02828,0.037303 0,0.044179 0.03468,0.075357 0.0749,0.067387 0.01729,-0.00343 0.03928,-0.013066 0.04857,-0.021558 0.04103,-0.037009 0.04161,-0.00408 6.68e-4,0.03678 -0.02655,0.026475 -0.03726,0.02997 -0.09173,0.02997 -0.05009,0 -0.06719,-0.00457 -0.09093,-0.024564 l -0.02923,-0.024547 -0.02864,0.024547 c -0.03684,0.031603 -0.100682,0.033546 -0.130285,0.00408 -0.02415,-0.024074 -0.02522,-0.054501 -0.0049,-0.1383341 0.02806,-0.1157957 0.01512,-0.1695353 -0.03618,-0.1506324 -0.01817,0.00653 -0.02413,0.018407 -0.02762,0.053994 -0.0024,0.024988 -0.01478,0.091526 -0.02712,0.1479049 l -0.02271,0.1024686 -0.05218,0.0031 -0.05219,0.0031 0.01274,-0.0594 c 0.05131,-0.2396725 0.04898,-0.2195136 0.0277,-0.2407455 -0.01512,-0.015189 -0.02493,-0.017329 -0.04484,-0.00996 -0.02279,0.00882 -0.02828,0.023094 -0.05384,0.141372 -0.01546,0.07245 -0.03083,0.139804 -0.03368,0.149685 -0.0042,0.014046 -0.01664,0.017917 -0.05528,0.017917 h -0.05002 l 0.0059,-0.037679 0.0059,-0.037678 -0.04322,0.034657 c -0.03662,0.029333 -0.05316,0.035261 -0.107747,0.038756 -0.06252,0.00408 -0.06537,0.0031 -0.09324,-0.02997 z m 0.125818,-0.1566589 c 0.04095,-0.021134 0.06386,-0.050467 0.07031,-0.089925 0.0073,-0.043199 -0.01444,-0.067142 -0.04579,-0.050516 -0.02014,0.010943 -0.05698,0.078738 -0.0694,0.1280448 -0.0078,0.030803 0.0034,0.033889 0.04487,0.012412 z m 0.834255,-7.742e-4 c 0.04241,-0.021852 0.07235,-0.064496 0.07235,-0.1029748 0,-0.034706 -0.01809,-0.050091 -0.04623,-0.039279 -0.01512,0.00555 -0.07709,0.1234065 -0.07709,0.1461083 0,0.015352 0.0158,0.014209 0.051,-0.00376 z m -0.892859,-0.3353125 -0.08635,-0.051773 0.04008,-0.034216 c 0.02206,-0.018798 0.04251,-0.034379 0.04541,-0.034575 0.0031,-2.09e-4 0.02838,0.018635 0.05654,0.04186 0.02816,0.023241 0.06237,0.050973 0.07594,0.061687 l 0.02475,0.019468 -0.02396,0.025413 c -0.01308,0.014046 -0.02896,0.025103 -0.03502,0.024694 -0.0059,-3.953e-4 -0.0499,-0.024008 -0.09739,-0.052524 z"
         style="fill:#000000;fill-opacity:1;stroke:#000000;stroke-width:0.03331;stroke-dasharray:none;stroke-opacity:1" />
    </g>
  </g>
</svg>
