<?xml version="1.0" encoding="UTF-8" standalone="no"?>
<!-- Created with Inkscape (http://www.inkscape.org/) -->

<svg
   width="64mm"
   height="64mm"
   viewBox="0 0 64 64"
   version="1.1"
   id="svg5"
   inkscape:version="1.2.2 (b0a8486541, 2022-12-01)"
   sodipodi:docname="recto_pizza.svg"
   inkscape:export-filename="../png/recto2.png"
   inkscape:export-xdpi="300"
   inkscape:export-ydpi="300"
   xmlns:inkscape="http://www.inkscape.org/namespaces/inkscape"
   xmlns:sodipodi="http://sodipodi.sourceforge.net/DTD/sodipodi-0.dtd"
   xmlns="http://www.w3.org/2000/svg"
   xmlns:svg="http://www.w3.org/2000/svg">
  <sodipodi:namedview
     id="namedview7"
     pagecolor="#ffffff"
     bordercolor="#666666"
     borderopacity="1.0"
     inkscape:showpageshadow="2"
     inkscape:pageopacity="0.0"
     inkscape:pagecheckerboard="0"
     inkscape:deskcolor="#d1d1d1"
     inkscape:document-units="mm"
     showgrid="false"
     inkscape:zoom="2.3786088"
     inkscape:cx="-3.3633105"
     inkscape:cy="149.66732"
     inkscape:window-width="1624"
     inkscape:window-height="1011"
     inkscape:window-x="0"
     inkscape:window-y="32"
     inkscape:window-maximized="1"
     inkscape:current-layer="g1144" />
  <defs
     id="defs2">
    <inkscape:path-effect
       effect="skeletal"
       id="path-effect13388"
       is_visible="true"
       lpeversion="1"
       pattern="m 292.31983,24.923014 -0.90648,-1.302652 -2.04032,0.330495 -1.92518,-0.38271 -2.70146,-0.446669 0.74264,-2.004843 -1.86835,-0.09259 0.7449,-2.008418 -0.65059,-2.52843 -0.99138,-0.680559 1.2415,-1.335815 1.95605,-0.661769 0.26097,-0.74989 1.0199,-2.540278 1.30597,1.505119 1.46758,0.808563 2.58931,-1.261926 3.1928,-1.6457953 0.87248,2.5961233 -0.99115,1.856341 1.95353,0.756369 -0.97412,1.369092 1.13604,1.482578 -0.75811,2.450088 -1.26038,0.73293 -1.30712,1.860949 -0.4294,0.742122 z"
       copytype="single_stretched"
       prop_scale="1"
       scale_y_rel="false"
       spacing="0"
       normal_offset="0"
       tang_offset="0"
       prop_units="false"
       vertical_pattern="false"
       hide_knot="false"
       fuse_tolerance="0" />
    <inkscape:path-effect
       effect="skeletal"
       id="path-effect13371"
       is_visible="true"
       lpeversion="1"
       pattern="m 292.31983,24.923014 -0.90648,-1.302652 -2.04032,0.330495 -1.92518,-0.38271 -2.70146,-0.446669 0.74264,-2.004843 -1.86835,-0.09259 0.7449,-2.008418 -0.65059,-2.52843 -0.99138,-0.680559 1.2415,-1.335815 1.95605,-0.661769 0.26097,-0.74989 1.0199,-2.540278 1.30597,1.505119 1.46758,0.808563 2.58931,-1.261926 3.1928,-1.6457953 0.87248,2.5961233 -0.99115,1.856341 1.95353,0.756369 -0.97412,1.369092 1.13604,1.482578 -0.75811,2.450088 -1.26038,0.73293 -1.30712,1.860949 -0.4294,0.742122 z"
       copytype="single_stretched"
       prop_scale="1"
       scale_y_rel="false"
       spacing="0"
       normal_offset="0"
       tang_offset="0"
       prop_units="false"
       vertical_pattern="false"
       hide_knot="false"
       fuse_tolerance="0" />
    <inkscape:path-effect
       effect="skeletal"
       id="path-effect13340"
       is_visible="true"
       lpeversion="1"
       pattern="m 292.31983,24.923014 -0.90648,-1.302652 -2.04032,0.330495 -1.92518,-0.38271 -2.70146,-0.446669 0.74264,-2.004843 -1.86835,-0.09259 0.7449,-2.008418 -0.65059,-2.52843 -0.99138,-0.680559 1.2415,-1.335815 1.95605,-0.661769 0.26097,-0.74989 1.0199,-2.540278 1.30597,1.505119 1.46758,0.808563 2.58931,-1.261926 3.1928,-1.6457953 0.87248,2.5961233 -0.99115,1.856341 1.95353,0.756369 -0.97412,1.369092 1.13604,1.482578 -0.75811,2.450088 -1.26038,0.73293 -1.30712,1.860949 -0.4294,0.742122 z"
       copytype="single_stretched"
       prop_scale="1"
       scale_y_rel="false"
       spacing="0"
       normal_offset="0"
       tang_offset="0"
       prop_units="false"
       vertical_pattern="false"
       hide_knot="false"
       fuse_tolerance="0" />
    <inkscape:path-effect
       effect="skeletal"
       id="path-effect13320"
       is_visible="true"
       lpeversion="1"
       pattern="m 292.31983,24.923014 -0.90648,-1.302652 -2.04032,0.330495 -1.92518,-0.38271 -2.70146,-0.446669 0.74264,-2.004843 -1.86835,-0.09259 0.7449,-2.008418 -0.65059,-2.52843 -0.99138,-0.680559 1.2415,-1.335815 1.95605,-0.661769 0.26097,-0.74989 1.0199,-2.540278 1.30597,1.505119 1.46758,0.808563 2.58931,-1.261926 3.1928,-1.6457953 0.87248,2.5961233 -0.99115,1.856341 1.95353,0.756369 -0.97412,1.369092 1.13604,1.482578 -0.75811,2.450088 -1.26038,0.73293 -1.30712,1.860949 -0.4294,0.742122 z"
       copytype="single_stretched"
       prop_scale="1"
       scale_y_rel="false"
       spacing="0"
       normal_offset="0"
       tang_offset="0"
       prop_units="false"
       vertical_pattern="false"
       hide_knot="false"
       fuse_tolerance="0" />
    <inkscape:path-effect
       effect="skeletal"
       id="path-effect13303"
       is_visible="true"
       lpeversion="1"
       pattern="m 292.31983,24.923014 -0.90648,-1.302652 -2.04032,0.330495 -1.92518,-0.38271 -2.70146,-0.446669 0.74264,-2.004843 -1.86835,-0.09259 0.7449,-2.008418 -0.65059,-2.52843 -0.99138,-0.680559 1.2415,-1.335815 1.95605,-0.661769 0.26097,-0.74989 1.0199,-2.540278 1.30597,1.505119 1.46758,0.808563 2.58931,-1.261926 3.1928,-1.6457953 0.87248,2.5961233 -0.99115,1.856341 1.95353,0.756369 -0.97412,1.369092 1.13604,1.482578 -0.75811,2.450088 -1.26038,0.73293 -1.30712,1.860949 -0.4294,0.742122 z"
       copytype="single_stretched"
       prop_scale="1"
       scale_y_rel="false"
       spacing="0"
       normal_offset="0"
       tang_offset="0"
       prop_units="false"
       vertical_pattern="false"
       hide_knot="false"
       fuse_tolerance="0" />
    <inkscape:path-effect
       effect="skeletal"
       id="path-effect13272"
       is_visible="true"
       lpeversion="1"
       pattern="m 328.812,74.4052 c -4.0272,0.460103 -7.42211,-3.333931 -8.59098,-6.778823 -2.3763,-4.173009 -6.66056,-1.473752 -8.58705,1.43576 -2.75699,1.718193 -6.00811,-1.11436 -8.50458,1.59848 -0.97879,-1.764945 -5.12819,-1.613977 -2.96091,-4.135543 0.65085,-3.746254 -1.18217,-8.394122 -4.88106,-9.775569 -2.81498,0.426028 -5.01581,-0.482729 -7.86332,-0.402236 -0.74953,-2.990461 2.80239,-5.672285 3.13509,-8.725114 0.456,-3.966788 -2.12578,-7.23011 -2.73819,-10.984184 1.22867,-2.943989 -2.45864,-3.732886 -4.17235,-2.956534 -3.05951,-3.138821 2.98943,-4.815612 5.22513,-5.803147 2.05158,-2.89549 7.49122,1.70811 8.23236,-2.874897 1.34568,-1.140029 3.34117,-1.864873 1.09833,-3.257731 -1.43928,-4.154831 2.09552,-7.934447 4.29243,-11.035655 4.66097,-2.2582502 3.74678,4.229686 5.4964,6.538647 1.78141,2.138889 2.83866,5.840152 6.17661,3.512615 3.38799,-2.442854 7.47734,-3.278701 10.89763,-5.482147 2.20771,-1.108442 5.62744,-4.599694 7.57222,-1.990507 -1.88473,3.519102 -0.20666,7.196109 0.92283,10.714881 -1.07117,3.985336 4.39232,3.672916 6.97699,4.845453 2.32162,0.622967 8.85292,0.359694 6.2161,4.347188 -1.95109,2.909139 -3.33694,6.22637 -5.18449,9.159686 -0.0412,2.88662 1.83234,5.453388 1.77499,8.247753 2.53964,1.619092 6.84065,4.444061 4.26659,7.7755 -2.88738,-1.17323 -6.2199,-0.506953 -9.19915,-1.404826 -4.61337,-2.069415 -4.8493,5.120252 -5.50131,8.084462 -0.23653,2.686135 -3.59172,6.976403 -2.09705,8.546898 2.79374,-0.719717 -2.05499,-0.127474 -2.00326,0.79959 z"
       copytype="single_stretched"
       prop_scale="1"
       scale_y_rel="false"
       spacing="0"
       normal_offset="0"
       tang_offset="0"
       prop_units="false"
       vertical_pattern="false"
       hide_knot="false"
       fuse_tolerance="0" />
    <inkscape:path-effect
       effect="skeletal"
       id="path-effect13255"
       is_visible="true"
       lpeversion="1"
       pattern="m 328.812,74.4052 c -4.0272,0.460103 -7.42211,-3.333931 -8.59098,-6.778823 -2.3763,-4.173009 -6.66056,-1.473752 -8.58705,1.43576 -2.75699,1.718193 -6.00811,-1.11436 -8.50458,1.59848 -0.97879,-1.764945 -5.12819,-1.613977 -2.96091,-4.135543 0.65085,-3.746254 -1.18217,-8.394122 -4.88106,-9.775569 -2.81498,0.426028 -5.01581,-0.482729 -7.86332,-0.402236 -0.74953,-2.990461 2.80239,-5.672285 3.13509,-8.725114 0.456,-3.966788 -2.12578,-7.23011 -2.73819,-10.984184 1.22867,-2.943989 -2.45864,-3.732886 -4.17235,-2.956534 -3.05951,-3.138821 2.98943,-4.815612 5.22513,-5.803147 2.05158,-2.89549 7.49122,1.70811 8.23236,-2.874897 1.34568,-1.140029 3.34117,-1.864873 1.09833,-3.257731 -1.43928,-4.154831 2.09552,-7.934447 4.29243,-11.035655 4.66097,-2.2582502 3.74678,4.229686 5.4964,6.538647 1.78141,2.138889 2.83866,5.840152 6.17661,3.512615 3.38799,-2.442854 7.47734,-3.278701 10.89763,-5.482147 2.20771,-1.108442 5.62744,-4.599694 7.57222,-1.990507 -1.88473,3.519102 -0.20666,7.196109 0.92283,10.714881 -1.07117,3.985336 4.39232,3.672916 6.97699,4.845453 2.32162,0.622967 8.85292,0.359694 6.2161,4.347188 -1.95109,2.909139 -3.33694,6.22637 -5.18449,9.159686 -0.0412,2.88662 1.83234,5.453388 1.77499,8.247753 2.53964,1.619092 6.84065,4.444061 4.26659,7.7755 -2.88738,-1.17323 -6.2199,-0.506953 -9.19915,-1.404826 -4.61337,-2.069415 -4.8493,5.120252 -5.50131,8.084462 -0.23653,2.686135 -3.59172,6.976403 -2.09705,8.546898 2.79374,-0.719717 -2.05499,-0.127474 -2.00326,0.79959 z"
       copytype="single_stretched"
       prop_scale="1"
       scale_y_rel="false"
       spacing="0"
       normal_offset="0"
       tang_offset="0"
       prop_units="false"
       vertical_pattern="false"
       hide_knot="false"
       fuse_tolerance="0" />
    <inkscape:path-effect
       effect="skeletal"
       id="path-effect13081"
       is_visible="true"
       lpeversion="1"
       pattern="m 170.663,205.3 c -6.012,1.594 -5.026,-7.463 -13.412,-7.723 -0.386,4.199 -6.836,-0.187 -4.309,-6.281 6.312,-8.265 -3.801,-6.732 -6.509,-13.326 6.691,-3.62 4.183,-7.126 2.803,-11.015 -2.463,-9.008 12.366,-9.234 14.109,-7.103 2.63,-2.791 6.804,-12.55 12.21,-7.456 2.609,8.014 6.402,10.514 12.147,8.25 7.107,0.477 1.048,10.516 5.05,14.063 6.561,0.912 12.543,4.945 1.963,9.74 -8.779,1.565 -3.317,5.234 -2.719,13.426 1.219,6.559 -7.51,-5.297 -13.697,0.362 -2.89,3.203 -5.624,5.777 -7.568,9.271 -0.126,-0.043 -2.181,-5.002 -0.068,-2.208"
       copytype="single_stretched"
       prop_scale="1"
       scale_y_rel="false"
       spacing="0"
       normal_offset="0"
       tang_offset="0"
       prop_units="false"
       vertical_pattern="false"
       hide_knot="false"
       fuse_tolerance="0" />
    <inkscape:path-effect
       effect="skeletal"
       id="path-effect13064"
       is_visible="true"
       lpeversion="1"
       pattern="m 170.663,205.3 c -6.012,1.594 -5.026,-7.463 -13.412,-7.723 -0.386,4.199 -6.836,-0.187 -4.309,-6.281 6.312,-8.265 -3.801,-6.732 -6.509,-13.326 6.691,-3.62 4.183,-7.126 2.803,-11.015 -2.463,-9.008 12.366,-9.234 14.109,-7.103 2.63,-2.791 6.804,-12.55 12.21,-7.456 2.609,8.014 6.402,10.514 12.147,8.25 7.107,0.477 1.048,10.516 5.05,14.063 6.561,0.912 12.543,4.945 1.963,9.74 -8.779,1.565 -3.317,5.234 -2.719,13.426 1.219,6.559 -7.51,-5.297 -13.697,0.362 -2.89,3.203 -5.624,5.777 -7.568,9.271 -0.126,-0.043 -2.181,-5.002 -0.068,-2.208"
       copytype="single_stretched"
       prop_scale="1"
       scale_y_rel="false"
       spacing="0"
       normal_offset="0"
       tang_offset="0"
       prop_units="false"
       vertical_pattern="false"
       hide_knot="false"
       fuse_tolerance="0" />
    <filter
       inkscape:label="Pointillism"
       inkscape:menu="Scatter"
       inkscape:menu-tooltip="Gives a turbulent pointillist HSL sensitive transparency"
       width="1.0910537"
       height="1.3252823"
       y="-0.16473092"
       x="-0.045685168"
       style="color-interpolation-filters:sRGB"
       id="filter8404">
      <feGaussianBlur
         stdDeviation="0.01"
         result="result1"
         id="feGaussianBlur8392" />
      <feBlend
         in2="result1"
         result="fbSourceGraphic"
         mode="multiply"
         id="feBlend8394" />
      <feTurbulence
         baseFrequency="0.8"
         type="fractalNoise"
         seed="0"
         numOctaves="3"
         result="result3"
         id="feTurbulence8396" />
      <feDisplacementMap
         in="fbSourceGraphic"
         xChannelSelector="R"
         yChannelSelector="G"
         scale="50"
         result="result2"
         in2="result3"
         id="feDisplacementMap8398" />
      <feMorphology
         radius="1"
         operator="dilate"
         result="result4"
         id="feMorphology8400" />
      <feBlend
         mode="screen"
         in2="result2"
         id="feBlend8402"
         result="fbSourceGraphic" />
      <feColorMatrix
         result="fbSourceGraphicAlpha"
         in="fbSourceGraphic"
         values="0 0 0 -1 0 0 0 0 -1 0 0 0 0 -1 0 0 0 0 1 0"
         id="feColorMatrix8406" />
      <feTurbulence
         id="feTurbulence8408"
         seed="50"
         type="fractalNoise"
         baseFrequency="1"
         numOctaves="3"
         result="result1" />
      <feColorMatrix
         id="feColorMatrix8410"
         type="luminanceToAlpha"
         in="fbSourceGraphic"
         result="result0" />
      <feColorMatrix
         id="feColorMatrix8412"
         result="result2"
         values="1 0 0 0 0 0 1 0 0 0 0 0 1 0 0 0 0 0 0.5 0 " />
      <feComposite
         in2="result2"
         id="feComposite8414"
         result="result3"
         operator="over"
         in="result1" />
      <feColorMatrix
         id="feColorMatrix8416"
         result="result91"
         values="1 0 0 0 0 0 1 0 0 0 0 0 1 0 0 0 0 0 5 -3.2" />
      <feComposite
         in2="result91"
         id="feComposite8418"
         operator="arithmetic"
         k1="1.5"
         result="result93"
         k2="0"
         k3="0"
         k4="0" />
      <feComposite
         in2="result93"
         id="feComposite8420"
         in="fbSourceGraphic"
         operator="out"
         result="result4" />
      <feComposite
         in2="result4"
         id="feComposite8422"
         operator="arithmetic"
         k2="0.5"
         k1="1"
         result="result94"
         k3="0"
         k4="0" />
      <feDisplacementMap
         in2="result1"
         id="feDisplacementMap8424"
         scale="15"
         xChannelSelector="R"
         yChannelSelector="A"
         result="result92" />
    </filter>
    <filter
       inkscape:menu-tooltip="Partly opaque water color effect with bleed"
       inkscape:menu="Textures"
       inkscape:label="Gouache"
       style="color-interpolation-filters:sRGB"
       id="filter13887"
       x="-0.062389704"
       y="-0.097195712"
       width="1.1247503"
       height="1.1945774">
      <feGaussianBlur
         stdDeviation="3"
         result="result5"
         in="SourceGraphic"
         id="feGaussianBlur13875" />
      <feTurbulence
         result="result1"
         baseFrequency="0.02"
         type="fractalNoise"
         seed="0"
         numOctaves="3"
         id="feTurbulence13877" />
      <feDisplacementMap
         result="result3"
         in2="result1"
         in="SourceGraphic"
         xChannelSelector="R"
         yChannelSelector="G"
         scale="30"
         id="feDisplacementMap13879" />
      <feComposite
         result="result4"
         in="result3"
         in2="result1"
         operator="out"
         id="feComposite13881" />
      <feComposite
         result="result6"
         operator="arithmetic"
         k2="1"
         k1="0.3"
         k3="0.3"
         in2="result4"
         id="feComposite13883"
         k4="0" />
      <feComposite
         in2="result5"
         in="result6"
         operator="over"
         id="feComposite13885" />
    </filter>
    <filter
       inkscape:label="Ink Paint"
       inkscape:menu="Textures"
       inkscape:menu-tooltip="Ink paint on paper with some turbulent color shift"
       height="2.9318114"
       y="-0.96590568"
       width="3.0563753"
       x="-1.0281877"
       style="color-interpolation-filters:sRGB"
       id="filter15521">
      <feTurbulence
         type="fractalNoise"
         baseFrequency="0.07"
         numOctaves="4"
         result="result0"
         id="feTurbulence15509" />
      <feDisplacementMap
         in2="result0"
         in="SourceGraphic"
         xChannelSelector="R"
         yChannelSelector="G"
         scale="10"
         result="result2"
         id="feDisplacementMap15511" />
      <feBlend
         result="result5"
         in="result2"
         mode="multiply"
         in2="result2"
         id="feBlend15513" />
      <feGaussianBlur
         stdDeviation="10"
         in="result2"
         result="result4"
         id="feGaussianBlur15515" />
      <feComposite
         operator="arithmetic"
         in2="result4"
         in="result0"
         k3="0.5"
         k1="2"
         result="result6"
         id="feComposite15517"
         k2="0"
         k4="0" />
      <feComposite
         operator="in"
         in2="result5"
         in="result6"
         result="result7"
         id="feComposite15519" />
    </filter>
    <filter
       inkscape:label="Ink Paint"
       inkscape:menu="Textures"
       inkscape:menu-tooltip="Ink paint on paper with some turbulent color shift"
       height="2.9318114"
       y="-0.96590568"
       width="3.0563753"
       x="-1.0281877"
       style="color-interpolation-filters:sRGB"
       id="filter15535">
      <feTurbulence
         type="fractalNoise"
         baseFrequency="0.07"
         numOctaves="4"
         result="result0"
         id="feTurbulence15523" />
      <feDisplacementMap
         in2="result0"
         in="SourceGraphic"
         xChannelSelector="R"
         yChannelSelector="G"
         scale="10"
         result="result2"
         id="feDisplacementMap15525" />
      <feBlend
         result="result5"
         in="result2"
         mode="multiply"
         in2="result2"
         id="feBlend15527" />
      <feGaussianBlur
         stdDeviation="10"
         in="result2"
         result="result4"
         id="feGaussianBlur15529" />
      <feComposite
         operator="arithmetic"
         in2="result4"
         in="result0"
         k3="0.5"
         k1="2"
         result="result6"
         id="feComposite15531"
         k2="0"
         k4="0" />
      <feComposite
         operator="in"
         in2="result5"
         in="result6"
         result="result7"
         id="feComposite15533" />
    </filter>
    <filter
       inkscape:label="Ink Paint"
       inkscape:menu="Textures"
       inkscape:menu-tooltip="Ink paint on paper with some turbulent color shift"
       height="2.9318114"
       y="-0.96590568"
       width="3.0563753"
       x="-1.0281877"
       style="color-interpolation-filters:sRGB"
       id="filter15549">
      <feTurbulence
         type="fractalNoise"
         baseFrequency="0.07"
         numOctaves="4"
         result="result0"
         id="feTurbulence15537" />
      <feDisplacementMap
         in2="result0"
         in="SourceGraphic"
         xChannelSelector="R"
         yChannelSelector="G"
         scale="10"
         result="result2"
         id="feDisplacementMap15539" />
      <feBlend
         result="result5"
         in="result2"
         mode="multiply"
         in2="result2"
         id="feBlend15541" />
      <feGaussianBlur
         stdDeviation="10"
         in="result2"
         result="result4"
         id="feGaussianBlur15543" />
      <feComposite
         operator="arithmetic"
         in2="result4"
         in="result0"
         k3="0.5"
         k1="2"
         result="result6"
         id="feComposite15545"
         k2="0"
         k4="0" />
      <feComposite
         operator="in"
         in2="result5"
         in="result6"
         result="result7"
         id="feComposite15547" />
    </filter>
    <filter
       inkscape:label="Ink Paint"
       inkscape:menu="Textures"
       inkscape:menu-tooltip="Ink paint on paper with some turbulent color shift"
       height="2.9318114"
       y="-0.96590568"
       width="3.0563753"
       x="-1.0281877"
       style="color-interpolation-filters:sRGB"
       id="filter15563">
      <feTurbulence
         type="fractalNoise"
         baseFrequency="0.07"
         numOctaves="4"
         result="result0"
         id="feTurbulence15551" />
      <feDisplacementMap
         in2="result0"
         in="SourceGraphic"
         xChannelSelector="R"
         yChannelSelector="G"
         scale="10"
         result="result2"
         id="feDisplacementMap15553" />
      <feBlend
         result="result5"
         in="result2"
         mode="multiply"
         in2="result2"
         id="feBlend15555" />
      <feGaussianBlur
         stdDeviation="10"
         in="result2"
         result="result4"
         id="feGaussianBlur15557" />
      <feComposite
         operator="arithmetic"
         in2="result4"
         in="result0"
         k3="0.5"
         k1="2"
         result="result6"
         id="feComposite15559"
         k2="0"
         k4="0" />
      <feComposite
         operator="in"
         in2="result5"
         in="result6"
         result="result7"
         id="feComposite15561" />
    </filter>
    <filter
       inkscape:label="Ink Paint"
       inkscape:menu="Textures"
       inkscape:menu-tooltip="Ink paint on paper with some turbulent color shift"
       height="2.9318114"
       y="-0.96590568"
       width="3.0563753"
       x="-1.0281877"
       style="color-interpolation-filters:sRGB"
       id="filter15577">
      <feTurbulence
         type="fractalNoise"
         baseFrequency="0.07"
         numOctaves="4"
         result="result0"
         id="feTurbulence15565" />
      <feDisplacementMap
         in2="result0"
         in="SourceGraphic"
         xChannelSelector="R"
         yChannelSelector="G"
         scale="10"
         result="result2"
         id="feDisplacementMap15567" />
      <feBlend
         result="result5"
         in="result2"
         mode="multiply"
         in2="result2"
         id="feBlend15569" />
      <feGaussianBlur
         stdDeviation="10"
         in="result2"
         result="result4"
         id="feGaussianBlur15571" />
      <feComposite
         operator="arithmetic"
         in2="result4"
         in="result0"
         k3="0.5"
         k1="2"
         result="result6"
         id="feComposite15573"
         k2="0"
         k4="0" />
      <feComposite
         operator="in"
         in2="result5"
         in="result6"
         result="result7"
         id="feComposite15575" />
    </filter>
    <filter
       inkscape:label="Ink Paint"
       inkscape:menu="Textures"
       inkscape:menu-tooltip="Ink paint on paper with some turbulent color shift"
       height="2.9318114"
       y="-0.96590568"
       width="3.0563753"
       x="-1.0281877"
       style="color-interpolation-filters:sRGB"
       id="filter15591">
      <feTurbulence
         type="fractalNoise"
         baseFrequency="0.07"
         numOctaves="4"
         result="result0"
         id="feTurbulence15579" />
      <feDisplacementMap
         in2="result0"
         in="SourceGraphic"
         xChannelSelector="R"
         yChannelSelector="G"
         scale="10"
         result="result2"
         id="feDisplacementMap15581" />
      <feBlend
         result="result5"
         in="result2"
         mode="multiply"
         in2="result2"
         id="feBlend15583" />
      <feGaussianBlur
         stdDeviation="10"
         in="result2"
         result="result4"
         id="feGaussianBlur15585" />
      <feComposite
         operator="arithmetic"
         in2="result4"
         in="result0"
         k3="0.5"
         k1="2"
         result="result6"
         id="feComposite15587"
         k2="0"
         k4="0" />
      <feComposite
         operator="in"
         in2="result5"
         in="result6"
         result="result7"
         id="feComposite15589" />
    </filter>
  </defs>
  <g
     inkscape:label="Calque 1"
     inkscape:groupmode="layer"
     id="layer1">
    <g
       id="g1144"
       transform="translate(0,1.1694115)">
      <rect
         style="opacity:1;fill:#ffffff;stroke-width:0.0799999;stroke-dasharray:0.32, 0.0799999;fill-opacity:1"
         id="rect319"
         width="76.470894"
         height="72.25528"
         x="-6.457181"
         y="-5.9693623" />
      <g
         id="g15601"
         transform="matrix(0.31420447,0,0,0.31420447,-0.99146942,-16.543087)"
         inkscape:label="logo">
        <path
           id="path3573"
           style="display:inline;opacity:0.8;fill:#ffd42a;fill-opacity:1;stroke:#ffd42a;stroke-width:2.71399;stroke-linecap:round;stroke-linejoin:round;stroke-opacity:1;filter:url(#filter13887)"
           d="m 83.993445,115.75062 c -10.143284,2.44827 -19.698687,6.41193 -29.694441,9.25611 -1.090272,1.00884 -4.390575,3.14876 -0.361048,1.91832 -0.230694,1.54819 -2.643444,2.26057 -0.554098,2.79593 -2.031426,1.46324 -5.829688,3.13056 -0.796351,2.67404 1.874098,2.06738 -8.616198,5.36086 -1.668299,3.6645 3.256744,-1.88696 0.210942,4.66894 -2.605787,4.98063 -1.287724,0.98073 5.299081,-1.48083 2.654267,1.67209 0.326341,1.96142 -2.313783,3.52869 -1.957232,4.42082 -3.285715,2.22817 3.049275,-0.91189 0.727002,2.34373 0.77672,2.20059 -5.875704,3.98812 -0.671306,3.7171 0.166284,2.21719 -1.893737,5.07413 -3.701568,6.21921 4.423456,-0.93125 1.424485,3.69694 0.735437,5.19814 -4.269991,0.12536 3.815134,1.23826 -1.907265,2.15228 -4.862627,2.53297 5.803472,0.15012 0.418601,2.88716 -3.939703,1.74986 -1.958513,1.95077 0.912032,1.68146 -1.144517,1.74717 -8.380286,4.50297 -1.66402,3.02711 5.476573,0.7552 -9.572943,6.20856 -1.187488,4.08167 20.181255,-3.13947 40.169376,-7.49818 59.931049,-12.58559 15.5672,-3.76577 31.14791,-7.48241 46.71113,-11.26265 -28.42524,6.12177 -56.630838,13.28001 -85.214691,18.65723 32.006943,-7.76574 64.207871,-14.92496 96.308401,-22.26219 2.07087,0.10933 7.76892,-4.25392 2.63887,-2.36546 0.97065,-2.00802 10.57769,-5.7559 3.16875,-3.24609 -5.86278,2.94109 -1.41085,-3.39122 -1.55232,-3.22743 -3.51202,0.069 8.18195,-2.44598 6.15924,-3.49267 -2.68734,0.79987 -10.80655,1.76365 -3.77837,-0.2429 2.68753,-0.58678 5.72313,-4.02669 1.17365,-1.74845 -2.16146,1.59384 -7.27242,1.59831 -2.59344,-0.64306 4.86175,-2.26484 1.67674,1.73827 4.48498,-1.42062 -5.68477,1.67069 0.13991,-0.85795 -5.55019,0.54269 -1.26603,-0.41921 5.90446,-4.1737 0.0824,-2.05301 -2.04953,-1.09087 11.47655,-3.79271 4.76145,-3.88865 -2.32231,0.70902 -7.69219,4.59279 -4.41973,0.7008 3.23993,-1.15968 3.14461,-2.8096 -0.253,-1.65816 5.27871,-2.01968 2.25925,1.3816 6.4731,-2.36168 -5.44561,0.28289 -1.32423,0.494 -6.89131,0.3277 -0.39252,-3.30168 0.0536,-6.01207 5.32887,-5.48496 4.79127,-0.44107 7.13869,-3.66494 1.23831,-1.92711 -3.59367,1.15996 -8.84761,-0.10029 -2.51054,-1.58764 1.91983,-0.95231 10.51437,-6.42536 3.93504,-3.4002 -1.83209,1.41693 -10.63947,5.74948 -5.99052,1.44258 3.22449,-2.07225 -4.81637,0.28679 -0.42285,-2.774 4.60001,-2.18103 -3.21994,2.495 2.49156,1.09559 4.26926,-0.6177 1.09803,-2.1157 1.52256,-2.685 2.33408,0.48697 11.52376,-5.30697 4.60976,-2.60111 -3.23268,0.8003 -13.54968,5.48258 -5.81548,1.26597 6.90232,-3.80102 -6.57078,2.39886 -2.0002,-1.24741 2.25731,-2.09284 9.12022,-3.45722 9.16567,-5.2389 -3.24738,0.33632 -10.18322,5.6741 -10.36585,2.49868 1.5503,-0.0784 10.59231,-2.3481 5.6793,-2.65196 -1.59275,1.83116 -8.56168,1.09855 -2.90601,0.15586 3.12428,0.44037 8.94157,-3.591267 3.83094,-3.086967 -4.47006,2.126187 -9.18858,0.154947 -5.28208,-3.44812 3.00569,-0.31089 10.0302,-5.30961 3.05471,-2.39144 -3.26466,2.62055 -6.44147,-0.23157 -2.04107,-1.86809 2.11151,-0.4103 7.98684,-1.44336 2.35657,-1.38373 -9.27568,0.61118 -18.09264,4.18331 -26.95715,6.69034 -19.68088,6.211807 -39.11685,13.117797 -59.239907,18.167497 z M 173.93185,93.757393 c -3.33289,1.17661 -4.91165,3.86435 -1.10363,0.8058 l 0.55182,-0.40288 z m 3.35184,1.31181 c -2.85171,0.40376 -9.35348,2.07108 -9.0311,3.59756 3.37724,-0.43745 6.74516,-1.39737 9.0311,-3.59756 z m -1.6941,11.312697 c -3.07334,0.67146 -7.25929,5.22477 -2.06595,1.54476 0.68867,-0.51491 1.3773,-1.02982 2.06595,-1.54476 z m -0.77818,3.97137 c -3.47902,0.97648 -7.54084,5.30049 -2.18491,1.66261 0.73313,-0.55058 1.41986,-1.13672 2.18491,-1.66261 z m -4.60231,10.51155 c -2.88613,0.99426 -8.42372,5.52797 -2.09707,3.05857 2.40616,-0.69542 4.03256,-2.7659 0.42507,-1.84508 0.47574,-0.46594 1.18454,-0.75264 1.672,-1.21349 z m 2.28505,18.8886 c -3.27908,0.0548 -12.85161,5.45116 -4.91394,2.8698 1.96746,-0.5935 3.50138,-1.68474 4.91394,-2.8698 z"
           sodipodi:nodetypes="ccccccccccccccccccccccccccccccccccccccccccccccsccccccccscccccsccscccccccccccccc"
           inkscape:label="fond"
           transform="matrix(0.96305146,0,0,1.2010595,0.34057787,-13.544944)" />
        <g
           id="g13533"
           transform="matrix(1.29707,0.21639894,-0.21639894,1.29707,-13.055626,-44.733656)"
           inkscape:label="grappe">
          <ellipse
             style="opacity:1;fill:#d40000;fill-opacity:1;stroke:#d40000;stroke-width:0.499999;stroke-linecap:round;stroke-linejoin:bevel;stroke-dasharray:none;stroke-dashoffset:0;stroke-opacity:1;filter:url(#filter15521)"
             id="path13444"
             cx="82.934006"
             cy="113.09853"
             rx="11.792594"
             ry="12.552985" />
          <ellipse
             style="fill:#d40000;fill-opacity:1;stroke:#d40000;stroke-width:0.499999;stroke-linecap:round;stroke-linejoin:bevel;stroke-dasharray:none;stroke-dashoffset:0;stroke-opacity:1;filter:url(#filter15535)"
             id="path13444-7"
             cx="109.39912"
             cy="107.79318"
             rx="11.792594"
             ry="12.552985" />
          <ellipse
             style="fill:#d40000;fill-opacity:1;stroke:#d40000;stroke-width:0.499999;stroke-linecap:round;stroke-linejoin:bevel;stroke-dasharray:none;stroke-dashoffset:0;stroke-opacity:1;filter:url(#filter15549)"
             id="path13444-6"
             cx="135.08907"
             cy="102.61382"
             rx="11.792594"
             ry="12.552985" />
          <ellipse
             style="fill:#d40000;fill-opacity:1;stroke:#d40000;stroke-width:0.499999;stroke-linecap:round;stroke-linejoin:bevel;stroke-dasharray:none;stroke-dashoffset:0;stroke-opacity:1;filter:url(#filter15563)"
             id="path13444-5"
             cx="100.03194"
             cy="132.46039"
             rx="11.792594"
             ry="12.552985" />
          <ellipse
             style="fill:#d40000;fill-opacity:1;stroke:#d40000;stroke-width:0.499999;stroke-linecap:round;stroke-linejoin:bevel;stroke-dasharray:none;stroke-dashoffset:0;stroke-opacity:1;filter:url(#filter15577)"
             id="path13444-69"
             cx="126.65582"
             cy="127.76671"
             rx="11.792594"
             ry="12.552985" />
          <ellipse
             style="fill:#d40000;fill-opacity:1;stroke:#d40000;stroke-width:0.499999;stroke-linecap:round;stroke-linejoin:bevel;stroke-dasharray:none;stroke-dashoffset:0;stroke-opacity:1;filter:url(#filter15591)"
             id="path13444-3"
             cx="116.18327"
             cy="153.41881"
             rx="11.792594"
             ry="12.552985" />
        </g>
      </g>
      <g
         id="g1123"
         transform="translate(-46.194903,50.051175)">
        <g
           id="g1746"
           inkscape:label="2024">
          <text
             xml:space="preserve"
             style="font-size:5.29167px;line-height:10px;font-family:Quicksand;-inkscape-font-specification:Quicksand;text-align:center;writing-mode:lr-tb;text-anchor:middle;opacity:1;fill:#000000;stroke:none;stroke-width:0.499999;stroke-linecap:round;stroke-linejoin:bevel"
             x="78.28524"
             y="10.357085"
             id="text1097"><tspan
               sodipodi:role="line"
               id="tspan1095"
               style="stroke-width:0.5"
               x="78.28524"
               y="10.357085">- 2   24 -</tspan></text>
          <path
             inkscape:connector-curvature="0"
             id="path3054"
             d="M 76.48291,10.649755 C 75.543955,10.520502 74.787761,9.847711 74.582622,8.9590536 74.532842,8.7434696 74.513395,8.4121584 74.54023,8.2373658 74.593169,7.8923306 74.671245,7.6578583 74.815271,7.4115631 74.939407,7.1992748 75.132632,6.971373 75.320624,6.8155388 75.613296,6.572933 75.998098,6.3960417 76.375005,6.3308417 c 0.384119,-0.066456 0.730114,-0.043934 1.117889,0.072826 0.03818,0.011596 0.07143,0.024172 0.07391,0.028173 0.0024,0.00408 -0.01952,0.033906 -0.04881,0.066456 l -0.05338,0.059172 -0.108358,-0.030492 c -0.364822,-0.1026972 -0.747775,-0.1044121 -1.130305,-0.00506 -0.482668,0.1252194 -0.927855,0.4417972 -1.207147,0.8583267 -0.220481,0.3288189 -0.334096,0.7036865 -0.334096,1.1023486 0,0.5019309 0.17497,0.9501891 0.522523,1.3385896 0.09598,0.1072376 0.09689,0.1081195 0.235744,0.2215734 0.284233,0.232239 0.610042,0.375143 1.024539,0.449372 0.09545,0.01718 0.418385,0.02376 0.534907,0.01094 0.804824,-0.08792 1.474896,-0.5919277 1.75706,-1.321602 0.158513,-0.4099216 0.169417,-0.8983506 0.02935,-1.315847 l -0.0294,-0.087688 0.05734,-0.063696 0.05734,-0.063679 0.0279,0.07098 c 0.042,0.1067475 0.08674,0.2698365 0.111772,0.4073982 0.03015,0.1656694 0.03235,0.5066019 0.0046,0.6764116 -0.07685,0.4675253 -0.282818,0.8676263 -0.61733,1.1992162 -0.296962,0.294366 -0.668131,0.503767 -1.054469,0.594886 -0.03675,0.0088 -0.07607,0.01803 -0.08737,0.02084 -0.161909,0.04001 -0.583467,0.056 -0.776086,0.02948 z M 76.189949,9.4895954 c -0.01719,-0.00245 -0.09486,-0.020056 -0.173151,-0.039181 -0.08935,-0.02182 -0.181161,-0.03696 -0.246701,-0.0407 -0.10216,-0.00555 -0.106253,-0.00506 -0.191431,0.02997 -0.04788,0.019762 -0.08949,0.033416 -0.09253,0.030378 -0.01223,-0.012086 -0.0019,-0.1779056 0.01478,-0.2348774 0.03397,-0.1172002 0.136604,-0.2788911 0.258082,-0.4065946 0.02791,-0.029267 0.106219,-0.1112063 0.174069,-0.1820327 0.301043,-0.3141607 0.401835,-0.4835784 0.437607,-0.7355556 0.02057,-0.1450794 -0.009,-0.2409563 -0.09246,-0.2968616 -0.06128,-0.041174 -0.181018,-0.028238 -0.239563,0.025919 -0.07502,0.069396 -0.07361,0.2413825 0.0024,0.321342 0.04283,0.04493 0.04075,0.049634 -0.04083,0.091705 -0.06653,0.034314 -0.152109,0.038267 -0.203607,0.00947 -0.07899,-0.044244 -0.117275,-0.1460267 -0.100987,-0.268432 0.02026,-0.1523473 0.145519,-0.2724024 0.336941,-0.3230177 0.07996,-0.02115 0.326098,-0.024417 0.407912,-0.00539 0.22649,0.052606 0.330178,0.2010043 0.316574,0.4531579 -0.01529,0.2874656 -0.153044,0.4817671 -0.585697,0.8274 -0.06892,0.055056 -0.164186,0.1369949 -0.211733,0.1820883 -0.08351,0.079211 -0.170187,0.1782044 -0.162623,0.185732 0.0019,0.0018 0.04496,0.008 0.09545,0.013719 0.05048,0.00539 0.147252,0.017002 0.215114,0.025658 0.277974,0.035523 0.369705,0.016169 0.519133,-0.1091974 l 0.07193,-0.060348 -5.49e-4,0.1004107 c -0.0011,0.2386812 -0.05348,0.3555237 -0.177139,0.39665 -0.04723,0.015679 -0.246521,0.021052 -0.331144,0.00898 z m 1.088981,-0.03175 c 0.0031,-0.00947 0.01719,-0.072466 0.03123,-0.1400981 0.0141,-0.067616 0.03533,-0.1667898 0.04693,-0.2203433 0.01155,-0.053537 0.0324,-0.1510733 0.0462,-0.2167306 0.01376,-0.065672 0.02794,-0.1267709 0.03144,-0.13577 0.0058,-0.014862 -0.02553,-0.016365 -0.328391,-0.016365 h -0.334718 l 0.02429,-0.064039 c 0.01342,-0.035196 0.06687,-0.1539805 0.118855,-0.2639014 0.14552,-0.3074841 0.198774,-0.4442781 0.232139,-0.596088 0.01749,-0.079816 0.02383,-0.2934236 0.01002,-0.3355477 -0.0078,-0.024417 -0.0076,-0.02458 0.04638,-0.018178 0.03001,0.00343 0.07915,0.018439 0.109208,0.033089 0.13735,0.066995 0.171269,0.2159467 0.09908,0.4350242 -0.03684,0.1117779 -0.08146,0.1887845 -0.269758,0.4656439 -0.04579,0.067289 -0.08319,0.1283715 -0.08319,0.1357864 0,0.010616 0.04343,0.013392 0.21053,0.013392 0.209992,0 0.210542,-5.72e-5 0.215537,-0.023061 0.0031,-0.012739 0.02157,-0.101456 0.04185,-0.1972855 0.02026,-0.095838 0.05026,-0.2364861 0.06663,-0.3125846 0.01613,-0.076108 0.04696,-0.2190628 0.06794,-0.3177063 0.02098,-0.098614 0.03925,-0.1808062 0.04056,-0.1825864 0.0019,-0.00212 0.375291,-0.052867 0.392754,-0.053112 0.0031,-4.41e-5 -0.0019,0.025315 -0.01846,0.09734 -0.0051,0.022555 -0.02133,0.098614 -0.03594,0.1690943 -0.01444,0.070474 -0.03069,0.1465657 -0.0358,0.1690927 -0.06189,0.2743949 -0.133597,0.6130147 -0.133597,0.630781 0,0.018178 0.0076,0.020007 0.08224,0.020007 0.04523,0 0.08214,0.00109 0.08202,0.00245 -1.2e-4,0.00139 -0.01104,0.044081 -0.02437,0.094792 l -0.02415,0.092261 -0.08282,0.0031 -0.08278,0.0031 -0.01172,0.053406 c -0.0063,0.029365 -0.02286,0.1064373 -0.03643,0.1712665 -0.01376,0.064839 -0.04341,0.2054859 -0.06615,0.3125846 -0.02274,0.1070906 -0.04137,0.198347 -0.04141,0.2027731 -3.4e-5,0.00441 -0.08813,0.00768 -0.195791,0.00653 -0.177854,-9.31e-4 -0.195248,-0.0031 -0.190356,-0.018292 z m 0.515201,-2.2063467 c -0.02683,-0.031766 -0.02841,-0.038805 -0.02405,-0.1061269 0.01036,-0.1588965 0.09205,-0.2482633 0.207315,-0.2267031 0.04127,0.00768 0.06349,0.048556 0.0528,0.096997 -0.0088,0.040455 -0.07566,0.099708 -0.128179,0.1138032 -0.03475,0.00947 -0.0417,0.015516 -0.0417,0.037107 0,0.062683 0.04728,0.088439 0.108902,0.059286 0.06748,-0.031897 0.09835,-0.097291 0.124222,-0.2627533 l 0.0059,-0.038446 h 0.05488 c 0.04455,0 0.05374,0.0031 0.04896,0.015352 -0.0075,0.019354 0.0058,0.019207 0.03164,-3.217e-4 0.02921,-0.022032 0.08764,-0.018929 0.11432,0.00588 l 0.02254,0.021134 0.03465,-0.021069 c 0.04693,-0.028516 0.102261,-0.027732 0.128994,0.0018 0.03361,0.037237 0.03482,0.053929 0.01155,0.1618199 -0.024,0.1113207 -0.01994,0.1303151 0.02554,0.1189315 0.0229,-0.00555 0.02541,-0.012412 0.03074,-0.082445 0.01053,-0.1372563 0.06797,-0.2203695 0.158631,-0.2289602 0.03964,-0.00376 0.05481,-3.185e-4 0.07758,0.017508 0.07057,0.05553 0.0024,0.1699975 -0.118227,0.1988696 -0.02301,0.00539 -0.02828,0.012412 -0.02828,0.037303 0,0.044179 0.03468,0.075357 0.0749,0.067387 0.01729,-0.00343 0.03928,-0.013066 0.04857,-0.021558 0.04103,-0.037009 0.04161,-0.00408 6.68e-4,0.03678 -0.02655,0.026475 -0.03726,0.02997 -0.09173,0.02997 -0.05009,0 -0.06719,-0.00457 -0.09093,-0.024564 l -0.02923,-0.024547 -0.02864,0.024547 c -0.03684,0.031603 -0.100682,0.033546 -0.130285,0.00408 -0.02415,-0.024074 -0.02522,-0.054501 -0.0049,-0.1383341 0.02806,-0.1157957 0.01512,-0.1695353 -0.03618,-0.1506324 -0.01817,0.00653 -0.02413,0.018407 -0.02762,0.053994 -0.0024,0.024988 -0.01478,0.091526 -0.02712,0.1479049 l -0.02271,0.1024686 -0.05218,0.0031 -0.05219,0.0031 0.01274,-0.0594 c 0.05131,-0.2396725 0.04898,-0.2195136 0.0277,-0.2407455 -0.01512,-0.015189 -0.02493,-0.017329 -0.04484,-0.00996 -0.02279,0.00882 -0.02828,0.023094 -0.05384,0.141372 -0.01546,0.07245 -0.03083,0.139804 -0.03368,0.149685 -0.0042,0.014046 -0.01664,0.017917 -0.05528,0.017917 h -0.05002 l 0.0059,-0.037679 0.0059,-0.037678 -0.04322,0.034657 c -0.03662,0.029333 -0.05316,0.035261 -0.107747,0.038756 -0.06252,0.00408 -0.06537,0.0031 -0.09324,-0.02997 z m 0.125818,-0.1566589 c 0.04095,-0.021134 0.06386,-0.050467 0.07031,-0.089925 0.0073,-0.043199 -0.01444,-0.067142 -0.04579,-0.050516 -0.02014,0.010943 -0.05698,0.078738 -0.0694,0.1280448 -0.0078,0.030803 0.0034,0.033889 0.04487,0.012412 z m 0.834255,-7.742e-4 c 0.04241,-0.021852 0.07235,-0.064496 0.07235,-0.1029748 0,-0.034706 -0.01809,-0.050091 -0.04623,-0.039279 -0.01512,0.00555 -0.07709,0.1234065 -0.07709,0.1461083 0,0.015352 0.0158,0.014209 0.051,-0.00376 z m -0.892859,-0.3353125 -0.08635,-0.051773 0.04008,-0.034216 c 0.02206,-0.018798 0.04251,-0.034379 0.04541,-0.034575 0.0031,-2.09e-4 0.02838,0.018635 0.05654,0.04186 0.02816,0.023241 0.06237,0.050973 0.07594,0.061687 l 0.02475,0.019468 -0.02396,0.025413 c -0.01308,0.014046 -0.02896,0.025103 -0.03502,0.024694 -0.0059,-3.953e-4 -0.0499,-0.024008 -0.09739,-0.052524 z"
             style="fill:#000000;fill-opacity:1;stroke:#000000;stroke-width:0.03331;stroke-dasharray:none;stroke-opacity:1" />
        </g>
        <text
           xml:space="preserve"
           style="font-size:5.29167px;line-height:10px;font-family:Quicksand;-inkscape-font-specification:Quicksand;text-align:center;writing-mode:lr-tb;text-anchor:middle;opacity:1;fill:#000000;stroke:none;stroke-width:0.499999;stroke-linecap:round;stroke-linejoin:bevel"
           x="78.237236"
           y="4.9570856"
           id="text1101"><tspan
             sodipodi:role="line"
             id="tspan1099"
             style="stroke-width:0.5"
             x="78.237236"
             y="4.9570856">AOC Bonne Année</tspan></text>
      </g>
      <g
         id="g1117">
        <text
           xml:space="preserve"
           style="font-size:5.29167px;line-height:10px;font-family:Quicksand;-inkscape-font-specification:Quicksand;text-align:center;writing-mode:lr-tb;text-anchor:middle;opacity:1;fill:#000000;stroke:none;stroke-width:0.499999;stroke-linecap:round;stroke-linejoin:bevel"
           x="31.870354"
           y="4.9570856"
           id="text435"><tspan
             sodipodi:role="line"
             id="tspan433"
             style="fill:#000000;stroke:none;stroke-width:0.5"
             x="31.870354"
             y="4.9570856">Domaine 24ème</tspan></text>
        <text
           xml:space="preserve"
           id="text3431"
           style="font-size:5.29167px;line-height:10px;font-family:Quicksand;-inkscape-font-specification:Quicksand;text-align:center;letter-spacing:0px;word-spacing:0px;writing-mode:lr-tb;text-anchor:middle;fill:#000000;stroke:none;stroke-width:0.264583px;stroke-linecap:butt;stroke-linejoin:miter;stroke-opacity:1"
           inkscape:label="CUVEE"
           x="31.992065"
           y="10.351382"><tspan
             sodipodi:role="line"
             id="tspan52731"
             x="31.992065"
             y="10.351382">Cuvée %CUVEE%</tspan></text>
      </g>
    </g>
    <g
       id="g7019"
       transform="matrix(1.6984111,0,0,1.6332251,-9.1610244,-19.495096)"
       style="stroke:#000000;stroke-opacity:1">
      <g
         id="g26417"
         transform="translate(0.96443468)"
         style="stroke:#000000;stroke-opacity:1" />
    </g>
  </g>
</svg>
