<?xml version="1.0" encoding="UTF-8" standalone="no"?>
<!-- Created with Inkscape (http://www.inkscape.org/) -->

<svg
   width="64mm"
   height="64mm"
   viewBox="0 0 64 64"
   version="1.1"
   id="svg5"
   inkscape:version="1.2.2 (b0a8486541, 2022-12-01)"
   sodipodi:docname="recto_grappe.svg"
   inkscape:export-filename="../png/recto1.png"
   inkscape:export-xdpi="300"
   inkscape:export-ydpi="300"
   xmlns:inkscape="http://www.inkscape.org/namespaces/inkscape"
   xmlns:sodipodi="http://sodipodi.sourceforge.net/DTD/sodipodi-0.dtd"
   xmlns:xlink="http://www.w3.org/1999/xlink"
   xmlns="http://www.w3.org/2000/svg"
   xmlns:svg="http://www.w3.org/2000/svg">
  <sodipodi:namedview
     id="namedview7"
     pagecolor="#ffffff"
     bordercolor="#666666"
     borderopacity="1.0"
     inkscape:showpageshadow="2"
     inkscape:pageopacity="0.0"
     inkscape:pagecheckerboard="0"
     inkscape:deskcolor="#d1d1d1"
     inkscape:document-units="mm"
     showgrid="false"
     inkscape:zoom="6.7277217"
     inkscape:cx="69.265648"
     inkscape:cy="41.024289"
     inkscape:window-width="1624"
     inkscape:window-height="1011"
     inkscape:window-x="0"
     inkscape:window-y="32"
     inkscape:window-maximized="1"
     inkscape:current-layer="layer1" />
  <defs
     id="defs2">
    <linearGradient
       inkscape:collect="always"
       id="linearGradient970">
      <stop
         style="stop-color:#999999;stop-opacity:1;"
         offset="0"
         id="stop966" />
      <stop
         style="stop-color:#9a9a9a;stop-opacity:0;"
         offset="1"
         id="stop968" />
    </linearGradient>
    <radialGradient
       inkscape:collect="always"
       xlink:href="#linearGradient970"
       id="radialGradient972"
       cx="5.4348736"
       cy="44.927299"
       fx="5.4348736"
       fy="44.927299"
       r="22.405987"
       gradientTransform="matrix(1,0,0,1.4601897,0,-20.675081)"
       gradientUnits="userSpaceOnUse" />
  </defs>
  <g
     inkscape:label="Calque 1"
     inkscape:groupmode="layer"
     id="layer1">
    <rect
       style="display:inline;fill:#ffffff;fill-opacity:1;fill-rule:evenodd;stroke:#ffffff;stroke-width:0.0715002px;stroke-linecap:butt;stroke-linejoin:miter;stroke-opacity:1"
       id="rect311"
       width="81.768463"
       height="80.06723"
       x="-8.1547337"
       y="-5.3651552" />
    <ellipse
       style="opacity:0.64;fill:url(#radialGradient972);stroke-width:0.643068;stroke-linecap:round;stroke-linejoin:bevel;fill-opacity:1"
       id="path324"
       cx="5.4348736"
       cy="44.927299"
       rx="22.405987"
       ry="32.716991"
       transform="rotate(-38.102422)" />
    <g
       id="g2163"
       transform="matrix(0.24391244,-0.00708112,0.00708112,0.24391244,6.8500716,3.2315236)"
       inkscape:label="grappe"
       style="display:inline">
      <g
         id="g1160"
         transform="translate(-8.9091873,22.330324)">
        <ellipse
           style="opacity:0.8;fill:#b53232;fill-opacity:1;stroke:none;stroke-width:2.51115;stroke-linecap:round;stroke-linejoin:round"
           id="path234-3-56"
           cx="109.17144"
           cy="152.16357"
           rx="15.290368"
           ry="13.740038" />
        <path
           inkscape:connector-curvature="0"
           id="path3054-6"
           d="m 105.84092,156.51932 c -0.0574,-0.008 -0.32096,-0.0681 -0.58573,-0.13301 -0.30222,-0.074 -0.61288,-0.12542 -0.8346,-0.13806 -0.3456,-0.0197 -0.35951,-0.0175 -0.64761,0.1017 -0.16193,0.067 -0.30277,0.11344 -0.31297,0.10317 -0.0412,-0.0415 -0.006,-0.60366 0.0497,-0.79698 0.11488,-0.39767 0.46209,-0.94631 0.87311,-1.37962 0.0943,-0.0994 0.3593,-0.37737 0.58887,-0.61766 1.01844,-1.06598 1.35942,-1.64084 1.48043,-2.49583 0.0697,-0.4923 -0.0314,-0.81759 -0.31285,-1.00729 -0.20732,-0.13971 -0.61239,-0.0958 -0.81044,0.0879 -0.2539,0.23546 -0.24905,0.81903 0.009,1.09036 0.14495,0.15237 0.13784,0.16839 -0.13816,0.31115 -0.22508,0.11642 -0.51462,0.12984 -0.68882,0.0319 -0.2672,-0.15017 -0.39673,-0.4955 -0.34163,-0.91081 0.0686,-0.51691 0.49226,-0.92431 1.13986,-1.09604 0.27054,-0.0717 1.1032,-0.0828 1.37998,-0.0184 0.76622,0.17843 1.11699,0.68204 1.07098,1.53762 -0.0525,0.97541 -0.51776,1.63469 -1.98143,2.80748 -0.23314,0.18681 -0.55547,0.46484 -0.7163,0.61785 -0.28245,0.26873 -0.57573,0.60466 -0.55018,0.63021 0.007,0.007 0.15212,0.0275 0.32285,0.046 0.17074,0.0184 0.49822,0.0576 0.72773,0.087 0.94039,0.12051 1.25072,0.055 1.75624,-0.37047 l 0.24332,-0.20482 -0.002,0.34075 c -0.004,0.80987 -0.18087,1.20633 -0.59925,1.34587 -0.15981,0.0533 -0.83398,0.0714 -1.12028,0.03 z m 3.68403,-0.10768 c 0.01,-0.032 0.0576,-0.24588 0.10568,-0.4754 0.0481,-0.22951 0.11959,-0.56596 0.15886,-0.74766 0.0393,-0.1817 0.10961,-0.51262 0.15632,-0.73538 0.0467,-0.22276 0.0945,-0.4301 0.10631,-0.46077 0.0194,-0.0504 -0.0863,-0.0558 -1.11095,-0.0558 h -1.13235 l 0.0822,-0.21734 c 0.0452,-0.11954 0.22614,-0.52249 0.4021,-0.89545 0.49222,-1.04334 0.67244,-1.5075 0.78533,-2.0226 0.0593,-0.27078 0.0806,-0.99563 0.0335,-1.13855 -0.0273,-0.0828 -0.026,-0.0834 0.15691,-0.0617 0.10147,0.012 0.26772,0.0626 0.36945,0.11235 0.46466,0.22733 0.57943,0.73273 0.33521,1.47609 -0.12461,0.37929 -0.27553,0.64057 -0.9126,1.58 -0.15481,0.22827 -0.28147,0.43562 -0.28147,0.46077 0,0.0363 0.14688,0.0457 0.71223,0.0457 0.7104,0 0.71226,-2.1e-4 0.72917,-0.0782 0.009,-0.043 0.073,-0.34427 0.14158,-0.66942 0.0686,-0.32514 0.17001,-0.80243 0.22545,-1.06063 0.0554,-0.25821 0.15887,-0.74332 0.22983,-1.07802 0.071,-0.33471 0.13273,-0.6135 0.13727,-0.61954 0.006,-0.008 1.26962,-0.1794 1.32871,-0.18017 0.01,-1.4e-4 -0.007,0.0859 -0.0624,0.33024 -0.0175,0.0765 -0.0722,0.33471 -0.12155,0.57379 -0.0494,0.23908 -0.10389,0.49728 -0.12109,0.57379 -0.20935,0.93106 -0.45198,2.08002 -0.45198,2.14032 0,0.0617 0.0255,0.0679 0.2782,0.0679 0.15301,0 0.27787,0.004 0.27747,0.009 -4.1e-4,0.005 -0.0375,0.14953 -0.0825,0.32166 l -0.0817,0.31298 -0.28007,0.0101 -0.28008,0.0101 -0.0395,0.1812 c -0.0217,0.0997 -0.0772,0.36117 -0.12334,0.58112 -0.0461,0.21995 -0.14681,0.69724 -0.22375,1.06063 -0.0769,0.3634 -0.13997,0.67302 -0.14006,0.68804 -1e-4,0.015 -0.29815,0.0255 -0.66236,0.0233 -0.60169,-0.004 -0.66052,-0.009 -0.64398,-0.0621 z m 1.74294,-7.48641 c -0.0907,-0.10784 -0.0961,-0.13176 -0.0814,-0.3601 0.0349,-0.53911 0.31143,-0.84239 0.70136,-0.76924 0.13959,0.0262 0.21479,0.16472 0.17867,0.32915 -0.0301,0.13726 -0.25597,0.33838 -0.43364,0.38623 -0.11768,0.0317 -0.14107,0.0526 -0.14107,0.12587 0,0.21278 0.15991,0.30008 0.36843,0.20112 0.22825,-0.1083 0.3328,-0.33011 0.42024,-0.89155 l 0.0203,-0.13041 h 0.18559 c 0.15068,0 0.18183,0.01 0.16558,0.0522 -0.0252,0.0656 0.0195,0.0652 0.10708,-0.001 0.0989,-0.0748 0.29647,-0.0643 0.38678,0.0206 l 0.0762,0.0716 0.11727,-0.0715 c 0.15872,-0.0968 0.34594,-0.094 0.43638,0.007 0.11376,0.12638 0.11777,0.18287 0.039,0.54906 -0.0813,0.37773 -0.0675,0.44219 0.0864,0.40357 0.0775,-0.0194 0.086,-0.0424 0.10397,-0.27973 0.0352,-0.46573 0.23003,-0.74775 0.53666,-0.7769 0.13413,-0.0127 0.18554,-0.001 0.26244,0.0596 0.23873,0.18847 0.009,0.57685 -0.39992,0.67479 -0.0778,0.0187 -0.0956,0.0422 -0.0956,0.12659 0,0.15 0.11733,0.25581 0.25346,0.22859 0.0589,-0.0118 0.13285,-0.0447 0.1643,-0.0732 0.13878,-0.1256 0.14077,-0.0138 0.002,0.1248 -0.0898,0.0898 -0.12605,0.10165 -0.31031,0.10165 -0.16941,0 -0.22728,-0.0157 -0.30767,-0.0833 l -0.099,-0.0833 -0.0969,0.0833 c -0.12455,0.10714 -0.3406,0.11388 -0.44072,0.0138 -0.0817,-0.0817 -0.0854,-0.18493 -0.0167,-0.46947 0.0949,-0.39286 0.0512,-0.57526 -0.12234,-0.51106 -0.0614,0.0227 -0.0817,0.0624 -0.0934,0.1831 -0.008,0.0847 -0.0495,0.31058 -0.0917,0.50184 l -0.0768,0.34775 -0.17649,0.0103 -0.17649,0.0103 0.043,-0.20158 c 0.17357,-0.81323 0.16573,-0.74484 0.0937,-0.81689 -0.0516,-0.0516 -0.0844,-0.0588 -0.15162,-0.0332 -0.077,0.0293 -0.0957,0.0784 -0.18218,0.47966 -0.053,0.24587 -0.10432,0.47443 -0.11402,0.5079 -0.0137,0.0472 -0.0556,0.0609 -0.18699,0.0609 h -0.16935 l 0.0207,-0.1278 0.0207,-0.12781 -0.1463,0.11757 c -0.12384,0.0995 -0.17977,0.1197 -0.3645,0.13146 -0.21151,0.0135 -0.2212,0.0103 -0.31541,-0.10162 z m 0.42572,-0.53158 c 0.13851,-0.0716 0.21607,-0.17114 0.23781,-0.30514 0.0238,-0.14665 -0.0495,-0.22778 -0.1548,-0.1714 -0.0681,0.0364 -0.19279,0.26715 -0.23475,0.43436 -0.0263,0.10458 0.011,0.11494 0.15174,0.0422 z m 2.82231,-0.003 c 0.14347,-0.0742 0.24477,-0.2188 0.24477,-0.34942 0,-0.11772 -0.0612,-0.16988 -0.15649,-0.13332 -0.0508,0.0195 -0.26081,0.41871 -0.26081,0.49571 0,0.0524 0.054,0.0483 0.17253,-0.013 z"
           style="fill:#ffffff;fill-opacity:0.941176;stroke-width:0.0347749"
           inkscape:label="24eme"
           sodipodi:nodetypes="ccssscssssccscscccsssccsccscccscssscsscsccsssscsccsscccssscccccccscccccscsssscsccscscccccccssccscccscscccccsssssscccscccssccsscssscc" />
        <ellipse
           style="opacity:0.8;fill:#ae3030;fill-opacity:1;stroke:none;stroke-width:2.51115;stroke-linecap:round;stroke-linejoin:round"
           id="path234-3"
           cx="86.802872"
           cy="112.53106"
           rx="15.290368"
           ry="13.740038" />
        <path
           inkscape:connector-curvature="0"
           id="path3054-6-06"
           d="m 83.472352,116.8868 c -0.0574,-0.008 -0.32096,-0.0681 -0.58573,-0.13302 -0.30222,-0.074 -0.61288,-0.12541 -0.8346,-0.13805 -0.3456,-0.0197 -0.35951,-0.0175 -0.64761,0.10169 -0.16193,0.067 -0.30277,0.11344 -0.31297,0.10318 -0.0412,-0.0415 -0.006,-0.60366 0.0497,-0.79698 0.11488,-0.39767 0.46209,-0.94631 0.87311,-1.37963 0.0943,-0.0994 0.3593,-0.37736 0.58887,-0.61766 1.01844,-1.06598 1.35942,-1.64084 1.48043,-2.49582 0.0697,-0.4923 -0.0314,-0.81759 -0.31285,-1.0073 -0.20732,-0.1397 -0.61239,-0.0958 -0.81044,0.0879 -0.2539,0.23546 -0.24905,0.81903 0.009,1.09036 0.14495,0.15237 0.13784,0.16839 -0.13816,0.31115 -0.22508,0.11642 -0.51462,0.12984 -0.68882,0.0319 -0.2672,-0.15017 -0.39673,-0.49549 -0.34163,-0.9108 0.0686,-0.51691 0.49226,-0.92431 1.13986,-1.09604 0.27054,-0.0717 1.1032,-0.0828 1.37998,-0.0184 0.76622,0.17844 1.11699,0.68205 1.07098,1.53763 -0.0525,0.97541 -0.51776,1.63469 -1.98143,2.80748 -0.23314,0.18681 -0.55547,0.46484 -0.7163,0.61785 -0.28245,0.26873 -0.57573,0.60466 -0.55018,0.63021 0.007,0.007 0.15212,0.0275 0.32285,0.046 0.17074,0.0184 0.49822,0.0576 0.72773,0.087 0.94039,0.12051 1.25072,0.055 1.75624,-0.37047 l 0.24332,-0.20482 -0.002,0.34075 c -0.004,0.80987 -0.18087,1.20633 -0.59925,1.34587 -0.15981,0.0533 -0.83398,0.0714 -1.12028,0.03 z m 3.68403,-0.10769 c 0.01,-0.032 0.0576,-0.24588 0.10568,-0.47539 0.0481,-0.22951 0.11959,-0.56597 0.15886,-0.74766 0.0393,-0.1817 0.10961,-0.51262 0.15632,-0.73538 0.0467,-0.22276 0.0945,-0.4301 0.10631,-0.46077 0.0194,-0.0504 -0.0863,-0.0558 -1.11095,-0.0558 h -1.13235 l 0.0822,-0.21733 c 0.0452,-0.11954 0.22614,-0.52249 0.4021,-0.89545 0.49222,-1.04334 0.67244,-1.5075 0.78533,-2.0226 0.0593,-0.27078 0.0806,-0.99563 0.0335,-1.13855 -0.0273,-0.0828 -0.026,-0.0834 0.15691,-0.0617 0.10147,0.012 0.26772,0.0626 0.36945,0.11235 0.46466,0.22733 0.57943,0.73273 0.33521,1.47609 -0.12461,0.37929 -0.27553,0.64057 -0.9126,1.58 -0.15481,0.22827 -0.28147,0.43562 -0.28147,0.46077 0,0.0363 0.14688,0.0457 0.71223,0.0457 0.7104,0 0.71226,-2.1e-4 0.72917,-0.0782 0.009,-0.043 0.073,-0.34427 0.14158,-0.66942 0.0686,-0.32514 0.17001,-0.80243 0.22545,-1.06063 0.0554,-0.25821 0.15887,-0.74332 0.22983,-1.07802 0.071,-0.33471 0.13273,-0.6135 0.13727,-0.61954 0.006,-0.008 1.26962,-0.1794 1.32871,-0.18017 0.01,-1.4e-4 -0.007,0.0859 -0.0624,0.33024 -0.0175,0.0765 -0.0722,0.33471 -0.12155,0.57379 -0.0494,0.23908 -0.10389,0.49728 -0.12109,0.57379 -0.20935,0.93106 -0.45198,2.08002 -0.45198,2.14032 0,0.0617 0.0255,0.0679 0.2782,0.0679 0.15301,0 0.27787,0.004 0.27747,0.009 -4.1e-4,0.005 -0.0375,0.14953 -0.0825,0.32166 l -0.0817,0.31298 -0.28007,0.0101 -0.28008,0.0101 -0.0395,0.1812 c -0.0217,0.0997 -0.0772,0.36117 -0.12334,0.58111 -0.0461,0.21996 -0.14681,0.69724 -0.22375,1.06064 -0.0769,0.3634 -0.13997,0.67302 -0.14006,0.68804 -1e-4,0.015 -0.29815,0.0255 -0.66236,0.0233 -0.60169,-0.004 -0.66052,-0.009 -0.64398,-0.0621 z m 1.74294,-7.48641 c -0.0907,-0.10783 -0.0961,-0.13175 -0.0814,-0.36009 0.0349,-0.53911 0.31143,-0.84239 0.70136,-0.76924 0.13959,0.0262 0.21479,0.16471 0.17867,0.32915 -0.0301,0.13726 -0.25597,0.33838 -0.43364,0.38622 -0.11768,0.0317 -0.14107,0.0526 -0.14107,0.12588 0,0.21277 0.15991,0.30007 0.36843,0.20112 0.22825,-0.10831 0.3328,-0.33012 0.42024,-0.89155 l 0.0203,-0.13041 h 0.18559 c 0.15068,0 0.18183,0.01 0.16558,0.0522 -0.0252,0.0656 0.0195,0.0652 0.10708,-0.001 0.0989,-0.0748 0.29647,-0.0643 0.38678,0.0206 l 0.0762,0.0716 0.11727,-0.0715 c 0.15872,-0.0968 0.34594,-0.094 0.43638,0.007 0.11376,0.12638 0.11777,0.18287 0.039,0.54906 -0.0813,0.37773 -0.0675,0.44219 0.0864,0.40357 0.0775,-0.0194 0.086,-0.0424 0.10397,-0.27973 0.0352,-0.46573 0.23003,-0.74775 0.53666,-0.7769 0.13413,-0.0127 0.18554,-0.001 0.26244,0.0596 0.23873,0.18847 0.009,0.57685 -0.39992,0.67479 -0.0778,0.0187 -0.0956,0.0422 -0.0956,0.12659 0,0.15 0.11733,0.25581 0.25346,0.22859 0.0589,-0.0118 0.13285,-0.0447 0.1643,-0.0732 0.13878,-0.12561 0.14077,-0.0138 0.002,0.1248 -0.0898,0.0898 -0.12605,0.10165 -0.31031,0.10165 -0.16941,0 -0.22728,-0.0157 -0.30767,-0.0833 l -0.099,-0.0833 -0.0969,0.0833 c -0.12455,0.10714 -0.3406,0.11388 -0.44072,0.0138 -0.0817,-0.0817 -0.0854,-0.18493 -0.0167,-0.46947 0.0949,-0.39286 0.0512,-0.57526 -0.12234,-0.51106 -0.0614,0.0227 -0.0817,0.0624 -0.0934,0.1831 -0.008,0.0847 -0.0495,0.31058 -0.0917,0.50184 l -0.0768,0.34775 -0.17649,0.0103 -0.17649,0.0103 0.043,-0.20158 c 0.17357,-0.81323 0.16573,-0.74484 0.0937,-0.81689 -0.0516,-0.0516 -0.0844,-0.0588 -0.15162,-0.0332 -0.077,0.0293 -0.0957,0.0784 -0.18218,0.47966 -0.053,0.24587 -0.10432,0.47443 -0.11402,0.5079 -0.0137,0.0472 -0.0556,0.0609 -0.18699,0.0609 h -0.16935 l 0.0207,-0.1278 0.0207,-0.12781 -0.1463,0.11757 c -0.12384,0.0995 -0.17977,0.1197 -0.3645,0.13146 -0.21151,0.0135 -0.2212,0.0103 -0.31541,-0.10162 z m 0.42572,-0.53158 c 0.13851,-0.0716 0.21607,-0.17114 0.23781,-0.30513 0.0238,-0.14665 -0.0495,-0.22778 -0.1548,-0.17141 -0.0681,0.0364 -0.19279,0.26715 -0.23475,0.43436 -0.0263,0.10458 0.011,0.11494 0.15174,0.0422 z m 2.82231,-0.003 c 0.14347,-0.0742 0.24477,-0.2188 0.24477,-0.34941 0,-0.11773 -0.0612,-0.16989 -0.15649,-0.13332 -0.0508,0.0195 -0.26081,0.41871 -0.26081,0.49571 0,0.0524 0.054,0.0483 0.17253,-0.013 z"
           style="fill:#ffffff;fill-opacity:0.941176;stroke-width:0.0347749"
           inkscape:label="24eme"
           sodipodi:nodetypes="ccssscssssccscscccsssccsccscccscssscsscsccsssscsccsscccssscccccccscccccscsssscsccscscccccccssccscccscscccccsssssscccscccssccsscssscc" />
        <ellipse
           style="opacity:0.8;fill:#c03535;fill-opacity:1;stroke:none;stroke-width:2.51115;stroke-linecap:round;stroke-linejoin:round"
           id="path234-3-6"
           cx="108.28852"
           cy="112.63188"
           rx="15.290368"
           ry="13.740038" />
        <path
           inkscape:connector-curvature="0"
           id="path3054-6-6"
           d="m 104.958,116.98763 c -0.0574,-0.008 -0.32096,-0.0681 -0.58573,-0.13301 -0.30222,-0.074 -0.61288,-0.12542 -0.8346,-0.13806 -0.3456,-0.0197 -0.35951,-0.0175 -0.64761,0.1017 -0.16193,0.067 -0.30277,0.11344 -0.31297,0.10317 -0.0412,-0.0415 -0.006,-0.60366 0.0497,-0.79698 0.11488,-0.39767 0.46209,-0.94631 0.87311,-1.37962 0.0943,-0.0994 0.3593,-0.37737 0.58887,-0.61766 1.01844,-1.06598 1.35942,-1.64084 1.48043,-2.49583 0.0697,-0.4923 -0.0314,-0.81759 -0.31285,-1.00729 -0.20732,-0.13971 -0.61239,-0.0958 -0.81044,0.0879 -0.2539,0.23546 -0.24905,0.81903 0.009,1.09036 0.14495,0.15237 0.13784,0.16839 -0.13816,0.31115 -0.22508,0.11642 -0.51462,0.12984 -0.68882,0.0319 -0.2672,-0.15017 -0.39673,-0.4955 -0.34163,-0.91081 0.0686,-0.51691 0.49226,-0.92431 1.13986,-1.09604 0.27054,-0.0717 1.1032,-0.0828 1.37998,-0.0184 0.76622,0.17843 1.11699,0.68204 1.07098,1.53762 -0.0525,0.97541 -0.51776,1.63469 -1.98143,2.80748 -0.23314,0.18681 -0.55547,0.46484 -0.7163,0.61785 -0.28245,0.26873 -0.57573,0.60466 -0.55018,0.63021 0.007,0.007 0.15212,0.0275 0.32285,0.046 0.17074,0.0184 0.49822,0.0576 0.72773,0.087 0.94039,0.12051 1.25072,0.055 1.75624,-0.37047 l 0.24332,-0.20482 -0.002,0.34075 c -0.004,0.80987 -0.18087,1.20633 -0.59925,1.34587 -0.15981,0.0533 -0.83398,0.0714 -1.12028,0.03 z m 3.68403,-0.10768 c 0.01,-0.032 0.0576,-0.24588 0.10568,-0.4754 0.0481,-0.22951 0.11959,-0.56596 0.15886,-0.74766 0.0393,-0.1817 0.10961,-0.51262 0.15632,-0.73538 0.0467,-0.22276 0.0945,-0.4301 0.10631,-0.46077 0.0194,-0.0504 -0.0863,-0.0558 -1.11095,-0.0558 h -1.13235 l 0.0822,-0.21734 c 0.0452,-0.11954 0.22614,-0.52249 0.4021,-0.89545 0.49222,-1.04334 0.67244,-1.5075 0.78533,-2.0226 0.0593,-0.27078 0.0806,-0.99563 0.0335,-1.13855 -0.0273,-0.0828 -0.026,-0.0834 0.15691,-0.0617 0.10147,0.012 0.26772,0.0626 0.36945,0.11235 0.46466,0.22733 0.57943,0.73273 0.33521,1.47609 -0.12461,0.37929 -0.27553,0.64057 -0.9126,1.58 -0.15481,0.22827 -0.28147,0.43562 -0.28147,0.46077 0,0.0363 0.14688,0.0457 0.71223,0.0457 0.7104,0 0.71226,-2.1e-4 0.72917,-0.0782 0.009,-0.043 0.073,-0.34427 0.14158,-0.66942 0.0686,-0.32514 0.17001,-0.80243 0.22545,-1.06063 0.0554,-0.25821 0.15887,-0.74332 0.22983,-1.07802 0.071,-0.33471 0.13273,-0.6135 0.13727,-0.61954 0.006,-0.008 1.26962,-0.1794 1.32871,-0.18017 0.01,-1.4e-4 -0.007,0.0859 -0.0624,0.33024 -0.0175,0.0765 -0.0722,0.33471 -0.12155,0.57379 -0.0494,0.23908 -0.10389,0.49728 -0.12109,0.57379 -0.20935,0.93106 -0.45198,2.08002 -0.45198,2.14032 0,0.0617 0.0255,0.0679 0.2782,0.0679 0.15301,0 0.27787,0.004 0.27747,0.009 -4.1e-4,0.005 -0.0375,0.14953 -0.0825,0.32166 l -0.0817,0.31298 -0.28007,0.0101 -0.28008,0.0101 -0.0395,0.1812 c -0.0217,0.0997 -0.0772,0.36117 -0.12334,0.58112 -0.0461,0.21995 -0.14681,0.69724 -0.22375,1.06063 -0.0769,0.3634 -0.13997,0.67302 -0.14006,0.68804 -1e-4,0.015 -0.29815,0.0255 -0.66236,0.0233 -0.60169,-0.004 -0.66052,-0.009 -0.64398,-0.0621 z m 1.74294,-7.48641 c -0.0907,-0.10784 -0.0961,-0.13176 -0.0814,-0.3601 0.0349,-0.53911 0.31143,-0.84239 0.70136,-0.76924 0.13959,0.0262 0.21479,0.16472 0.17867,0.32915 -0.0301,0.13726 -0.25597,0.33838 -0.43364,0.38623 -0.11768,0.0317 -0.14107,0.0526 -0.14107,0.12587 0,0.21278 0.15991,0.30008 0.36843,0.20112 0.22825,-0.1083 0.3328,-0.33011 0.42024,-0.89155 l 0.0203,-0.13041 h 0.18559 c 0.15068,0 0.18183,0.01 0.16558,0.0522 -0.0252,0.0656 0.0195,0.0652 0.10708,-0.001 0.0989,-0.0748 0.29647,-0.0643 0.38678,0.0206 l 0.0762,0.0716 0.11727,-0.0715 c 0.15872,-0.0968 0.34594,-0.094 0.43638,0.007 0.11376,0.12638 0.11777,0.18287 0.039,0.54906 -0.0813,0.37773 -0.0675,0.44219 0.0864,0.40357 0.0775,-0.0194 0.086,-0.0424 0.10397,-0.27973 0.0352,-0.46573 0.23003,-0.74775 0.53666,-0.7769 0.13413,-0.0127 0.18554,-0.001 0.26244,0.0596 0.23873,0.18847 0.009,0.57685 -0.39992,0.67479 -0.0778,0.0187 -0.0956,0.0422 -0.0956,0.12659 0,0.15 0.11733,0.25581 0.25346,0.22859 0.0589,-0.0118 0.13285,-0.0447 0.1643,-0.0732 0.13878,-0.1256 0.14077,-0.0138 0.002,0.1248 -0.0898,0.0898 -0.12605,0.10165 -0.31031,0.10165 -0.16941,0 -0.22728,-0.0157 -0.30767,-0.0833 l -0.099,-0.0833 -0.0969,0.0833 c -0.12455,0.10714 -0.3406,0.11388 -0.44072,0.0138 -0.0817,-0.0817 -0.0854,-0.18493 -0.0167,-0.46947 0.0949,-0.39286 0.0512,-0.57526 -0.12234,-0.51106 -0.0614,0.0227 -0.0817,0.0624 -0.0934,0.1831 -0.008,0.0847 -0.0495,0.31058 -0.0917,0.50184 l -0.0768,0.34775 -0.17649,0.0103 -0.17649,0.0103 0.043,-0.20158 c 0.17357,-0.81323 0.16573,-0.74484 0.0937,-0.81689 -0.0516,-0.0516 -0.0844,-0.0588 -0.15162,-0.0332 -0.077,0.0293 -0.0957,0.0784 -0.18218,0.47966 -0.053,0.24587 -0.10432,0.47443 -0.11402,0.5079 -0.0137,0.0472 -0.0556,0.0609 -0.18699,0.0609 h -0.16935 l 0.0207,-0.1278 0.0207,-0.12781 -0.1463,0.11757 c -0.12384,0.0995 -0.17977,0.1197 -0.3645,0.13146 -0.21151,0.0135 -0.2212,0.0103 -0.31541,-0.10162 z m 0.42572,-0.53158 c 0.13851,-0.0716 0.21607,-0.17114 0.23781,-0.30514 0.0238,-0.14665 -0.0495,-0.22778 -0.1548,-0.1714 -0.0681,0.0364 -0.19279,0.26715 -0.23475,0.43436 -0.0263,0.10458 0.011,0.11494 0.15174,0.0422 z m 2.82231,-0.003 c 0.14347,-0.0742 0.24477,-0.2188 0.24477,-0.34942 0,-0.11772 -0.0612,-0.16988 -0.15649,-0.13332 -0.0508,0.0195 -0.26081,0.41871 -0.26081,0.49571 0,0.0524 0.054,0.0483 0.17253,-0.013 z"
           style="fill:#ffffff;fill-opacity:0.941176;stroke-width:0.0347749"
           inkscape:label="24eme"
           sodipodi:nodetypes="ccssscssssccscscccsssccsccscccscssscsscsccsssscsccsscccssscccccccscccccscsssscsccscscccccccssccscccscscccccsssssscccscccssccsscssscc" />
        <ellipse
           style="opacity:0.8;fill:#b23131;fill-opacity:1;stroke:none;stroke-width:2.51115;stroke-linecap:round;stroke-linejoin:round"
           id="path234-3-7"
           cx="131.74333"
           cy="113.81548"
           rx="15.290368"
           ry="13.740038" />
        <path
           inkscape:connector-curvature="0"
           id="path3054-6-93"
           d="m 128.41281,118.17123 c -0.0574,-0.008 -0.32096,-0.0681 -0.58573,-0.13301 -0.30222,-0.074 -0.61288,-0.12542 -0.8346,-0.13806 -0.3456,-0.0197 -0.35951,-0.0175 -0.64761,0.1017 -0.16193,0.067 -0.30277,0.11344 -0.31297,0.10317 -0.0412,-0.0415 -0.006,-0.60366 0.0497,-0.79698 0.11488,-0.39767 0.46209,-0.94631 0.87311,-1.37962 0.0943,-0.0994 0.3593,-0.37737 0.58887,-0.61766 1.01844,-1.06598 1.35942,-1.64084 1.48043,-2.49583 0.0697,-0.4923 -0.0314,-0.81759 -0.31285,-1.00729 -0.20732,-0.13971 -0.61239,-0.0958 -0.81044,0.0879 -0.2539,0.23546 -0.24905,0.81903 0.009,1.09036 0.14495,0.15237 0.13784,0.16839 -0.13816,0.31115 -0.22508,0.11642 -0.51462,0.12984 -0.68882,0.0319 -0.2672,-0.15017 -0.39673,-0.4955 -0.34163,-0.91081 0.0686,-0.51691 0.49226,-0.92431 1.13986,-1.09604 0.27054,-0.0717 1.1032,-0.0828 1.37998,-0.0184 0.76622,0.17843 1.11699,0.68204 1.07098,1.53762 -0.0525,0.97541 -0.51776,1.63469 -1.98143,2.80748 -0.23314,0.18681 -0.55547,0.46484 -0.7163,0.61785 -0.28245,0.26873 -0.57573,0.60466 -0.55018,0.63021 0.007,0.007 0.15212,0.0275 0.32285,0.046 0.17074,0.0184 0.49822,0.0576 0.72773,0.087 0.94039,0.12051 1.25072,0.055 1.75624,-0.37047 l 0.24332,-0.20482 -0.002,0.34075 c -0.004,0.80987 -0.18087,1.20633 -0.59925,1.34587 -0.15981,0.0533 -0.83398,0.0714 -1.12028,0.03 z m 3.68403,-0.10768 c 0.01,-0.032 0.0576,-0.24588 0.10568,-0.4754 0.0481,-0.22951 0.11959,-0.56596 0.15886,-0.74766 0.0393,-0.1817 0.10961,-0.51262 0.15632,-0.73538 0.0467,-0.22276 0.0945,-0.4301 0.10631,-0.46077 0.0194,-0.0504 -0.0863,-0.0558 -1.11095,-0.0558 h -1.13235 l 0.0822,-0.21734 c 0.0452,-0.11954 0.22614,-0.52249 0.4021,-0.89545 0.49222,-1.04334 0.67244,-1.5075 0.78533,-2.0226 0.0593,-0.27078 0.0806,-0.99563 0.0335,-1.13855 -0.0273,-0.0828 -0.026,-0.0834 0.15691,-0.0617 0.10147,0.012 0.26772,0.0626 0.36945,0.11235 0.46466,0.22733 0.57943,0.73273 0.33521,1.47609 -0.12461,0.37929 -0.27553,0.64057 -0.9126,1.58 -0.15481,0.22827 -0.28147,0.43562 -0.28147,0.46077 0,0.0363 0.14688,0.0457 0.71223,0.0457 0.7104,0 0.71226,-2.1e-4 0.72917,-0.0782 0.009,-0.043 0.073,-0.34427 0.14158,-0.66942 0.0686,-0.32514 0.17001,-0.80243 0.22545,-1.06063 0.0554,-0.25821 0.15887,-0.74332 0.22983,-1.07802 0.071,-0.33471 0.13273,-0.6135 0.13727,-0.61954 0.006,-0.008 1.26962,-0.1794 1.32871,-0.18017 0.01,-1.4e-4 -0.007,0.0859 -0.0624,0.33024 -0.0175,0.0765 -0.0722,0.33471 -0.12155,0.57379 -0.0494,0.23908 -0.10389,0.49728 -0.12109,0.57379 -0.20935,0.93106 -0.45198,2.08002 -0.45198,2.14032 0,0.0617 0.0255,0.0679 0.2782,0.0679 0.15301,0 0.27787,0.004 0.27747,0.009 -4.1e-4,0.005 -0.0375,0.14953 -0.0825,0.32166 l -0.0817,0.31298 -0.28007,0.0101 -0.28008,0.0101 -0.0395,0.1812 c -0.0217,0.0997 -0.0772,0.36117 -0.12334,0.58112 -0.0461,0.21995 -0.14681,0.69724 -0.22375,1.06063 -0.0769,0.3634 -0.13997,0.67302 -0.14006,0.68804 -1e-4,0.015 -0.29815,0.0255 -0.66236,0.0233 -0.60169,-0.004 -0.66052,-0.009 -0.64398,-0.0621 z m 1.74294,-7.48641 c -0.0907,-0.10784 -0.0961,-0.13176 -0.0814,-0.3601 0.0349,-0.53911 0.31143,-0.84239 0.70136,-0.76924 0.13959,0.0262 0.21479,0.16472 0.17867,0.32915 -0.0301,0.13726 -0.25597,0.33838 -0.43364,0.38623 -0.11768,0.0317 -0.14107,0.0526 -0.14107,0.12587 0,0.21278 0.15991,0.30008 0.36843,0.20112 0.22825,-0.1083 0.3328,-0.33011 0.42024,-0.89155 l 0.0203,-0.13041 h 0.18559 c 0.15068,0 0.18183,0.01 0.16558,0.0522 -0.0252,0.0656 0.0195,0.0652 0.10708,-0.001 0.0989,-0.0748 0.29647,-0.0643 0.38678,0.0206 l 0.0762,0.0716 0.11727,-0.0715 c 0.15872,-0.0968 0.34594,-0.094 0.43638,0.007 0.11376,0.12638 0.11777,0.18287 0.039,0.54906 -0.0813,0.37773 -0.0675,0.44219 0.0864,0.40357 0.0775,-0.0194 0.086,-0.0424 0.10397,-0.27973 0.0352,-0.46573 0.23003,-0.74775 0.53666,-0.7769 0.13413,-0.0127 0.18554,-0.001 0.26244,0.0596 0.23873,0.18847 0.009,0.57685 -0.39992,0.67479 -0.0778,0.0187 -0.0956,0.0422 -0.0956,0.12659 0,0.15 0.11733,0.25581 0.25346,0.22859 0.0589,-0.0118 0.13285,-0.0447 0.1643,-0.0732 0.13878,-0.1256 0.14077,-0.0138 0.002,0.1248 -0.0898,0.0898 -0.12605,0.10165 -0.31031,0.10165 -0.16941,0 -0.22728,-0.0157 -0.30767,-0.0833 l -0.099,-0.0833 -0.0969,0.0833 c -0.12455,0.10714 -0.3406,0.11388 -0.44072,0.0138 -0.0817,-0.0817 -0.0854,-0.18493 -0.0167,-0.46947 0.0949,-0.39286 0.0512,-0.57526 -0.12234,-0.51106 -0.0614,0.0227 -0.0817,0.0624 -0.0934,0.1831 -0.008,0.0847 -0.0495,0.31058 -0.0917,0.50184 l -0.0768,0.34775 -0.17649,0.0103 -0.17649,0.0103 0.043,-0.20158 c 0.17357,-0.81323 0.16573,-0.74484 0.0937,-0.81689 -0.0516,-0.0516 -0.0844,-0.0588 -0.15162,-0.0332 -0.077,0.0293 -0.0957,0.0784 -0.18218,0.47966 -0.053,0.24587 -0.10432,0.47443 -0.11402,0.5079 -0.0137,0.0472 -0.0556,0.0609 -0.18699,0.0609 h -0.16935 l 0.0207,-0.1278 0.0207,-0.12781 -0.1463,0.11757 c -0.12384,0.0995 -0.17977,0.1197 -0.3645,0.13146 -0.21151,0.0135 -0.2212,0.0103 -0.31541,-0.10162 z m 0.42572,-0.53158 c 0.13851,-0.0716 0.21607,-0.17114 0.23781,-0.30514 0.0238,-0.14665 -0.0495,-0.22778 -0.1548,-0.1714 -0.0681,0.0364 -0.19279,0.26715 -0.23475,0.43436 -0.0263,0.10458 0.011,0.11494 0.15174,0.0422 z m 2.82231,-0.003 c 0.14347,-0.0742 0.24477,-0.2188 0.24477,-0.34942 0,-0.11772 -0.0612,-0.16988 -0.15649,-0.13332 -0.0508,0.0195 -0.26081,0.41871 -0.26081,0.49571 0,0.0524 0.054,0.0483 0.17253,-0.013 z"
           style="fill:#ffffff;fill-opacity:0.941176;stroke-width:0.0347749"
           inkscape:label="24eme"
           sodipodi:nodetypes="ccssscssssccscscccsssccsccscccscssscsscsccsssscsccsscccssscccccccscccccscsssscsccscscccccccssccscccscscccccsssssscccscccssccsscssscc" />
        <ellipse
           style="opacity:0.8;fill:#b23131;fill-opacity:1;stroke:none;stroke-width:2.51115;stroke-linecap:round;stroke-linejoin:round"
           id="path234-3-5"
           cx="96.07357"
           cy="131.64603"
           rx="15.290368"
           ry="13.740038" />
        <path
           inkscape:connector-curvature="0"
           id="path3054-6-0"
           d="m 92.74305,136.00178 c -0.0574,-0.008 -0.32096,-0.0681 -0.58573,-0.13301 -0.30222,-0.074 -0.61288,-0.12542 -0.8346,-0.13806 -0.3456,-0.0197 -0.35951,-0.0175 -0.64761,0.1017 -0.16193,0.067 -0.30277,0.11344 -0.31297,0.10317 -0.0412,-0.0415 -0.006,-0.60366 0.0497,-0.79698 0.11488,-0.39767 0.46209,-0.94631 0.87311,-1.37962 0.0943,-0.0994 0.3593,-0.37737 0.58887,-0.61766 1.01844,-1.06598 1.35942,-1.64084 1.48043,-2.49583 0.0697,-0.4923 -0.0314,-0.81759 -0.31285,-1.00729 -0.20732,-0.13971 -0.61239,-0.0958 -0.81044,0.0879 -0.2539,0.23546 -0.24905,0.81903 0.009,1.09036 0.14495,0.15237 0.13784,0.16839 -0.13816,0.31115 -0.22508,0.11642 -0.51462,0.12984 -0.68882,0.0319 -0.2672,-0.15017 -0.39673,-0.4955 -0.34163,-0.91081 0.0686,-0.51691 0.49226,-0.92431 1.13986,-1.09604 0.27054,-0.0717 1.1032,-0.0828 1.37998,-0.0184 0.76622,0.17843 1.11699,0.68204 1.07098,1.53762 -0.0525,0.97541 -0.51776,1.63469 -1.98143,2.80748 -0.23314,0.18681 -0.55547,0.46484 -0.7163,0.61785 -0.28245,0.26873 -0.57573,0.60466 -0.55018,0.63021 0.007,0.007 0.15212,0.0275 0.32285,0.046 0.17074,0.0184 0.49822,0.0576 0.72773,0.087 0.94039,0.12051 1.25072,0.055 1.75624,-0.37047 l 0.24332,-0.20482 -0.002,0.34075 c -0.004,0.80987 -0.18087,1.20633 -0.59925,1.34587 -0.15981,0.0533 -0.83398,0.0714 -1.12028,0.03 z m 3.68403,-0.10768 c 0.01,-0.032 0.0576,-0.24588 0.10568,-0.4754 0.0481,-0.22951 0.11959,-0.56596 0.15886,-0.74766 0.0393,-0.1817 0.10961,-0.51262 0.15632,-0.73538 0.0467,-0.22276 0.0945,-0.4301 0.10631,-0.46077 0.0194,-0.0504 -0.0863,-0.0558 -1.11095,-0.0558 h -1.13235 l 0.0822,-0.21734 c 0.0452,-0.11954 0.22614,-0.52249 0.4021,-0.89545 0.49222,-1.04334 0.67244,-1.5075 0.78533,-2.0226 0.0593,-0.27078 0.0806,-0.99563 0.0335,-1.13855 -0.0273,-0.0828 -0.026,-0.0834 0.15691,-0.0617 0.10147,0.012 0.26772,0.0626 0.36945,0.11235 0.46466,0.22733 0.57943,0.73273 0.33521,1.47609 -0.12461,0.37929 -0.27553,0.64057 -0.9126,1.58 -0.15481,0.22827 -0.28147,0.43562 -0.28147,0.46077 0,0.0363 0.14688,0.0457 0.71223,0.0457 0.7104,0 0.71226,-2.1e-4 0.72917,-0.0782 0.009,-0.043 0.073,-0.34427 0.14158,-0.66942 0.0686,-0.32514 0.17001,-0.80243 0.22545,-1.06063 0.0554,-0.25821 0.15887,-0.74332 0.22983,-1.07802 0.071,-0.33471 0.13273,-0.6135 0.13727,-0.61954 0.006,-0.008 1.26962,-0.1794 1.32871,-0.18017 0.01,-1.4e-4 -0.007,0.0859 -0.0624,0.33024 -0.0175,0.0765 -0.0722,0.33471 -0.12155,0.57379 -0.0494,0.23908 -0.10389,0.49728 -0.12109,0.57379 -0.20935,0.93106 -0.45198,2.08002 -0.45198,2.14032 0,0.0617 0.0255,0.0679 0.2782,0.0679 0.15301,0 0.27787,0.004 0.27747,0.009 -4.1e-4,0.005 -0.0375,0.14953 -0.0825,0.32166 l -0.0817,0.31298 -0.28007,0.0101 -0.28008,0.0101 -0.0395,0.1812 c -0.0217,0.0997 -0.0772,0.36117 -0.12334,0.58112 -0.0461,0.21995 -0.14681,0.69724 -0.22375,1.06063 -0.0769,0.3634 -0.13997,0.67302 -0.14006,0.68804 -1e-4,0.015 -0.29815,0.0255 -0.66236,0.0233 -0.60169,-0.004 -0.66052,-0.009 -0.64398,-0.0621 z m 1.74294,-7.48641 c -0.0907,-0.10784 -0.0961,-0.13176 -0.0814,-0.3601 0.0349,-0.53911 0.31143,-0.84239 0.70136,-0.76924 0.13959,0.0262 0.21479,0.16472 0.17867,0.32915 -0.0301,0.13726 -0.25597,0.33838 -0.43364,0.38623 -0.11768,0.0317 -0.14107,0.0526 -0.14107,0.12587 0,0.21278 0.15991,0.30008 0.36843,0.20112 0.22825,-0.1083 0.3328,-0.33011 0.42024,-0.89155 l 0.0203,-0.13041 h 0.18559 c 0.15068,0 0.18183,0.01 0.16558,0.0522 -0.0252,0.0656 0.0195,0.0652 0.10708,-0.001 0.0989,-0.0748 0.29647,-0.0643 0.38678,0.0206 l 0.0762,0.0716 0.11727,-0.0715 c 0.15872,-0.0968 0.34594,-0.094 0.43638,0.007 0.11376,0.12638 0.11777,0.18287 0.039,0.54906 -0.0813,0.37773 -0.0675,0.44219 0.0864,0.40357 0.0775,-0.0194 0.086,-0.0424 0.10397,-0.27973 0.0352,-0.46573 0.23003,-0.74775 0.53666,-0.7769 0.13413,-0.0127 0.18554,-0.001 0.26244,0.0596 0.23873,0.18847 0.009,0.57685 -0.39992,0.67479 -0.0778,0.0187 -0.0956,0.0422 -0.0956,0.12659 0,0.15 0.11733,0.25581 0.25346,0.22859 0.0589,-0.0118 0.13285,-0.0447 0.1643,-0.0732 0.13878,-0.1256 0.14077,-0.0138 0.002,0.1248 -0.0898,0.0898 -0.12605,0.10165 -0.31031,0.10165 -0.16941,0 -0.22728,-0.0157 -0.30767,-0.0833 l -0.099,-0.0833 -0.0969,0.0833 c -0.12455,0.10714 -0.3406,0.11388 -0.44072,0.0138 -0.0817,-0.0817 -0.0854,-0.18493 -0.0167,-0.46947 0.0949,-0.39286 0.0512,-0.57526 -0.12234,-0.51106 -0.0614,0.0227 -0.0817,0.0624 -0.0934,0.1831 -0.008,0.0847 -0.0495,0.31058 -0.0917,0.50184 l -0.0768,0.34775 -0.17649,0.0103 -0.17649,0.0103 0.043,-0.20158 c 0.17357,-0.81323 0.16573,-0.74484 0.0937,-0.81689 -0.0516,-0.0516 -0.0844,-0.0588 -0.15162,-0.0332 -0.077,0.0293 -0.0957,0.0784 -0.18218,0.47966 -0.053,0.24587 -0.10432,0.47443 -0.11402,0.5079 -0.0137,0.0472 -0.0556,0.0609 -0.18699,0.0609 h -0.16935 l 0.0207,-0.1278 0.0207,-0.12781 -0.1463,0.11757 c -0.12384,0.0995 -0.17977,0.1197 -0.3645,0.13146 -0.21151,0.0135 -0.2212,0.0103 -0.31541,-0.10162 z m 0.42572,-0.53158 c 0.13851,-0.0716 0.21607,-0.17114 0.23781,-0.30514 0.0238,-0.14665 -0.0495,-0.22778 -0.1548,-0.1714 -0.0681,0.0364 -0.19279,0.26715 -0.23475,0.43436 -0.0263,0.10458 0.011,0.11494 0.15174,0.0422 z m 2.82231,-0.003 c 0.14347,-0.0742 0.24477,-0.2188 0.24477,-0.34942 0,-0.11772 -0.0612,-0.16988 -0.15649,-0.13332 -0.0508,0.0195 -0.26081,0.41871 -0.26081,0.49571 0,0.0524 0.054,0.0483 0.17253,-0.013 z"
           style="fill:#ffffff;fill-opacity:0.941176;stroke-width:0.0347749"
           inkscape:label="24eme"
           sodipodi:nodetypes="ccssscssssccscscccsssccsccscccscssscsscsccsssscsccsscccssscccccccscccccscsssscsccscscccccccssccscccscscccccsssssscccscccssccsscssscc" />
        <ellipse
           style="opacity:0.8;fill:#c03535;fill-opacity:1;stroke:none;stroke-width:2.51115;stroke-linecap:round;stroke-linejoin:round"
           id="path234-3-3"
           cx="121.42287"
           cy="130.85695"
           rx="15.290368"
           ry="13.740038" />
        <path
           inkscape:connector-curvature="0"
           id="path3054-6-27"
           d="m 118.09235,135.2127 c -0.0574,-0.008 -0.32096,-0.0681 -0.58573,-0.13301 -0.30222,-0.074 -0.61288,-0.12542 -0.8346,-0.13806 -0.3456,-0.0197 -0.35951,-0.0175 -0.64761,0.1017 -0.16193,0.067 -0.30277,0.11344 -0.31297,0.10317 -0.0412,-0.0415 -0.006,-0.60366 0.0497,-0.79698 0.11488,-0.39767 0.46209,-0.94631 0.87311,-1.37962 0.0943,-0.0994 0.3593,-0.37737 0.58887,-0.61766 1.01844,-1.06598 1.35942,-1.64084 1.48043,-2.49583 0.0697,-0.4923 -0.0314,-0.81759 -0.31285,-1.00729 -0.20732,-0.13971 -0.61239,-0.0958 -0.81044,0.0879 -0.2539,0.23546 -0.24905,0.81903 0.009,1.09036 0.14495,0.15237 0.13784,0.16839 -0.13816,0.31115 -0.22508,0.11642 -0.51462,0.12984 -0.68882,0.0319 -0.2672,-0.15017 -0.39673,-0.4955 -0.34163,-0.91081 0.0686,-0.51691 0.49226,-0.92431 1.13986,-1.09604 0.27054,-0.0717 1.1032,-0.0828 1.37998,-0.0184 0.76622,0.17843 1.11699,0.68204 1.07098,1.53762 -0.0525,0.97541 -0.51776,1.63469 -1.98143,2.80748 -0.23314,0.18681 -0.55547,0.46484 -0.7163,0.61785 -0.28245,0.26873 -0.57573,0.60466 -0.55018,0.63021 0.007,0.007 0.15212,0.0275 0.32285,0.046 0.17074,0.0184 0.49822,0.0576 0.72773,0.087 0.94039,0.12051 1.25072,0.055 1.75624,-0.37047 l 0.24332,-0.20482 -0.002,0.34075 c -0.004,0.80987 -0.18087,1.20633 -0.59925,1.34587 -0.15981,0.0533 -0.83398,0.0714 -1.12028,0.03 z m 3.68403,-0.10768 c 0.01,-0.032 0.0576,-0.24588 0.10568,-0.4754 0.0481,-0.22951 0.11959,-0.56596 0.15886,-0.74766 0.0393,-0.1817 0.10961,-0.51262 0.15632,-0.73538 0.0467,-0.22276 0.0945,-0.4301 0.10631,-0.46077 0.0194,-0.0504 -0.0863,-0.0558 -1.11095,-0.0558 h -1.13235 l 0.0822,-0.21734 c 0.0452,-0.11954 0.22614,-0.52249 0.4021,-0.89545 0.49222,-1.04334 0.67244,-1.5075 0.78533,-2.0226 0.0593,-0.27078 0.0806,-0.99563 0.0335,-1.13855 -0.0273,-0.0828 -0.026,-0.0834 0.15691,-0.0617 0.10147,0.012 0.26772,0.0626 0.36945,0.11235 0.46466,0.22733 0.57943,0.73273 0.33521,1.47609 -0.12461,0.37929 -0.27553,0.64057 -0.9126,1.58 -0.15481,0.22827 -0.28147,0.43562 -0.28147,0.46077 0,0.0363 0.14688,0.0457 0.71223,0.0457 0.7104,0 0.71226,-2.1e-4 0.72917,-0.0782 0.009,-0.043 0.073,-0.34427 0.14158,-0.66942 0.0686,-0.32514 0.17001,-0.80243 0.22545,-1.06063 0.0554,-0.25821 0.15887,-0.74332 0.22983,-1.07802 0.071,-0.33471 0.13273,-0.6135 0.13727,-0.61954 0.006,-0.008 1.26962,-0.1794 1.32871,-0.18017 0.01,-1.4e-4 -0.007,0.0859 -0.0624,0.33024 -0.0175,0.0765 -0.0722,0.33471 -0.12155,0.57379 -0.0494,0.23908 -0.10389,0.49728 -0.12109,0.57379 -0.20935,0.93106 -0.45198,2.08002 -0.45198,2.14032 0,0.0617 0.0255,0.0679 0.2782,0.0679 0.15301,0 0.27787,0.004 0.27747,0.009 -4.1e-4,0.005 -0.0375,0.14953 -0.0825,0.32166 l -0.0817,0.31298 -0.28007,0.0101 -0.28008,0.0101 -0.0395,0.1812 c -0.0217,0.0997 -0.0772,0.36117 -0.12334,0.58112 -0.0461,0.21995 -0.14681,0.69724 -0.22375,1.06063 -0.0769,0.3634 -0.13997,0.67302 -0.14006,0.68804 -1e-4,0.015 -0.29815,0.0255 -0.66236,0.0233 -0.60169,-0.004 -0.66052,-0.009 -0.64398,-0.0621 z m 1.74294,-7.48641 c -0.0907,-0.10784 -0.0961,-0.13176 -0.0814,-0.3601 0.0349,-0.53911 0.31143,-0.84239 0.70136,-0.76924 0.13959,0.0262 0.21479,0.16472 0.17867,0.32915 -0.0301,0.13726 -0.25597,0.33838 -0.43364,0.38623 -0.11768,0.0317 -0.14107,0.0526 -0.14107,0.12587 0,0.21278 0.15991,0.30008 0.36843,0.20112 0.22825,-0.1083 0.3328,-0.33011 0.42024,-0.89155 l 0.0203,-0.13041 h 0.18559 c 0.15068,0 0.18183,0.01 0.16558,0.0522 -0.0252,0.0656 0.0195,0.0652 0.10708,-0.001 0.0989,-0.0748 0.29647,-0.0643 0.38678,0.0206 l 0.0762,0.0716 0.11727,-0.0715 c 0.15872,-0.0968 0.34594,-0.094 0.43638,0.007 0.11376,0.12638 0.11777,0.18287 0.039,0.54906 -0.0813,0.37773 -0.0675,0.44219 0.0864,0.40357 0.0775,-0.0194 0.086,-0.0424 0.10397,-0.27973 0.0352,-0.46573 0.23003,-0.74775 0.53666,-0.7769 0.13413,-0.0127 0.18554,-10e-4 0.26244,0.0596 0.23873,0.18847 0.009,0.57685 -0.39992,0.67479 -0.0778,0.0187 -0.0956,0.0422 -0.0956,0.12659 0,0.15 0.11733,0.25581 0.25346,0.22859 0.0589,-0.0118 0.13285,-0.0447 0.1643,-0.0732 0.13878,-0.1256 0.14077,-0.0138 0.002,0.1248 -0.0898,0.0898 -0.12605,0.10165 -0.31031,0.10165 -0.16941,0 -0.22728,-0.0157 -0.30767,-0.0833 l -0.099,-0.0833 -0.0969,0.0833 c -0.12455,0.10714 -0.3406,0.11388 -0.44072,0.0138 -0.0817,-0.0817 -0.0854,-0.18493 -0.0167,-0.46947 0.0949,-0.39286 0.0512,-0.57526 -0.12234,-0.51106 -0.0614,0.0227 -0.0817,0.0624 -0.0934,0.1831 -0.008,0.0847 -0.0495,0.31058 -0.0917,0.50184 l -0.0768,0.34775 -0.17649,0.0103 -0.17649,0.0103 0.043,-0.20158 c 0.17357,-0.81323 0.16573,-0.74484 0.0937,-0.81689 -0.0516,-0.0516 -0.0844,-0.0588 -0.15162,-0.0332 -0.077,0.0293 -0.0957,0.0784 -0.18218,0.47966 -0.053,0.24587 -0.10432,0.47443 -0.11402,0.5079 -0.0137,0.0472 -0.0556,0.0609 -0.18699,0.0609 h -0.16935 l 0.0207,-0.1278 0.0207,-0.12781 -0.1463,0.11757 c -0.12384,0.0995 -0.17977,0.1197 -0.3645,0.13146 -0.21151,0.0135 -0.2212,0.0103 -0.31541,-0.10162 z m 0.42572,-0.53158 c 0.13851,-0.0716 0.21607,-0.17114 0.23781,-0.30514 0.0238,-0.14665 -0.0495,-0.22778 -0.1548,-0.1714 -0.0681,0.0364 -0.19279,0.26715 -0.23475,0.43436 -0.0263,0.10458 0.011,0.11494 0.15174,0.0422 z m 2.82231,-0.003 c 0.14347,-0.0742 0.24477,-0.2188 0.24477,-0.34942 0,-0.11772 -0.0612,-0.16988 -0.15649,-0.13332 -0.0508,0.0195 -0.26081,0.41871 -0.26081,0.49571 0,0.0524 0.054,0.0483 0.17253,-0.013 z"
           style="fill:#ffffff;fill-opacity:0.941176;stroke-width:0.0347749"
           inkscape:label="24eme"
           sodipodi:nodetypes="ccssscssssccscscccsssccsccscccscssscsscsccsssscsccsscccssscccccccscccccscsssscsccscscccccccssccscccscscccccsssssscccscccssccsscssscc" />
        <ellipse
           style="opacity:0.8;fill:#aa2f2f;fill-opacity:1;stroke:none;stroke-width:2.51115;stroke-linecap:round;stroke-linejoin:round"
           id="path234-3-2"
           cx="72.646553"
           cy="93.153671"
           rx="15.290368"
           ry="13.740038" />
        <path
           inkscape:connector-curvature="0"
           id="path3054-6-1"
           d="m 69.316033,97.50942 c -0.0574,-0.008 -0.32096,-0.0681 -0.58573,-0.13301 -0.30222,-0.074 -0.61288,-0.12542 -0.8346,-0.13806 -0.3456,-0.0197 -0.35951,-0.0175 -0.64761,0.1017 -0.16193,0.067 -0.30277,0.11344 -0.31297,0.10317 -0.0412,-0.0415 -0.006,-0.60366 0.0497,-0.79698 0.11488,-0.39767 0.46209,-0.94631 0.87311,-1.37962 0.0943,-0.0994 0.3593,-0.37737 0.58887,-0.61766 1.01844,-1.06598 1.35942,-1.64084 1.48043,-2.49583 0.0697,-0.4923 -0.0314,-0.81759 -0.31285,-1.00729 -0.20732,-0.13971 -0.61239,-0.0958 -0.81044,0.0879 -0.2539,0.23546 -0.24905,0.81903 0.009,1.09036 0.14495,0.15237 0.13784,0.16839 -0.13816,0.31115 -0.22508,0.11642 -0.51462,0.12984 -0.68882,0.0319 -0.2672,-0.15017 -0.39673,-0.4955 -0.34163,-0.91081 0.0686,-0.51691 0.49226,-0.92431 1.13986,-1.09604 0.27054,-0.0717 1.1032,-0.0828 1.37998,-0.0184 0.76622,0.17843 1.11699,0.68204 1.07098,1.53762 -0.0525,0.97541 -0.51776,1.63469 -1.98143,2.80748 -0.23314,0.18681 -0.55547,0.46484 -0.7163,0.61785 -0.28245,0.26873 -0.57573,0.60466 -0.55018,0.63021 0.007,0.007 0.15212,0.0275 0.32285,0.046 0.17074,0.0184 0.49822,0.0576 0.72773,0.087 0.94039,0.12051 1.25072,0.055 1.75624,-0.37047 l 0.24332,-0.20482 -0.002,0.34075 c -0.004,0.80987 -0.18087,1.20633 -0.59925,1.34587 -0.15981,0.0533 -0.83398,0.0714 -1.12028,0.03 z m 3.68403,-0.10768 c 0.01,-0.032 0.0576,-0.24588 0.10568,-0.4754 0.0481,-0.22951 0.11959,-0.56596 0.15886,-0.74766 0.0393,-0.1817 0.10961,-0.51262 0.15632,-0.73538 0.0467,-0.22276 0.0945,-0.4301 0.10631,-0.46077 0.0194,-0.0504 -0.0863,-0.0558 -1.11095,-0.0558 h -1.13235 l 0.0822,-0.21734 c 0.0452,-0.11954 0.22614,-0.52249 0.4021,-0.89545 0.49222,-1.04334 0.67244,-1.5075 0.78533,-2.0226 0.0593,-0.27078 0.0806,-0.99563 0.0335,-1.13855 -0.0273,-0.0828 -0.026,-0.0834 0.15691,-0.0617 0.10147,0.012 0.26772,0.0626 0.36945,0.11235 0.46466,0.22733 0.57943,0.73273 0.33521,1.47609 -0.12461,0.37929 -0.27553,0.64057 -0.9126,1.58 -0.15481,0.22827 -0.28147,0.43562 -0.28147,0.46077 0,0.0363 0.14688,0.0457 0.71223,0.0457 0.7104,0 0.71226,-2.1e-4 0.72917,-0.0782 0.009,-0.043 0.073,-0.34427 0.14158,-0.66942 0.0686,-0.32514 0.17001,-0.80243 0.22545,-1.06063 0.0554,-0.25821 0.15887,-0.74332 0.22983,-1.07802 0.071,-0.33471 0.13273,-0.6135 0.13727,-0.61954 0.006,-0.008 1.26962,-0.1794 1.32871,-0.18017 0.01,-1.4e-4 -0.007,0.0859 -0.0624,0.33024 -0.0175,0.0765 -0.0722,0.33471 -0.12155,0.57379 -0.0494,0.23908 -0.10389,0.49728 -0.12109,0.57379 -0.20935,0.93106 -0.45198,2.08002 -0.45198,2.14032 0,0.0617 0.0255,0.0679 0.2782,0.0679 0.15301,0 0.27787,0.004 0.27747,0.009 -4.1e-4,0.005 -0.0375,0.14953 -0.0825,0.32166 l -0.0817,0.31298 -0.28007,0.0101 -0.28008,0.0101 -0.0395,0.1812 c -0.0217,0.0997 -0.0772,0.36117 -0.12334,0.58112 -0.0461,0.21995 -0.14681,0.69724 -0.22375,1.06063 -0.0769,0.3634 -0.13997,0.67302 -0.14006,0.68804 -1e-4,0.015 -0.29815,0.0255 -0.66236,0.0233 -0.60169,-0.004 -0.66052,-0.009 -0.64398,-0.0621 z m 1.74294,-7.48641 c -0.0907,-0.10784 -0.0961,-0.13176 -0.0814,-0.3601 0.0349,-0.53911 0.31143,-0.84239 0.70136,-0.76924 0.13959,0.0262 0.21479,0.16472 0.17867,0.32915 -0.0301,0.13726 -0.25597,0.33838 -0.43364,0.38623 -0.11768,0.0317 -0.14107,0.0526 -0.14107,0.12587 0,0.21278 0.15991,0.30008 0.36843,0.20112 0.22825,-0.1083 0.3328,-0.33011 0.42024,-0.89155 l 0.0203,-0.13041 h 0.18559 c 0.15068,0 0.18183,0.01 0.16558,0.0522 -0.0252,0.0656 0.0195,0.0652 0.10708,-10e-4 0.0989,-0.0748 0.29647,-0.0643 0.38678,0.0206 l 0.0762,0.0716 0.11727,-0.0715 c 0.15872,-0.0968 0.34594,-0.094 0.43638,0.007 0.11376,0.12638 0.11777,0.18287 0.039,0.54906 -0.0813,0.37773 -0.0675,0.44219 0.0864,0.40357 0.0775,-0.0194 0.086,-0.0424 0.10397,-0.27973 0.0352,-0.46573 0.23003,-0.74775 0.53666,-0.7769 0.13413,-0.0127 0.18554,-0.001 0.26244,0.0596 0.23873,0.18847 0.009,0.57685 -0.39992,0.67479 -0.0778,0.0187 -0.0956,0.0422 -0.0956,0.12659 0,0.15 0.11733,0.25581 0.25346,0.22859 0.0589,-0.0118 0.13285,-0.0447 0.1643,-0.0732 0.13878,-0.1256 0.14077,-0.0138 0.002,0.1248 -0.0898,0.0898 -0.12605,0.10165 -0.31031,0.10165 -0.16941,0 -0.22728,-0.0157 -0.30767,-0.0833 l -0.099,-0.0833 -0.0969,0.0833 c -0.12455,0.10714 -0.3406,0.11388 -0.44072,0.0138 -0.0817,-0.0817 -0.0854,-0.18493 -0.0167,-0.46947 0.0949,-0.39286 0.0512,-0.57526 -0.12234,-0.51106 -0.0614,0.0227 -0.0817,0.0624 -0.0934,0.1831 -0.008,0.0847 -0.0495,0.31058 -0.0917,0.50184 l -0.0768,0.34775 -0.17649,0.0103 -0.17649,0.0103 0.043,-0.20158 c 0.17357,-0.81323 0.16573,-0.74484 0.0937,-0.81689 -0.0516,-0.0516 -0.0844,-0.0588 -0.15162,-0.0332 -0.077,0.0293 -0.0957,0.0784 -0.18218,0.47966 -0.053,0.24587 -0.10432,0.47443 -0.11402,0.5079 -0.0137,0.0472 -0.0556,0.0609 -0.18699,0.0609 h -0.16935 l 0.0207,-0.1278 0.0207,-0.12781 -0.1463,0.11757 c -0.12384,0.0995 -0.17977,0.1197 -0.3645,0.13146 -0.21151,0.0135 -0.2212,0.0103 -0.31541,-0.10162 z m 0.42572,-0.53158 c 0.13851,-0.0716 0.21607,-0.17114 0.23781,-0.30514 0.0238,-0.14665 -0.0495,-0.22778 -0.1548,-0.1714 -0.0681,0.0364 -0.19279,0.26715 -0.23475,0.43436 -0.0263,0.10458 0.011,0.11494 0.15174,0.0422 z m 2.82231,-0.003 c 0.14347,-0.0742 0.24477,-0.2188 0.24477,-0.34942 0,-0.11772 -0.0612,-0.16988 -0.15649,-0.13332 -0.0508,0.0195 -0.26081,0.41871 -0.26081,0.49571 0,0.0524 0.054,0.0483 0.17253,-0.013 z"
           style="fill:#ffffff;fill-opacity:0.941176;stroke-width:0.0347749"
           inkscape:label="24eme"
           sodipodi:nodetypes="ccssscssssccscscccsssccsccscccscssscsscsccsssscsccsscccssscccccccscccccscsssscsccscscccccccssccscccscscccccsssssscccscccssccsscssscc" />
        <ellipse
           style="opacity:0.8;fill:#b83333;fill-opacity:1;stroke:none;stroke-width:2.51115;stroke-linecap:round;stroke-linejoin:round"
           id="path234-3-9"
           cx="97.371887"
           cy="92.788681"
           rx="15.290368"
           ry="13.740038" />
        <path
           inkscape:connector-curvature="0"
           id="path3054-6-9"
           d="m 94.041366,97.14443 c -0.0574,-0.008 -0.32096,-0.0681 -0.58573,-0.13301 -0.30222,-0.074 -0.61288,-0.12542 -0.8346,-0.13806 -0.3456,-0.0197 -0.35951,-0.0175 -0.64761,0.1017 -0.16193,0.067 -0.30277,0.11344 -0.31297,0.10317 -0.0412,-0.0415 -0.006,-0.60366 0.0497,-0.79698 0.11488,-0.39767 0.46209,-0.94631 0.87311,-1.37962 0.0943,-0.0994 0.3593,-0.37737 0.58887,-0.61766 1.01844,-1.06598 1.35942,-1.64084 1.48043,-2.49583 0.0697,-0.4923 -0.0314,-0.81759 -0.31285,-1.00729 -0.20732,-0.13971 -0.61239,-0.0958 -0.81044,0.0879 -0.2539,0.23546 -0.24905,0.81903 0.009,1.09036 0.14495,0.15237 0.13784,0.16839 -0.13816,0.31115 -0.22508,0.11642 -0.51462,0.12984 -0.68882,0.0319 -0.2672,-0.15017 -0.39673,-0.4955 -0.34163,-0.91081 0.0686,-0.51691 0.49226,-0.92431 1.13986,-1.09604 0.27054,-0.0717 1.1032,-0.0828 1.37998,-0.0184 0.76622,0.17843 1.11699,0.68204 1.07098,1.53762 -0.0525,0.97541 -0.51776,1.63469 -1.98143,2.80748 -0.23314,0.18681 -0.55547,0.46484 -0.7163,0.61785 -0.28245,0.26873 -0.57573,0.60466 -0.55018,0.63021 0.007,0.007 0.15212,0.0275 0.32285,0.046 0.17074,0.0184 0.49822,0.0576 0.72773,0.087 0.94039,0.12051 1.25072,0.055 1.75624,-0.37047 l 0.24332,-0.20482 -0.002,0.34075 c -0.004,0.80987 -0.18087,1.20633 -0.59925,1.34587 -0.15981,0.0533 -0.83398,0.0714 -1.12028,0.03 z m 3.68403,-0.10768 c 0.01,-0.032 0.0576,-0.24588 0.10568,-0.4754 0.0481,-0.22951 0.11959,-0.56596 0.15886,-0.74766 0.0393,-0.1817 0.10961,-0.51262 0.15632,-0.73538 0.0467,-0.22276 0.0945,-0.4301 0.10631,-0.46077 0.0194,-0.0504 -0.0863,-0.0558 -1.11095,-0.0558 h -1.13235 l 0.0822,-0.21734 c 0.0452,-0.11954 0.22614,-0.52249 0.4021,-0.89545 0.49222,-1.04334 0.67244,-1.5075 0.78533,-2.0226 0.0593,-0.27078 0.0806,-0.99563 0.0335,-1.13855 -0.0273,-0.0828 -0.026,-0.0834 0.15691,-0.0617 0.10147,0.012 0.26772,0.0626 0.36945,0.11235 0.46466,0.22733 0.57943,0.73273 0.33521,1.47609 -0.12461,0.37929 -0.27553,0.64057 -0.9126,1.58 -0.15481,0.22827 -0.28147,0.43562 -0.28147,0.46077 0,0.0363 0.14688,0.0457 0.71223,0.0457 0.7104,0 0.71226,-2.1e-4 0.72917,-0.0782 0.009,-0.043 0.073,-0.34427 0.14158,-0.66942 0.0686,-0.32514 0.17001,-0.80243 0.22545,-1.06063 0.0554,-0.25821 0.15887,-0.74332 0.22983,-1.07802 0.071,-0.33471 0.13273,-0.6135 0.13727,-0.61954 0.006,-0.008 1.269624,-0.1794 1.328714,-0.18017 0.01,-1.4e-4 -0.007,0.0859 -0.0624,0.33024 -0.0175,0.0765 -0.0722,0.33471 -0.12155,0.57379 -0.0494,0.23908 -0.10389,0.49728 -0.12109,0.57379 -0.209354,0.93106 -0.451984,2.08002 -0.451984,2.14032 0,0.0617 0.0255,0.0679 0.278204,0.0679 0.15301,0 0.27787,0.004 0.27747,0.009 -4.1e-4,0.005 -0.0375,0.14953 -0.0825,0.32166 l -0.0817,0.31298 -0.280074,0.0101 -0.28008,0.0101 -0.0395,0.1812 c -0.0217,0.0997 -0.0772,0.36117 -0.12334,0.58112 -0.0461,0.21995 -0.14681,0.69724 -0.22375,1.06063 -0.0769,0.3634 -0.13997,0.67302 -0.14006,0.68804 -1e-4,0.015 -0.29815,0.0255 -0.66236,0.0233 -0.60169,-0.004 -0.66052,-0.009 -0.64398,-0.0621 z m 1.74294,-7.48641 c -0.0907,-0.10784 -0.0961,-0.13176 -0.0814,-0.3601 0.0349,-0.53911 0.31143,-0.84239 0.701364,-0.76924 0.13959,0.0262 0.21479,0.16472 0.17867,0.32915 -0.0301,0.13726 -0.25597,0.33838 -0.433644,0.38623 -0.11768,0.0317 -0.14107,0.0526 -0.14107,0.12587 0,0.21278 0.15991,0.30008 0.368434,0.20112 0.22825,-0.1083 0.3328,-0.33011 0.42024,-0.89155 l 0.0203,-0.13041 h 0.18559 c 0.15068,0 0.18183,0.01 0.16558,0.0522 -0.0252,0.0656 0.0195,0.0652 0.10708,-0.001 0.0989,-0.0748 0.29647,-0.0643 0.38678,0.0206 l 0.0762,0.0716 0.11727,-0.0715 c 0.15872,-0.0968 0.34594,-0.094 0.43638,0.007 0.11376,0.12638 0.11777,0.18287 0.039,0.54906 -0.0813,0.37773 -0.0675,0.44219 0.0864,0.40357 0.0775,-0.0194 0.086,-0.0424 0.10397,-0.27973 0.0352,-0.46573 0.23003,-0.74775 0.53666,-0.7769 0.13413,-0.0127 0.18554,-10e-4 0.26244,0.0596 0.23873,0.18847 0.009,0.57685 -0.39992,0.67479 -0.0778,0.0187 -0.0956,0.0422 -0.0956,0.12659 0,0.15 0.11733,0.25581 0.25346,0.22859 0.0589,-0.0118 0.13285,-0.0447 0.1643,-0.0732 0.13878,-0.1256 0.14077,-0.0138 0.002,0.1248 -0.0898,0.0898 -0.12605,0.10165 -0.31031,0.10165 -0.16941,0 -0.22728,-0.0157 -0.30767,-0.0833 l -0.099,-0.0833 -0.0969,0.0833 c -0.12455,0.10714 -0.3406,0.11388 -0.44072,0.0138 -0.0817,-0.0817 -0.0854,-0.18493 -0.0167,-0.46947 0.0949,-0.39286 0.0512,-0.57526 -0.12234,-0.51106 -0.0614,0.0227 -0.0817,0.0624 -0.0934,0.1831 -0.008,0.0847 -0.0495,0.31058 -0.0917,0.50184 l -0.0768,0.34775 -0.17649,0.0103 -0.17649,0.0103 0.043,-0.20158 c 0.17357,-0.81323 0.16573,-0.74484 0.0937,-0.81689 -0.0516,-0.0516 -0.0844,-0.0588 -0.15162,-0.0332 -0.077,0.0293 -0.0957,0.0784 -0.18218,0.47966 -0.053,0.24587 -0.10432,0.47443 -0.11402,0.5079 -0.0137,0.0472 -0.0556,0.0609 -0.18699,0.0609 h -0.16935 l 0.0207,-0.1278 0.0207,-0.12781 -0.1463,0.11757 c -0.12384,0.0995 -0.179774,0.1197 -0.364504,0.13146 -0.21151,0.0135 -0.2212,0.0103 -0.31541,-0.10162 z m 0.42572,-0.53158 c 0.138514,-0.0716 0.216074,-0.17114 0.237814,-0.30514 0.0238,-0.14665 -0.0495,-0.22778 -0.154804,-0.1714 -0.0681,0.0364 -0.19279,0.26715 -0.23475,0.43436 -0.0263,0.10458 0.011,0.11494 0.15174,0.0422 z m 2.822314,-0.003 c 0.14347,-0.0742 0.24477,-0.2188 0.24477,-0.34942 0,-0.11772 -0.0612,-0.16988 -0.15649,-0.13332 -0.0508,0.0195 -0.26081,0.41871 -0.26081,0.49571 0,0.0524 0.054,0.0483 0.17253,-0.013 z"
           style="fill:#ffffff;fill-opacity:0.941176;stroke-width:0.0347749"
           inkscape:label="24eme"
           sodipodi:nodetypes="ccssscssssccscscccsssccsccscccscssscsscsccsssscsccsscccssscccccccscccccscsssscsccscscccccccssccscccscscccccsssssscccscccssccsscssscc" />
        <ellipse
           style="opacity:0.8;fill:#ad3030;fill-opacity:1;stroke:none;stroke-width:2.51115;stroke-linecap:round;stroke-linejoin:round"
           id="path234-3-1"
           cx="120.97968"
           cy="91.985695"
           rx="15.290368"
           ry="13.740038" />
        <path
           inkscape:connector-curvature="0"
           id="path3054-6-2"
           d="m 117.64916,96.341444 c -0.0574,-0.008 -0.32096,-0.0681 -0.58573,-0.13301 -0.30222,-0.074 -0.61288,-0.12542 -0.8346,-0.13806 -0.3456,-0.0197 -0.35951,-0.0175 -0.64761,0.1017 -0.16193,0.067 -0.30277,0.11344 -0.31297,0.10317 -0.0412,-0.0415 -0.006,-0.60366 0.0497,-0.79698 0.11488,-0.39767 0.46209,-0.94631 0.87311,-1.37962 0.0943,-0.0994 0.3593,-0.37737 0.58887,-0.61766 1.01844,-1.06598 1.35942,-1.64084 1.48043,-2.49583 0.0697,-0.4923 -0.0314,-0.81759 -0.31285,-1.00729 -0.20732,-0.13971 -0.61239,-0.0958 -0.81044,0.0879 -0.2539,0.23546 -0.24905,0.81903 0.009,1.09036 0.14495,0.15237 0.13784,0.16839 -0.13816,0.31115 -0.22508,0.11642 -0.51462,0.12984 -0.68882,0.0319 -0.2672,-0.15017 -0.39673,-0.4955 -0.34163,-0.91081 0.0686,-0.51691 0.49226,-0.92431 1.13986,-1.09604 0.27054,-0.0717 1.1032,-0.0828 1.37998,-0.0184 0.76622,0.17843 1.11699,0.68204 1.07098,1.53762 -0.0525,0.97541 -0.51776,1.63469 -1.98143,2.80748 -0.23314,0.18681 -0.55547,0.46484 -0.7163,0.61785 -0.28245,0.26873 -0.57573,0.60466 -0.55018,0.63021 0.007,0.007 0.15212,0.0275 0.32285,0.046 0.17074,0.0184 0.49822,0.0576 0.72773,0.087 0.94039,0.12051 1.25072,0.055 1.75624,-0.37047 l 0.24332,-0.20482 -0.002,0.34075 c -0.004,0.80987 -0.18087,1.20633 -0.59925,1.34587 -0.15981,0.0533 -0.83398,0.0714 -1.12028,0.03 z m 3.68403,-0.10768 c 0.01,-0.032 0.0576,-0.24588 0.10568,-0.4754 0.0481,-0.22951 0.11959,-0.56596 0.15886,-0.74766 0.0393,-0.1817 0.10961,-0.51262 0.15632,-0.73538 0.0467,-0.22276 0.0945,-0.4301 0.10631,-0.46077 0.0194,-0.0504 -0.0863,-0.0558 -1.11095,-0.0558 h -1.13235 l 0.0822,-0.21734 c 0.0452,-0.11954 0.22614,-0.52249 0.4021,-0.89545 0.49222,-1.04334 0.67244,-1.5075 0.78533,-2.0226 0.0593,-0.27078 0.0806,-0.99563 0.0335,-1.13855 -0.0273,-0.0828 -0.026,-0.0834 0.15691,-0.0617 0.10147,0.012 0.26772,0.0626 0.36945,0.11235 0.46466,0.22733 0.57943,0.73273 0.33521,1.47609 -0.12461,0.37929 -0.27553,0.64057 -0.9126,1.58 -0.15481,0.22827 -0.28147,0.43562 -0.28147,0.46077 0,0.0363 0.14688,0.0457 0.71223,0.0457 0.7104,0 0.71226,-2.1e-4 0.72917,-0.0782 0.009,-0.043 0.073,-0.34427 0.14158,-0.66942 0.0686,-0.32514 0.17001,-0.80243 0.22545,-1.06063 0.0554,-0.25821 0.15887,-0.74332 0.22983,-1.07802 0.071,-0.33471 0.13273,-0.6135 0.13727,-0.61954 0.006,-0.008 1.26962,-0.1794 1.32871,-0.18017 0.01,-1.4e-4 -0.007,0.0859 -0.0624,0.33024 -0.0175,0.0765 -0.0722,0.33471 -0.12155,0.57379 -0.0494,0.23908 -0.10389,0.49728 -0.12109,0.57379 -0.20935,0.93106 -0.45198,2.08002 -0.45198,2.14032 0,0.0617 0.0255,0.0679 0.2782,0.0679 0.15301,0 0.27787,0.004 0.27747,0.009 -4.1e-4,0.005 -0.0375,0.14953 -0.0825,0.32166 l -0.0817,0.31298 -0.28007,0.0101 -0.28008,0.0101 -0.0395,0.1812 c -0.0217,0.0997 -0.0772,0.36117 -0.12334,0.58112 -0.0461,0.21995 -0.14681,0.69724 -0.22375,1.06063 -0.0769,0.3634 -0.13997,0.67302 -0.14006,0.68804 -10e-5,0.015 -0.29815,0.0255 -0.66236,0.0233 -0.60169,-0.004 -0.66052,-0.009 -0.64398,-0.0621 z m 1.74294,-7.48641 c -0.0907,-0.10784 -0.0961,-0.13176 -0.0814,-0.3601 0.0349,-0.53911 0.31143,-0.84239 0.70136,-0.76924 0.13959,0.0262 0.21479,0.16472 0.17867,0.32915 -0.0301,0.13726 -0.25597,0.33838 -0.43364,0.38623 -0.11768,0.0317 -0.14107,0.0526 -0.14107,0.12587 0,0.21278 0.15991,0.30008 0.36843,0.20112 0.22825,-0.1083 0.3328,-0.33011 0.42024,-0.89155 l 0.0203,-0.13041 h 0.18559 c 0.15068,0 0.18183,0.01 0.16558,0.0522 -0.0252,0.0656 0.0195,0.0652 0.10708,-0.001 0.0989,-0.0748 0.29647,-0.0643 0.38678,0.0206 l 0.0762,0.0716 0.11727,-0.0715 c 0.15872,-0.0968 0.34594,-0.094 0.43638,0.007 0.11376,0.12638 0.11777,0.18287 0.039,0.54906 -0.0813,0.37773 -0.0675,0.44219 0.0864,0.40357 0.0775,-0.0194 0.086,-0.0424 0.10397,-0.27973 0.0352,-0.46573 0.23003,-0.74775 0.53666,-0.7769 0.13413,-0.0127 0.18554,-0.001 0.26244,0.0596 0.23873,0.18847 0.009,0.57685 -0.39992,0.67479 -0.0778,0.0187 -0.0956,0.0422 -0.0956,0.12659 0,0.15 0.11733,0.25581 0.25346,0.22859 0.0589,-0.0118 0.13285,-0.0447 0.1643,-0.0732 0.13878,-0.1256 0.14077,-0.0138 0.002,0.1248 -0.0898,0.0898 -0.12605,0.10165 -0.31031,0.10165 -0.16941,0 -0.22728,-0.0157 -0.30767,-0.0833 l -0.099,-0.0833 -0.0969,0.0833 c -0.12455,0.10714 -0.3406,0.11388 -0.44072,0.0138 -0.0817,-0.0817 -0.0854,-0.18493 -0.0167,-0.46947 0.0949,-0.39286 0.0512,-0.57526 -0.12234,-0.51106 -0.0614,0.0227 -0.0817,0.0624 -0.0934,0.1831 -0.008,0.0847 -0.0495,0.31058 -0.0917,0.50184 l -0.0768,0.34775 -0.17649,0.0103 -0.17649,0.0103 0.043,-0.20158 c 0.17357,-0.81323 0.16573,-0.74484 0.0937,-0.81689 -0.0516,-0.0516 -0.0844,-0.0588 -0.15162,-0.0332 -0.077,0.0293 -0.0957,0.0784 -0.18218,0.47966 -0.053,0.24587 -0.10432,0.47443 -0.11402,0.5079 -0.0137,0.0472 -0.0556,0.0609 -0.18699,0.0609 h -0.16935 l 0.0207,-0.1278 0.0207,-0.12781 -0.1463,0.11757 c -0.12384,0.0995 -0.17977,0.1197 -0.3645,0.13146 -0.21151,0.0135 -0.2212,0.0103 -0.31541,-0.10162 z m 0.42572,-0.53158 c 0.13851,-0.0716 0.21607,-0.17114 0.23781,-0.30514 0.0238,-0.14665 -0.0495,-0.22778 -0.1548,-0.1714 -0.0681,0.0364 -0.19279,0.26715 -0.23475,0.43436 -0.0263,0.10458 0.011,0.11494 0.15174,0.0422 z m 2.82231,-0.003 c 0.14347,-0.0742 0.24477,-0.2188 0.24477,-0.34942 0,-0.11772 -0.0612,-0.16988 -0.15649,-0.13332 -0.0508,0.0195 -0.26081,0.41871 -0.26081,0.49571 0,0.0524 0.054,0.0483 0.17253,-0.013 z"
           style="fill:#ffffff;fill-opacity:0.941176;stroke-width:0.0347749"
           inkscape:label="24eme"
           sodipodi:nodetypes="ccssscssssccscscccsssccsccscccscssscsscsccsssscsccsscccssscccccccscccccscsssscsccscscccccccssccscccscscccccsssssscccscccssccsscssscc" />
        <ellipse
           style="opacity:0.8;fill:#a52e2e;fill-opacity:1;stroke:none;stroke-width:2.51115;stroke-linecap:round;stroke-linejoin:round"
           id="path234-3-27"
           cx="144.7039"
           cy="92.587074"
           rx="15.290368"
           ry="13.740038" />
        <path
           inkscape:connector-curvature="0"
           id="path3054-6-56"
           d="m 141.37338,96.942823 c -0.0574,-0.008 -0.32096,-0.0681 -0.58573,-0.13301 -0.30222,-0.074 -0.61288,-0.12542 -0.8346,-0.13806 -0.3456,-0.0197 -0.35951,-0.0175 -0.64761,0.1017 -0.16193,0.067 -0.30277,0.11344 -0.31297,0.10317 -0.0412,-0.0415 -0.006,-0.60366 0.0497,-0.79698 0.11488,-0.39767 0.46209,-0.94631 0.87311,-1.37962 0.0943,-0.0994 0.3593,-0.37737 0.58887,-0.61766 1.01844,-1.06598 1.35942,-1.64084 1.48043,-2.49583 0.0697,-0.4923 -0.0314,-0.81759 -0.31285,-1.00729 -0.20732,-0.13971 -0.61239,-0.0958 -0.81044,0.0879 -0.2539,0.23546 -0.24905,0.81903 0.009,1.09036 0.14495,0.15237 0.13784,0.16839 -0.13816,0.31115 -0.22508,0.11642 -0.51462,0.12984 -0.68882,0.0319 -0.2672,-0.15017 -0.39673,-0.4955 -0.34163,-0.91081 0.0686,-0.51691 0.49226,-0.92431 1.13986,-1.09604 0.27054,-0.0717 1.1032,-0.0828 1.37998,-0.0184 0.76622,0.17843 1.11699,0.68204 1.07098,1.53762 -0.0525,0.97541 -0.51776,1.63469 -1.98143,2.80748 -0.23314,0.18681 -0.55547,0.46484 -0.7163,0.61785 -0.28245,0.26873 -0.57573,0.60466 -0.55018,0.63021 0.007,0.007 0.15212,0.0275 0.32285,0.046 0.17074,0.0184 0.49822,0.0576 0.72773,0.087 0.94039,0.12051 1.25072,0.055 1.75624,-0.37047 l 0.24332,-0.20482 -0.002,0.34075 c -0.004,0.80987 -0.18087,1.20633 -0.59925,1.34587 -0.15981,0.0533 -0.83398,0.0714 -1.12028,0.03 z m 3.68403,-0.10768 c 0.01,-0.032 0.0576,-0.24588 0.10568,-0.4754 0.0481,-0.22951 0.11959,-0.56596 0.15886,-0.74766 0.0393,-0.1817 0.10961,-0.51262 0.15632,-0.73538 0.0467,-0.22276 0.0945,-0.4301 0.10631,-0.46077 0.0194,-0.0504 -0.0863,-0.0558 -1.11095,-0.0558 h -1.13235 l 0.0822,-0.21734 c 0.0452,-0.11954 0.22614,-0.52249 0.4021,-0.89545 0.49222,-1.04334 0.67244,-1.5075 0.78533,-2.0226 0.0593,-0.27078 0.0806,-0.99563 0.0335,-1.13855 -0.0273,-0.0828 -0.026,-0.0834 0.15691,-0.0617 0.10147,0.012 0.26772,0.0626 0.36945,0.11235 0.46466,0.22733 0.57943,0.73273 0.33521,1.47609 -0.12461,0.37929 -0.27553,0.64057 -0.9126,1.58 -0.15481,0.22827 -0.28147,0.43562 -0.28147,0.46077 0,0.0363 0.14688,0.0457 0.71223,0.0457 0.7104,0 0.71226,-2.1e-4 0.72917,-0.0782 0.009,-0.043 0.073,-0.34427 0.14158,-0.66942 0.0686,-0.32514 0.17001,-0.80243 0.22545,-1.06063 0.0554,-0.25821 0.15887,-0.74332 0.22983,-1.07802 0.071,-0.33471 0.13273,-0.6135 0.13727,-0.61954 0.006,-0.008 1.26962,-0.1794 1.32871,-0.18017 0.01,-1.4e-4 -0.007,0.0859 -0.0624,0.33024 -0.0175,0.0765 -0.0722,0.33471 -0.12155,0.57379 -0.0494,0.23908 -0.10389,0.49728 -0.12109,0.57379 -0.20935,0.93106 -0.45198,2.08002 -0.45198,2.14032 0,0.0617 0.0255,0.0679 0.2782,0.0679 0.15301,0 0.27787,0.004 0.27747,0.009 -4.1e-4,0.005 -0.0375,0.14953 -0.0825,0.32166 l -0.0817,0.31298 -0.28007,0.0101 -0.28008,0.0101 -0.0395,0.1812 c -0.0217,0.0997 -0.0772,0.36117 -0.12334,0.58112 -0.0461,0.21995 -0.14681,0.69724 -0.22375,1.06063 -0.0769,0.3634 -0.13997,0.67302 -0.14006,0.68804 -1e-4,0.015 -0.29815,0.0255 -0.66236,0.0233 -0.60169,-0.004 -0.66052,-0.009 -0.64398,-0.0621 z m 1.74294,-7.48641 c -0.0907,-0.10784 -0.0961,-0.13176 -0.0814,-0.3601 0.0349,-0.53911 0.31143,-0.84239 0.70136,-0.76924 0.13959,0.0262 0.21479,0.16472 0.17867,0.32915 -0.0301,0.13726 -0.25597,0.33838 -0.43364,0.38623 -0.11768,0.0317 -0.14107,0.0526 -0.14107,0.12587 0,0.21278 0.15991,0.30008 0.36843,0.20112 0.22825,-0.1083 0.3328,-0.33011 0.42024,-0.89155 l 0.0203,-0.13041 h 0.18559 c 0.15068,0 0.18183,0.01 0.16558,0.0522 -0.0252,0.0656 0.0195,0.0652 0.10708,-10e-4 0.0989,-0.0748 0.29647,-0.0643 0.38678,0.0206 l 0.0762,0.0716 0.11727,-0.0715 c 0.15872,-0.0968 0.34594,-0.094 0.43638,0.007 0.11376,0.12638 0.11777,0.18287 0.039,0.54906 -0.0813,0.37773 -0.0675,0.44219 0.0864,0.40357 0.0775,-0.0194 0.086,-0.0424 0.10397,-0.27973 0.0352,-0.46573 0.23003,-0.74775 0.53666,-0.7769 0.13413,-0.0127 0.18554,-0.001 0.26244,0.0596 0.23873,0.18847 0.009,0.57685 -0.39992,0.67479 -0.0778,0.0187 -0.0956,0.0422 -0.0956,0.12659 0,0.15 0.11733,0.25581 0.25346,0.22859 0.0589,-0.0118 0.13285,-0.0447 0.1643,-0.0732 0.13878,-0.1256 0.14077,-0.0138 0.002,0.1248 -0.0898,0.0898 -0.12605,0.10165 -0.31031,0.10165 -0.16941,0 -0.22728,-0.0157 -0.30767,-0.0833 l -0.099,-0.0833 -0.0969,0.0833 c -0.12455,0.10714 -0.3406,0.11388 -0.44072,0.0138 -0.0817,-0.0817 -0.0854,-0.18493 -0.0167,-0.46947 0.0949,-0.39286 0.0512,-0.57526 -0.12234,-0.51106 -0.0614,0.0227 -0.0817,0.0624 -0.0934,0.1831 -0.008,0.0847 -0.0495,0.31058 -0.0917,0.50184 l -0.0768,0.34775 -0.17649,0.0103 -0.17649,0.0103 0.043,-0.20158 c 0.17357,-0.81323 0.16573,-0.74484 0.0937,-0.81689 -0.0516,-0.0516 -0.0844,-0.0588 -0.15162,-0.0332 -0.077,0.0293 -0.0957,0.0784 -0.18218,0.47966 -0.053,0.24587 -0.10432,0.47443 -0.11402,0.5079 -0.0137,0.0472 -0.0556,0.0609 -0.18699,0.0609 h -0.16935 l 0.0207,-0.1278 0.0207,-0.12781 -0.1463,0.11757 c -0.12384,0.0995 -0.17977,0.1197 -0.3645,0.13146 -0.21151,0.0135 -0.2212,0.0103 -0.31541,-0.10162 z m 0.42572,-0.53158 c 0.13851,-0.0716 0.21607,-0.17114 0.23781,-0.30514 0.0238,-0.14665 -0.0495,-0.22778 -0.1548,-0.1714 -0.0681,0.0364 -0.19279,0.26715 -0.23475,0.43436 -0.0263,0.10458 0.011,0.11494 0.15174,0.0422 z m 2.82231,-0.003 c 0.14347,-0.0742 0.24477,-0.2188 0.24477,-0.34942 0,-0.11772 -0.0612,-0.16988 -0.15649,-0.13332 -0.0508,0.0195 -0.26081,0.41871 -0.26081,0.49571 0,0.0524 0.054,0.0483 0.17253,-0.013 z"
           style="fill:#ffffff;fill-opacity:0.941176;stroke-width:0.0347749"
           inkscape:label="24eme"
           sodipodi:nodetypes="ccssscssssccscscccsssccsccscccscssscsscsccsssscsccsscccssscccccccscccccscsssscsccscscccccccssccscccscscccccsssssscccscccssccsscssscc" />
        <ellipse
           style="opacity:0.8;fill:#a02b2c;fill-opacity:1;stroke:none;stroke-width:2.51115;stroke-linecap:round;stroke-linejoin:round"
           id="path234-3-0"
           cx="85.27861"
           cy="74.653976"
           rx="15.290368"
           ry="13.740038" />
        <path
           inkscape:connector-curvature="0"
           id="path3054-6-3"
           d="m 81.94809,79.009726 c -0.0574,-0.008 -0.32096,-0.0681 -0.58573,-0.13301 -0.30222,-0.074 -0.61288,-0.12542 -0.8346,-0.13806 -0.3456,-0.0197 -0.35951,-0.0175 -0.64761,0.1017 -0.16193,0.067 -0.30277,0.11344 -0.31297,0.10317 -0.0412,-0.0415 -0.006,-0.60366 0.0497,-0.79698 0.11488,-0.39767 0.46209,-0.94631 0.87311,-1.37962 0.0943,-0.0994 0.3593,-0.37737 0.58887,-0.61766 1.01844,-1.06598 1.35942,-1.64084 1.48043,-2.49583 0.0697,-0.4923 -0.0314,-0.81759 -0.31285,-1.00729 -0.20732,-0.13971 -0.61239,-0.0958 -0.81044,0.0879 -0.2539,0.23546 -0.24905,0.81903 0.009,1.09036 0.14495,0.15237 0.13784,0.16839 -0.13816,0.31115 -0.22508,0.11642 -0.51462,0.12984 -0.68882,0.0319 -0.2672,-0.15017 -0.39673,-0.4955 -0.34163,-0.91081 0.0686,-0.51691 0.49226,-0.92431 1.13986,-1.09604 0.27054,-0.0717 1.1032,-0.0828 1.37998,-0.0184 0.76622,0.17843 1.11699,0.68204 1.07098,1.53762 -0.0525,0.97541 -0.51776,1.63469 -1.98143,2.80748 -0.23314,0.18681 -0.55547,0.46484 -0.7163,0.61785 -0.28245,0.26873 -0.57573,0.60466 -0.55018,0.63021 0.007,0.007 0.15212,0.0275 0.32285,0.046 0.17074,0.0184 0.49822,0.0576 0.72773,0.087 0.94039,0.12051 1.25072,0.055 1.75624,-0.37047 l 0.24332,-0.20482 -0.002,0.34075 c -0.004,0.80987 -0.18087,1.20633 -0.59925,1.34587 -0.15981,0.0533 -0.83398,0.0714 -1.12028,0.03 z m 3.68403,-0.10768 c 0.01,-0.032 0.0576,-0.24588 0.10568,-0.4754 0.0481,-0.22951 0.11959,-0.56596 0.15886,-0.74766 0.0393,-0.1817 0.10961,-0.51262 0.15632,-0.73538 0.0467,-0.22276 0.0945,-0.4301 0.10631,-0.46077 0.0194,-0.0504 -0.0863,-0.0558 -1.11095,-0.0558 h -1.13235 l 0.0822,-0.21734 c 0.0452,-0.11954 0.22614,-0.52249 0.4021,-0.89545 0.49222,-1.04334 0.67244,-1.5075 0.78533,-2.0226 0.0593,-0.27078 0.0806,-0.99563 0.0335,-1.13855 -0.0273,-0.0828 -0.026,-0.0834 0.15691,-0.0617 0.10147,0.012 0.26772,0.0626 0.36945,0.11235 0.46466,0.22733 0.57943,0.73273 0.33521,1.47609 -0.12461,0.37929 -0.27553,0.64057 -0.9126,1.58 -0.15481,0.22827 -0.28147,0.43562 -0.28147,0.46077 0,0.0363 0.14688,0.0457 0.71223,0.0457 0.7104,0 0.71226,-2.1e-4 0.72917,-0.0782 0.009,-0.043 0.073,-0.34427 0.14158,-0.66942 0.0686,-0.32514 0.17001,-0.80243 0.22545,-1.06063 0.0554,-0.25821 0.15887,-0.74332 0.22983,-1.07802 0.071,-0.33471 0.13273,-0.6135 0.13727,-0.61954 0.006,-0.008 1.26962,-0.1794 1.32871,-0.18017 0.01,-1.4e-4 -0.007,0.0859 -0.0624,0.33024 -0.0175,0.0765 -0.0722,0.33471 -0.12155,0.57379 -0.0494,0.23908 -0.10389,0.49728 -0.12109,0.57379 -0.20935,0.93106 -0.45198,2.08002 -0.45198,2.14032 0,0.0617 0.0255,0.0679 0.2782,0.0679 0.15301,0 0.27787,0.004 0.27747,0.009 -4.1e-4,0.005 -0.0375,0.14953 -0.0825,0.32166 l -0.0817,0.31298 -0.28007,0.0101 -0.28008,0.0101 -0.0395,0.1812 c -0.0217,0.0997 -0.0772,0.36117 -0.12334,0.58112 -0.0461,0.21995 -0.14681,0.69724 -0.22375,1.06063 -0.0769,0.3634 -0.13997,0.67302 -0.14006,0.68804 -10e-5,0.015 -0.29815,0.0255 -0.66236,0.0233 -0.60169,-0.004 -0.66052,-0.009 -0.64398,-0.0621 z m 1.74294,-7.48641 c -0.0907,-0.10784 -0.0961,-0.13176 -0.0814,-0.3601 0.0349,-0.53911 0.31143,-0.84239 0.70136,-0.76924 0.13959,0.0262 0.21479,0.16472 0.17867,0.32915 -0.0301,0.13726 -0.25597,0.33838 -0.43364,0.38623 -0.11768,0.0317 -0.14107,0.0526 -0.14107,0.12587 0,0.21278 0.15991,0.30008 0.36843,0.20112 0.22825,-0.1083 0.3328,-0.33011 0.42024,-0.89155 l 0.0203,-0.13041 h 0.18559 c 0.15068,0 0.18183,0.01 0.16558,0.0522 -0.0252,0.0656 0.0195,0.0652 0.10708,-0.001 0.0989,-0.0748 0.29647,-0.0643 0.38678,0.0206 l 0.0762,0.0716 0.11727,-0.0715 c 0.15872,-0.0968 0.34594,-0.094 0.43638,0.007 0.11376,0.12638 0.11777,0.18287 0.039,0.54906 -0.0813,0.37773 -0.0675,0.44219 0.0864,0.40357 0.0775,-0.0194 0.086,-0.0424 0.10397,-0.27973 0.0352,-0.46573 0.23003,-0.74775 0.53666,-0.7769 0.13413,-0.0127 0.18554,-10e-4 0.26244,0.0596 0.23873,0.18847 0.009,0.57685 -0.39992,0.67479 -0.0778,0.0187 -0.0956,0.0422 -0.0956,0.12659 0,0.15 0.11733,0.25581 0.25346,0.22859 0.0589,-0.0118 0.13285,-0.0447 0.1643,-0.0732 0.13878,-0.1256 0.14077,-0.0138 0.002,0.1248 -0.0898,0.0898 -0.12605,0.10165 -0.31031,0.10165 -0.16941,0 -0.22728,-0.0157 -0.30767,-0.0833 l -0.099,-0.0833 -0.0969,0.0833 c -0.12455,0.10714 -0.3406,0.11388 -0.44072,0.0138 -0.0817,-0.0817 -0.0854,-0.18493 -0.0167,-0.46947 0.0949,-0.39286 0.0512,-0.57526 -0.12234,-0.51106 -0.0614,0.0227 -0.0817,0.0624 -0.0934,0.1831 -0.008,0.0847 -0.0495,0.31058 -0.0917,0.50184 l -0.0768,0.34775 -0.17649,0.0103 -0.17649,0.0103 0.043,-0.20158 c 0.17357,-0.81323 0.16573,-0.74484 0.0937,-0.81689 -0.0516,-0.0516 -0.0844,-0.0588 -0.15162,-0.0332 -0.077,0.0293 -0.0957,0.0784 -0.18218,0.47966 -0.053,0.24587 -0.10432,0.47443 -0.11402,0.5079 -0.0137,0.0472 -0.0556,0.0609 -0.18699,0.0609 h -0.16935 l 0.0207,-0.1278 0.0207,-0.12781 -0.1463,0.11757 c -0.12384,0.0995 -0.17977,0.1197 -0.3645,0.13146 -0.21151,0.0135 -0.2212,0.0103 -0.31541,-0.10162 z m 0.42572,-0.53158 c 0.13851,-0.0716 0.21607,-0.17114 0.23781,-0.30514 0.0238,-0.14665 -0.0495,-0.22778 -0.1548,-0.1714 -0.0681,0.0364 -0.19279,0.26715 -0.23475,0.43436 -0.0263,0.10458 0.011,0.11494 0.15174,0.0422 z m 2.82231,-0.003 c 0.14347,-0.0742 0.24477,-0.2188 0.24477,-0.34942 0,-0.11772 -0.0612,-0.16988 -0.15649,-0.13332 -0.0508,0.0195 -0.26081,0.41871 -0.26081,0.49571 0,0.0524 0.054,0.0483 0.17253,-0.013 z"
           style="fill:#ffffff;fill-opacity:0.941176;stroke-width:0.0347749"
           inkscape:label="24eme"
           sodipodi:nodetypes="ccssscssssccscscccsssccsccscccscssscsscsccsssscsccsscccssscccccccscccccscsssscsccscscccccccssccscccscscccccsssssscccscccssccsscssscc" />
        <ellipse
           style="opacity:0.8;fill:#c03734;fill-opacity:1;stroke:none;stroke-width:2.51115;stroke-linecap:round;stroke-linejoin:round"
           id="path234-3-93"
           cx="110.81736"
           cy="73.755409"
           rx="15.290368"
           ry="13.740038" />
        <path
           inkscape:connector-curvature="0"
           id="path3054-6-5"
           d="m 107.48684,78.111158 c -0.0574,-0.008 -0.32096,-0.0681 -0.58573,-0.13301 -0.30222,-0.074 -0.61288,-0.12542 -0.8346,-0.13806 -0.3456,-0.0197 -0.35951,-0.0175 -0.64761,0.1017 -0.16193,0.067 -0.30277,0.11344 -0.31297,0.10317 -0.0412,-0.0415 -0.006,-0.60366 0.0497,-0.79698 0.11488,-0.39767 0.46209,-0.94631 0.87311,-1.37962 0.0943,-0.0994 0.3593,-0.37737 0.58887,-0.61766 1.01844,-1.06598 1.35942,-1.64084 1.48043,-2.49583 0.0697,-0.4923 -0.0314,-0.81759 -0.31285,-1.00729 -0.20732,-0.13971 -0.61239,-0.0958 -0.81044,0.0879 -0.2539,0.23546 -0.24905,0.81903 0.009,1.09036 0.14495,0.15237 0.13784,0.16839 -0.13816,0.31115 -0.22508,0.11642 -0.51462,0.12984 -0.68882,0.0319 -0.2672,-0.15017 -0.39673,-0.4955 -0.34163,-0.91081 0.0686,-0.51691 0.49226,-0.92431 1.13986,-1.09604 0.27054,-0.0717 1.1032,-0.0828 1.37998,-0.0184 0.76622,0.17843 1.11699,0.68204 1.07098,1.53762 -0.0525,0.97541 -0.51776,1.63469 -1.98143,2.80748 -0.23314,0.18681 -0.55547,0.46484 -0.7163,0.61785 -0.28245,0.26873 -0.57573,0.60466 -0.55018,0.63021 0.007,0.007 0.15212,0.0275 0.32285,0.046 0.17074,0.0184 0.49822,0.0576 0.72773,0.087 0.94039,0.12051 1.25072,0.055 1.75624,-0.37047 l 0.24332,-0.20482 -0.002,0.34075 c -0.004,0.80987 -0.18087,1.20633 -0.59925,1.34587 -0.15981,0.0533 -0.83398,0.0714 -1.12028,0.03 z m 3.68403,-0.10768 c 0.01,-0.032 0.0576,-0.24588 0.10568,-0.4754 0.0481,-0.22951 0.11959,-0.56596 0.15886,-0.74766 0.0393,-0.1817 0.10961,-0.51262 0.15632,-0.73538 0.0467,-0.22276 0.0945,-0.4301 0.10631,-0.46077 0.0194,-0.0504 -0.0863,-0.0558 -1.11095,-0.0558 h -1.13235 l 0.0822,-0.21734 c 0.0452,-0.11954 0.22614,-0.52249 0.4021,-0.89545 0.49222,-1.04334 0.67244,-1.5075 0.78533,-2.0226 0.0593,-0.27078 0.0806,-0.99563 0.0335,-1.13855 -0.0273,-0.0828 -0.026,-0.0834 0.15691,-0.0617 0.10147,0.012 0.26772,0.0626 0.36945,0.11235 0.46466,0.22733 0.57943,0.73273 0.33521,1.47609 -0.12461,0.37929 -0.27553,0.64057 -0.9126,1.58 -0.15481,0.22827 -0.28147,0.43562 -0.28147,0.46077 0,0.0363 0.14688,0.0457 0.71223,0.0457 0.7104,0 0.71226,-2.1e-4 0.72917,-0.0782 0.009,-0.043 0.073,-0.34427 0.14158,-0.66942 0.0686,-0.32514 0.17001,-0.80243 0.22545,-1.06063 0.0554,-0.25821 0.15887,-0.74332 0.22983,-1.07802 0.071,-0.33471 0.13273,-0.6135 0.13727,-0.61954 0.006,-0.008 1.26962,-0.1794 1.32871,-0.18017 0.01,-1.4e-4 -0.007,0.0859 -0.0624,0.33024 -0.0175,0.0765 -0.0722,0.33471 -0.12155,0.57379 -0.0494,0.23908 -0.10389,0.49728 -0.12109,0.57379 -0.20935,0.93106 -0.45198,2.08002 -0.45198,2.14032 0,0.0617 0.0255,0.0679 0.2782,0.0679 0.15301,0 0.27787,0.004 0.27747,0.009 -4.1e-4,0.005 -0.0375,0.14953 -0.0825,0.32166 l -0.0817,0.31298 -0.28007,0.0101 -0.28008,0.0101 -0.0395,0.1812 c -0.0217,0.0997 -0.0772,0.36117 -0.12334,0.58112 -0.0461,0.21995 -0.14681,0.69724 -0.22375,1.06063 -0.0769,0.3634 -0.13997,0.67302 -0.14006,0.68804 -1e-4,0.015 -0.29815,0.0255 -0.66236,0.0233 -0.60169,-0.004 -0.66052,-0.009 -0.64398,-0.0621 z m 1.74294,-7.48641 c -0.0907,-0.10784 -0.0961,-0.13176 -0.0814,-0.3601 0.0349,-0.53911 0.31143,-0.84239 0.70136,-0.76924 0.13959,0.0262 0.21479,0.16472 0.17867,0.32915 -0.0301,0.13726 -0.25597,0.33838 -0.43364,0.38623 -0.11768,0.0317 -0.14107,0.0526 -0.14107,0.12587 0,0.21278 0.15991,0.30008 0.36843,0.20112 0.22825,-0.1083 0.3328,-0.33011 0.42024,-0.89155 l 0.0203,-0.13041 h 0.18559 c 0.15068,0 0.18183,0.01 0.16558,0.0522 -0.0252,0.0656 0.0195,0.0652 0.10708,-10e-4 0.0989,-0.0748 0.29647,-0.0643 0.38678,0.0206 l 0.0762,0.0716 0.11727,-0.0715 c 0.15872,-0.0968 0.34594,-0.094 0.43638,0.007 0.11376,0.12638 0.11777,0.18287 0.039,0.54906 -0.0813,0.37773 -0.0675,0.44219 0.0864,0.40357 0.0775,-0.0194 0.086,-0.0424 0.10397,-0.27973 0.0352,-0.46573 0.23003,-0.74775 0.53666,-0.7769 0.13413,-0.0127 0.18554,-0.001 0.26244,0.0596 0.23873,0.18847 0.009,0.57685 -0.39992,0.67479 -0.0778,0.0187 -0.0956,0.0422 -0.0956,0.12659 0,0.15 0.11733,0.25581 0.25346,0.22859 0.0589,-0.0118 0.13285,-0.0447 0.1643,-0.0732 0.13878,-0.1256 0.14077,-0.0138 0.002,0.1248 -0.0898,0.0898 -0.12605,0.10165 -0.31031,0.10165 -0.16941,0 -0.22728,-0.0157 -0.30767,-0.0833 l -0.099,-0.0833 -0.0969,0.0833 c -0.12455,0.10714 -0.3406,0.11388 -0.44072,0.0138 -0.0817,-0.0817 -0.0854,-0.18493 -0.0167,-0.46947 0.0949,-0.39286 0.0512,-0.57526 -0.12234,-0.51106 -0.0614,0.0227 -0.0817,0.0624 -0.0934,0.1831 -0.008,0.0847 -0.0495,0.31058 -0.0917,0.50184 l -0.0768,0.34775 -0.17649,0.0103 -0.17649,0.0103 0.043,-0.20158 c 0.17357,-0.81323 0.16573,-0.74484 0.0937,-0.81689 -0.0516,-0.0516 -0.0844,-0.0588 -0.15162,-0.0332 -0.077,0.0293 -0.0957,0.0784 -0.18218,0.47966 -0.053,0.24587 -0.10432,0.47443 -0.11402,0.5079 -0.0137,0.0472 -0.0556,0.0609 -0.18699,0.0609 h -0.16935 l 0.0207,-0.1278 0.0207,-0.12781 -0.1463,0.11757 c -0.12384,0.0995 -0.17977,0.1197 -0.3645,0.13146 -0.21151,0.0135 -0.2212,0.0103 -0.31541,-0.10162 z m 0.42572,-0.53158 c 0.13851,-0.0716 0.21607,-0.17114 0.23781,-0.30514 0.0238,-0.14665 -0.0495,-0.22778 -0.1548,-0.1714 -0.0681,0.0364 -0.19279,0.26715 -0.23475,0.43436 -0.0263,0.10458 0.011,0.11494 0.15174,0.0422 z m 2.82231,-0.003 c 0.14347,-0.0742 0.24477,-0.2188 0.24477,-0.34942 0,-0.11772 -0.0612,-0.16988 -0.15649,-0.13332 -0.0508,0.0195 -0.26081,0.41871 -0.26081,0.49571 0,0.0524 0.054,0.0483 0.17253,-0.013 z"
           style="fill:#ffffff;fill-opacity:0.941176;stroke-width:0.0347749"
           inkscape:label="24eme"
           sodipodi:nodetypes="ccssscssssccscscccsssccsccscccscssscsscsccsssscsccsscccssscccccccscccccscsssscsccscscccccccssccscccscscccccsssssscccscccssccsscssscc" />
        <ellipse
           style="opacity:0.8;fill:#ae3a3a;fill-opacity:1;stroke:none;stroke-width:2.51115;stroke-linecap:round;stroke-linejoin:round"
           id="path234-3-60"
           cx="134.81969"
           cy="73.143631"
           rx="15.290368"
           ry="13.740038" />
        <path
           inkscape:connector-curvature="0"
           id="path3054-6-7"
           d="m 131.48917,77.49938 c -0.0574,-0.008 -0.32096,-0.0681 -0.58573,-0.13301 -0.30222,-0.074 -0.61288,-0.12542 -0.8346,-0.13806 -0.3456,-0.0197 -0.35951,-0.0175 -0.64761,0.1017 -0.16193,0.067 -0.30277,0.11344 -0.31297,0.10317 -0.0412,-0.0415 -0.006,-0.60366 0.0497,-0.79698 0.11488,-0.39767 0.46209,-0.94631 0.87311,-1.37962 0.0943,-0.0994 0.3593,-0.37737 0.58887,-0.61766 1.01844,-1.06598 1.35942,-1.64084 1.48043,-2.49583 0.0697,-0.4923 -0.0314,-0.81759 -0.31285,-1.00729 -0.20732,-0.13971 -0.61239,-0.0958 -0.81044,0.0879 -0.2539,0.23546 -0.24905,0.81903 0.009,1.09036 0.14495,0.15237 0.13784,0.16839 -0.13816,0.31115 -0.22508,0.11642 -0.51462,0.12984 -0.68882,0.0319 -0.2672,-0.15017 -0.39673,-0.4955 -0.34163,-0.91081 0.0686,-0.51691 0.49226,-0.92431 1.13986,-1.09604 0.27054,-0.0717 1.1032,-0.0828 1.37998,-0.0184 0.76622,0.17843 1.11699,0.68204 1.07098,1.53762 -0.0525,0.97541 -0.51776,1.63469 -1.98143,2.80748 -0.23314,0.18681 -0.55547,0.46484 -0.7163,0.61785 -0.28245,0.26873 -0.57573,0.60466 -0.55018,0.63021 0.007,0.007 0.15212,0.0275 0.32285,0.046 0.17074,0.0184 0.49822,0.0576 0.72773,0.087 0.94039,0.12051 1.25072,0.055 1.75624,-0.37047 l 0.24332,-0.20482 -0.002,0.34075 c -0.004,0.80987 -0.18087,1.20633 -0.59925,1.34587 -0.15981,0.0533 -0.83398,0.0714 -1.12028,0.03 z m 3.68403,-0.10768 c 0.01,-0.032 0.0576,-0.24588 0.10568,-0.4754 0.0481,-0.22951 0.11959,-0.56596 0.15886,-0.74766 0.0393,-0.1817 0.10961,-0.51262 0.15632,-0.73538 0.0467,-0.22276 0.0945,-0.4301 0.10631,-0.46077 0.0194,-0.0504 -0.0863,-0.0558 -1.11095,-0.0558 h -1.13235 l 0.0822,-0.21734 c 0.0452,-0.11954 0.22614,-0.52249 0.4021,-0.89545 0.49222,-1.04334 0.67244,-1.5075 0.78533,-2.0226 0.0593,-0.27078 0.0806,-0.99563 0.0335,-1.13855 -0.0273,-0.0828 -0.026,-0.0834 0.15691,-0.0617 0.10147,0.012 0.26772,0.0626 0.36945,0.11235 0.46466,0.22733 0.57943,0.73273 0.33521,1.47609 -0.12461,0.37929 -0.27553,0.64057 -0.9126,1.58 -0.15481,0.22827 -0.28147,0.43562 -0.28147,0.46077 0,0.0363 0.14688,0.0457 0.71223,0.0457 0.7104,0 0.71226,-2.1e-4 0.72917,-0.0782 0.009,-0.043 0.073,-0.34427 0.14158,-0.66942 0.0686,-0.32514 0.17001,-0.80243 0.22545,-1.06063 0.0554,-0.25821 0.15887,-0.74332 0.22983,-1.07802 0.071,-0.33471 0.13273,-0.6135 0.13727,-0.61954 0.006,-0.008 1.26962,-0.1794 1.32871,-0.18017 0.01,-1.4e-4 -0.007,0.0859 -0.0624,0.33024 -0.0175,0.0765 -0.0722,0.33471 -0.12155,0.57379 -0.0494,0.23908 -0.10389,0.49728 -0.12109,0.57379 -0.20935,0.93106 -0.45198,2.08002 -0.45198,2.14032 0,0.0617 0.0255,0.0679 0.2782,0.0679 0.15301,0 0.27787,0.004 0.27747,0.009 -4.1e-4,0.005 -0.0375,0.14953 -0.0825,0.32166 l -0.0817,0.31298 -0.28007,0.0101 -0.28008,0.0101 -0.0395,0.1812 c -0.0217,0.0997 -0.0772,0.36117 -0.12334,0.58112 -0.0461,0.21995 -0.14681,0.69724 -0.22375,1.06063 -0.0769,0.3634 -0.13997,0.67302 -0.14006,0.68804 -1e-4,0.015 -0.29815,0.0255 -0.66236,0.0233 -0.60169,-0.004 -0.66052,-0.009 -0.64398,-0.0621 z m 1.74294,-7.48641 c -0.0907,-0.10784 -0.0961,-0.13176 -0.0814,-0.3601 0.0349,-0.53911 0.31143,-0.84239 0.70136,-0.76924 0.13959,0.0262 0.21479,0.16472 0.17867,0.32915 -0.0301,0.13726 -0.25597,0.33838 -0.43364,0.38623 -0.11768,0.0317 -0.14107,0.0526 -0.14107,0.12587 0,0.21278 0.15991,0.30008 0.36843,0.20112 0.22825,-0.1083 0.3328,-0.33011 0.42024,-0.89155 l 0.0203,-0.13041 h 0.18559 c 0.15068,0 0.18183,0.01 0.16558,0.0522 -0.0252,0.0656 0.0195,0.0652 0.10708,-0.001 0.0989,-0.0748 0.29647,-0.0643 0.38678,0.0206 l 0.0762,0.0716 0.11727,-0.0715 c 0.15872,-0.0968 0.34594,-0.094 0.43638,0.007 0.11376,0.12638 0.11777,0.18287 0.039,0.54906 -0.0813,0.37773 -0.0675,0.44219 0.0864,0.40357 0.0775,-0.0194 0.086,-0.0424 0.10397,-0.27973 0.0352,-0.46573 0.23003,-0.74775 0.53666,-0.7769 0.13413,-0.0127 0.18554,-0.001 0.26244,0.0596 0.23873,0.18847 0.009,0.57685 -0.39992,0.67479 -0.0778,0.0187 -0.0956,0.0422 -0.0956,0.12659 0,0.15 0.11733,0.25581 0.25346,0.22859 0.0589,-0.0118 0.13285,-0.0447 0.1643,-0.0732 0.13878,-0.1256 0.14077,-0.0138 0.002,0.1248 -0.0898,0.0898 -0.12605,0.10165 -0.31031,0.10165 -0.16941,0 -0.22728,-0.0157 -0.30767,-0.0833 l -0.099,-0.0833 -0.0969,0.0833 c -0.12455,0.10714 -0.3406,0.11388 -0.44072,0.0138 -0.0817,-0.0817 -0.0854,-0.18493 -0.0167,-0.46947 0.0949,-0.39286 0.0512,-0.57526 -0.12234,-0.51106 -0.0614,0.0227 -0.0817,0.0624 -0.0934,0.1831 -0.008,0.0847 -0.0495,0.31058 -0.0917,0.50184 l -0.0768,0.34775 -0.17649,0.0103 -0.17649,0.0103 0.043,-0.20158 c 0.17357,-0.81323 0.16573,-0.74484 0.0937,-0.81689 -0.0516,-0.0516 -0.0844,-0.0588 -0.15162,-0.0332 -0.077,0.0293 -0.0957,0.0784 -0.18218,0.47966 -0.053,0.24587 -0.10432,0.47443 -0.11402,0.5079 -0.0137,0.0472 -0.0556,0.0609 -0.18699,0.0609 h -0.16935 l 0.0207,-0.1278 0.0207,-0.12781 -0.1463,0.11757 c -0.12384,0.0995 -0.17977,0.1197 -0.3645,0.13146 -0.21151,0.0135 -0.2212,0.0103 -0.31541,-0.10162 z m 0.42572,-0.53158 c 0.13851,-0.0716 0.21607,-0.17114 0.23781,-0.30514 0.0238,-0.14665 -0.0495,-0.22778 -0.1548,-0.1714 -0.0681,0.0364 -0.19279,0.26715 -0.23475,0.43436 -0.0263,0.10458 0.011,0.11494 0.15174,0.0422 z m 2.82231,-0.003 c 0.14347,-0.0742 0.24477,-0.2188 0.24477,-0.34942 0,-0.11772 -0.0612,-0.16988 -0.15649,-0.13332 -0.0508,0.0195 -0.26081,0.41871 -0.26081,0.49571 0,0.0524 0.054,0.0483 0.17253,-0.013 z"
           style="fill:#ffffff;fill-opacity:0.941176;stroke-width:0.0347749"
           inkscape:label="24eme"
           sodipodi:nodetypes="ccssscssssccscscccsssccsccscccscssscsscsccsssscsccsscccssscccccccscccccscsssscsccscscccccccssccscccscscccccsssssscccscccssccsscssscc" />
      </g>
      <path
         style="opacity:0.8;fill:#808000;stroke:none;stroke-width:2.74399;stroke-linecap:round;stroke-linejoin:round"
         id="path2146"
         d="m 108.27383,82.591215 c 2.19325,-0.172302 5.32247,-1.478855 7.16711,-2.491438 1.43978,-0.81581 3.05448,-2.024786 3.79854,-3.863374 0.74405,-1.838588 0.7907,-4.175306 -0.0583,-6.336245 -1.10486,-3.374581 -4.15909,-5.647878 -7.23333,-7.139741 -3.85006,-1.766734 -8.20971,-2.235629 -12.379779,-1.599544 -0.704893,0.193079 -1.229816,0.84422 -1.859109,1.229718 -1.37998,1.085172 -2.880868,2.0232 -4.251309,3.109362 1.575857,0.652438 3.541367,0.194224 5.263313,0.251329 5.122714,-0.341071 10.709514,0.429546 14.762784,3.829865 1.50352,1.268628 1.5613,3.318748 1.32669,5.069405 -0.2346,1.750656 -2.41977,2.327758 -3.88279,2.903265 -2.02478,0.747444 -5.68729,1.407596 -8.96294,2.356088 -3.275652,0.948492 -6.521706,2.14651 -9.251378,3.734809 -2.566502,1.332569 -5.088226,4.041924 -5.088226,4.041924 0.427515,0.408359 0.801526,0.861003 1.185893,1.305075 2.18725,-3.031961 4.609981,-4.589167 7.119539,-5.545842 2.442906,-0.931265 5.878932,-1.378342 8.907402,-0.848925 1.03598,0.181103 2.18693,-0.03221 3.43589,-0.0057 z"
         sodipodi:nodetypes="cszssccccczccsccsscc" />
    </g>
    <text
       xml:space="preserve"
       style="font-size:7.05556px;line-height:9.01987px;font-family:Helvetica;-inkscape-font-specification:'Helvetica, Normal';text-align:end;letter-spacing:0px;word-spacing:0px;writing-mode:lr-tb;text-anchor:end;fill:none;stroke:#000000;stroke-width:0.264583px;stroke-linecap:butt;stroke-linejoin:miter;stroke-opacity:1"
       x="51.989277"
       y="7.9605799"
       id="text383"><tspan
         sodipodi:role="line"
         id="tspan381"
         style="font-style:normal;font-variant:normal;font-weight:normal;font-stretch:normal;font-size:5.29167px;font-family:Quicksand;-inkscape-font-specification:'Quicksand, Normal';font-variant-ligatures:normal;font-variant-caps:normal;font-variant-numeric:normal;font-variant-east-asian:normal;fill:#000000;stroke:#000000;stroke-width:0.264583px"
         x="51.989277"
         y="7.9605799">Domaine 24me</tspan></text>
    <text
       xml:space="preserve"
       id="text3431"
       style="font-style:normal;font-variant:normal;font-weight:normal;font-stretch:normal;font-size:7.05556px;font-family:'TeX Gyre Chorus';-inkscape-font-specification:'TeX Gyre Chorus, Normal';font-variant-ligatures:normal;font-variant-caps:normal;font-variant-numeric:normal;font-variant-east-asian:normal;text-align:center;letter-spacing:0px;word-spacing:0px;writing-mode:lr-tb;text-anchor:middle;fill:#000000;stroke:#000000;stroke-width:0.264583px;stroke-linecap:butt;stroke-linejoin:miter;stroke-opacity:1"
       inkscape:label="CUVEE"
       x="31.615473"
       y="14.136424"><tspan
         sodipodi:role="line"
         id="tspan52731"
         x="31.615473"
         y="14.136424">Cuve %CUVEE%</tspan></text>
    <text
       xml:space="preserve"
       style="font-size:5.29167px;line-height:2.50552px;font-family:Helvetica;-inkscape-font-specification:'Helvetica, Normal';text-align:end;letter-spacing:0px;word-spacing:0px;writing-mode:lr-tb;text-anchor:end;fill:none;stroke:#000000;stroke-width:0.264583px;stroke-linecap:butt;stroke-linejoin:miter;stroke-opacity:1"
       x="54.47636"
       y="55.456253"
       id="text441"><tspan
         sodipodi:role="line"
         id="tspan439"
         style="font-style:normal;font-variant:normal;font-weight:normal;font-stretch:normal;font-size:5.29167px;font-family:Quicksand;-inkscape-font-specification:Quicksand;font-variant-ligatures:normal;font-variant-caps:normal;font-variant-numeric:normal;font-variant-east-asian:normal;fill:#000000;stroke-width:0.264583px"
         x="54.47636"
         y="55.456253">AOC Bonne Anne</tspan></text>
    <text
       xml:space="preserve"
       style="font-size:5.29167px;line-height:9.01987px;font-family:Helvetica;-inkscape-font-specification:'Helvetica, Normal';text-align:end;letter-spacing:0px;word-spacing:0px;writing-mode:lr-tb;text-anchor:end;fill:#000000;stroke:#000000;stroke-width:0.264583px;stroke-linecap:butt;stroke-linejoin:miter;stroke-opacity:1"
       x="42.427231"
       y="60.301258"
       id="text445"><tspan
         sodipodi:role="line"
         id="tspan443"
         style="font-style:normal;font-variant:normal;font-weight:normal;font-stretch:normal;font-size:5.29167px;font-family:Quicksand;-inkscape-font-specification:Quicksand;fill:#000000;stroke:#000000;stroke-width:0.264583px"
         x="42.427231"
         y="60.301258"> - 2024 -</tspan></text>
  </g>
</svg>
