<?xml version="1.0" encoding="UTF-8" standalone="no"?>
<!-- Generator: Adobe Illustrator 28.1.0, SVG Export Plug-In . SVG Version: 6.00 Build 0)  -->

<svg
   version="1.1"
   x="0px"
   y="0px"
   viewBox="0 0 241.88975 241.88975"
   xml:space="preserve"
   id="svg63"
   sodipodi:docname="recto_design.svg"
   width="64mm"
   height="64mm"
   inkscape:version="1.2.2 (b0a8486541, 2022-12-01)"
   xmlns:inkscape="http://www.inkscape.org/namespaces/inkscape"
   xmlns:sodipodi="http://sodipodi.sourceforge.net/DTD/sodipodi-0.dtd"
   xmlns="http://www.w3.org/2000/svg"
   xmlns:svg="http://www.w3.org/2000/svg"><defs
   id="defs67"><rect
   x="122.45609"
   y="140.24768"
   width="88.4533"
   height="85.537956"
   id="rect1218" />

</defs><sodipodi:namedview
   id="namedview65"
   pagecolor="#ffffff"
   bordercolor="#000000"
   borderopacity="0.25"
   inkscape:showpageshadow="2"
   inkscape:pageopacity="0.0"
   inkscape:pagecheckerboard="0"
   inkscape:deskcolor="#d1d1d1"
   showgrid="false"
   showguides="true"
   inkscape:zoom="6.8510356"
   inkscape:cx="56.195883"
   inkscape:cy="216.90151"
   inkscape:window-width="1624"
   inkscape:window-height="1011"
   inkscape:window-x="0"
   inkscape:window-y="32"
   inkscape:window-maximized="1"
   inkscape:current-layer="svg63"
   inkscape:document-units="mm"><sodipodi:guide
     position="120.2246,213.90527"
     orientation="1,0"
     id="guide1303"
     inkscape:locked="false" /><sodipodi:guide
     position="13.21343,167.78913"
     orientation="1,0"
     id="guide1305"
     inkscape:locked="false" /><sodipodi:guide
     position="228.31913,41.627372"
     orientation="1,0"
     id="guide1307"
     inkscape:locked="false" /><sodipodi:guide
     position="87.669859,8.9009241"
     orientation="0,-1"
     id="guide15140"
     inkscape:locked="false" /></sodipodi:namedview>
<style
   type="text/css"
   id="style2">
	.st0{opacity:0.32;}
	.st1{fill:#72735D;}
	.st2{fill:#010202;}
	.st3{fill:none;stroke:#000000;stroke-miterlimit:10;}
	.st4{fill:none;stroke:#000000;stroke-width:7;stroke-miterlimit:10;}
	.st5{fill:#FFFFFF;}
</style>



<rect
   x="-49.078274"
   y="-33.292583"
   class="st1"
   width="336.6601"
   height="309.87756"
   id="rect5"
   inkscape:label="fond"
   style="stroke-width:0.9636" /><g
   id="Calque_1"
   transform="matrix(0.95216236,0,0,0.94289906,-268.76348,-182.0463)"
   inkscape:label="logo">
	<g
   id="g18"
   transform="translate(-6.5241461,-71.328048)">





	</g>
	<g
   id="g22">
		<path
   d="m 452.42,364.58 c -17.85,0 -32.37,-14.52 -32.37,-32.37 0,-17.85 14.52,-32.37 32.37,-32.37 17.85,0 32.37,14.52 32.37,32.37 0,17.85 -14.52,32.37 -32.37,32.37 z m 0,-57.73 c -13.99,0 -25.37,11.38 -25.37,25.37 0,13.99 11.38,25.37 25.37,25.37 13.99,0 25.37,-11.38 25.37,-25.37 0,-13.99 -11.38,-25.37 -25.37,-25.37 z"
   id="path20" />
	</g>
	<g
   id="g26">
		<path
   class="st5"
   d="m 412.37,378.9 h 7.64 v 8.22 h -7.64 v 67.64347 h -8.31 V 387.12 h -30.54 v -0.19 l -0.29,-0.1 15.46,-38.66 0.29,0.1 v -0.29 h 7.64 v 0.29 l 0.29,0.1 -12.18,30.54 h 19.33 V 240.94447 h 8.31 z"
   id="path24"
   sodipodi:nodetypes="ccccccccccccccccccccc" />
	</g>
	<g
   id="g34">
		<path
   d="m 382.65,408.47 v 1.74 h -8.13 v -0.06 l -0.04,-0.04 6.45,-10.48 c -0.02,-1.27 -1.07,-2.33 -2.35,-2.33 -1.32,0 -2.39,1.07 -2.39,2.37 h -0.06 v 0.04 h -1.62 v -0.04 h -0.04 c 0,-2.25 1.84,-4.09 4.11,-4.09 2.23,0 4.09,1.84 4.09,4.09 l -0.02,0.02 -5.42,8.78 z"
   id="path28" />
		<path
   d="m 390.8,396.17 0.26,-0.57 0.04,0.02 v -0.04 h 1.6 v 0.04 l 0.06,0.04 -0.75,1.66 c 0.47,0.67 0.75,1.48 0.75,2.35 v 6.45 c 0,2.27 -1.82,4.09 -4.09,4.09 -0.77,0 -1.5,-0.22 -2.1,-0.59 l -0.24,0.55 -0.06,-0.02 v 0.06 h -1.62 v -0.06 l -0.06,-0.02 0.75,-1.66 c -0.47,-0.65 -0.73,-1.44 -0.75,-2.29 v -6.51 c 0,-2.25 1.82,-4.09 4.09,-4.09 0.79,0.01 1.51,0.23 2.12,0.59 z m -4.47,3.44 v 6.51 0.12 l 3.76,-8.48 c -0.38,-0.28 -0.89,-0.46 -1.42,-0.46 -1.27,0.01 -2.32,1.04 -2.34,2.31 z m 2.35,8.86 c 1.29,0 2.35,-1.01 2.39,-2.29 v -6.51 c 0,-0.06 -0.02,-0.12 -0.02,-0.16 l -3.76,8.5 c 0.37,0.3 0.86,0.46 1.39,0.46 z"
   id="path30" />
		<path
   d="m 402.88,408.47 v 1.74 h -8.13 v -0.06 l -0.04,-0.04 6.45,-10.48 c -0.02,-1.27 -1.07,-2.33 -2.35,-2.33 -1.32,0 -2.39,1.07 -2.39,2.37 h -0.06 v 0.04 h -1.62 v -0.04 h -0.04 c 0,-2.25 1.84,-4.09 4.11,-4.09 2.23,0 4.09,1.84 4.09,4.09 l -0.02,0.02 -5.42,8.78 z"
   id="path32" />
	</g>
	<g
   id="g38"
   transform="translate(-0.1142908,0.66000824)">
		<path
   class="st5"
   d="m 397.05436,338.94146 v 8.8 h -41.14 v -0.31 l -0.21,-0.21 32.65,-53.01 c -0.1,-6.45 -5.43,-11.77 -11.87,-11.77 -6.65,0 -12.08,5.42 -12.08,11.97 h -0.31 v 0.21 h -8.19 v -0.21 h -0.21 c 0,-11.36 9.31,-20.67 20.78,-20.67 11.26,0 20.67,9.32 20.67,20.67 l -0.1,0.1 -27.43,44.42 h 27.44 z"
   id="path36" />
	</g>

	<g
   id="g52">
		<path
   d="m 432.99,294.39 v 2.75 h -12.88 v -0.1 l -0.06,-0.06 10.22,-16.59 c -0.03,-2.02 -1.7,-3.68 -3.72,-3.68 -2.08,0 -3.78,1.7 -3.78,3.75 h -0.1 v 0.06 h -2.56 v -0.06 h -0.06 c 0,-3.55 2.91,-6.47 6.5,-6.47 3.52,0 6.47,2.92 6.47,6.47 l -0.03,0.03 -8.58,13.9 z"
   id="path44" />
		<path
   d="m 445.89,274.91 0.42,-0.9 0.06,0.03 v -0.06 h 2.53 v 0.06 l 0.1,0.06 -1.18,2.63 c 0.74,1.06 1.18,2.34 1.18,3.71 v 10.22 c 0,3.59 -2.88,6.47 -6.47,6.47 -1.22,0 -2.37,-0.35 -3.33,-0.93 l -0.38,0.86 -0.1,-0.03 v 0.1 h -2.56 v -0.1 l -0.1,-0.03 1.18,-2.63 c -0.74,-1.02 -1.15,-2.27 -1.18,-3.62 v -10.31 c 0,-3.55 2.88,-6.47 6.47,-6.47 1.25,0.01 2.4,0.37 3.36,0.94 z m -7.07,5.45 v 10.31 0.19 l 5.96,-13.42 c -0.61,-0.45 -1.41,-0.74 -2.24,-0.74 -2.03,0.01 -3.69,1.64 -3.72,3.66 z m 3.71,14.03 c 2.05,0 3.72,-1.6 3.78,-3.62 v -10.31 c 0,-0.1 -0.03,-0.19 -0.03,-0.26 l -5.96,13.45 c 0.61,0.48 1.38,0.74 2.21,0.74 z"
   id="path46" />
		<path
   d="m 465.01,294.39 v 2.75 h -12.88 v -0.1 l -0.06,-0.06 10.22,-16.59 c -0.03,-2.02 -1.7,-3.68 -3.72,-3.68 -2.08,0 -3.78,1.7 -3.78,3.75 h -0.1 v 0.06 h -2.56 v -0.06 h -0.06 c 0,-3.55 2.91,-6.47 6.5,-6.47 3.52,0 6.47,2.92 6.47,6.47 l -0.03,0.03 -8.58,13.9 z"
   id="path48" />
		<path
   d="m 479.77,286.76 h 2.53 v 2.72 h -2.53 v 7.66 h -2.75 v -7.66 H 466.9 v -0.06 l -0.1,-0.03 5.12,-12.81 0.1,0.03 v -0.1 h 2.53 v 0.1 l 0.1,0.03 -4.04,10.12 h 6.41 v -12.78 h 2.75 z"
   id="path50" />
	</g>
	<g
   id="g60"
   transform="translate(-1.6770299,-12.50306)">
		<path
   class="st5"
   d="m 425.08,259.72118 h -3.95 c 0.01,0.76 0.63,1.39 1.4,1.41 h 2.55 v 1.07 h -2.55 c -1.35,-0.02 -2.44,-1.13 -2.47,-2.47 v -1.07 c 0.02,-1.35 1.12,-2.47 2.51,-2.47 h 0.13 c -1.18,-0.2 -2.09,-1.22 -2.09,-2.47 v -0.04 h 1.06 v 0.04 c 0,0.79 0.64,1.44 1.45,1.44 h 0.02 v 1.09 c 1.12,0.26 1.94,1.25 1.94,2.44 z m -1.07,-1.06 c -0.01,-0.78 -0.64,-1.42 -1.44,-1.42 -0.8,0 -1.43,0.63 -1.44,1.42 z"
   id="path54" />
		<path
   class="st5"
   d="m 427.5,256.66118 c 0.42,-0.3 0.92,-0.47 1.47,-0.47 0.79,0 1.51,0.39 1.97,0.97 0.46,-0.58 1.17,-0.97 1.97,-0.97 1.38,0 2.5,1.11 2.51,2.47 v 3.54 h -1.06 v -3.5 -0.04 c -0.02,-0.78 -0.66,-1.42 -1.45,-1.42 -0.79,0 -1.43,0.63 -1.44,1.42 v 0.04 3.5 h -1.07 v -3.5 c 0,-0.81 -0.64,-1.45 -1.44,-1.45 -0.81,0 -1.47,0.65 -1.47,1.45 v 3.5 h -1.06 v -6.01 h 1.06 v 0.47 z"
   id="path56" />
		<path
   class="st5"
   d="m 441.72,258.69118 v 1.03 h -3.95 c 0.01,0.76 0.63,1.39 1.4,1.41 h 2.55 v 1.07 h -2.55 c -1.35,-0.02 -2.44,-1.13 -2.47,-2.47 v -1.07 c 0.02,-1.35 1.12,-2.47 2.51,-2.47 1.39,-0.01 2.51,1.11 2.51,2.5 z m -3.95,-0.03 h 2.88 c -0.01,-0.78 -0.65,-1.42 -1.44,-1.42 -0.79,0 -1.43,0.64 -1.44,1.42 z"
   id="path58" />
	</g>
</g>

<text
   xml:space="preserve"
   id="text3431"
   style="font-style:normal;font-variant:normal;font-weight:normal;font-stretch:normal;font-size:22.94920154px;line-height:43.3686px;font-family:Quicksand;-inkscape-font-specification:Quicksand;text-align:center;letter-spacing:0px;word-spacing:0px;writing-mode:lr-tb;text-anchor:middle;fill:#000000;stroke:none;stroke-width:0.264583px;stroke-linecap:butt;stroke-linejoin:miter;stroke-opacity:1"
   inkscape:label="CUVEE"
   x="120.89898"
   y="28.856064"><tspan
     sodipodi:role="line"
     id="tspan52731"
     x="120.89898"
     y="28.856064"
     style="font-style:normal;font-variant:normal;font-weight:normal;font-stretch:normal;font-family:'Latin Modern Mono Light Cond';-inkscape-font-specification:'Latin Modern Mono Light Cond';fill:#ffffff;font-size:22.94920154px">Cuvée %CUVEE%</tspan></text>



       <text
   xml:space="preserve"
   style="font-style:normal;font-variant:normal;font-weight:normal;font-stretch:normal;font-size:12px;font-family:'Latin Modern Mono Light Cond';-inkscape-font-specification:'Latin Modern Mono Light Cond, Normal';font-variant-ligatures:normal;font-variant-caps:normal;font-variant-numeric:normal;font-variant-east-asian:normal;text-align:center;text-anchor:middle;fill:#ffffff;stroke-width:0.830059"
   x="40.726112"
   y="243.43381"
   id="text1232"
   inkscape:label="domaine"
   transform="scale(1.0515113,0.95101212)"><tspan
     sodipodi:role="line"
     id="tspan1230"
     x="40.726112"
     y="243.43381"
     style="font-style:normal;font-variant:normal;font-weight:normal;font-stretch:normal;font-size:12px;font-family:'Latin Modern Mono Light Cond';-inkscape-font-specification:'Latin Modern Mono Light Cond, Normal';font-variant-ligatures:normal;font-variant-caps:normal;font-variant-numeric:normal;font-variant-east-asian:normal;stroke-width:0.830059">Domaine 24ème</tspan></text><text
   xml:space="preserve"
   style="font-style:normal;font-variant:normal;font-weight:normal;font-stretch:normal;font-size:11.3333px;font-family:'Latin Modern Mono Light Cond';-inkscape-font-specification:'Latin Modern Mono Light Cond, Normal';font-variant-ligatures:normal;font-variant-caps:normal;font-variant-numeric:normal;font-variant-east-asian:normal;text-align:center;text-anchor:middle;fill:#ffffff;stroke-width:0.830059"
   x="169.27953"
   y="243.89888"
   id="text1232-6"
   inkscape:label="domaine"
   transform="scale(1.0515113,0.95101212)"><tspan
     sodipodi:role="line"
     id="tspan1230-2"
     x="169.27953"
     y="243.89888"
     style="font-style:normal;font-variant:normal;font-weight:normal;font-stretch:normal;font-size:11.3333px;font-family:'Latin Modern Mono Light Cond';-inkscape-font-specification:'Latin Modern Mono Light Cond, Normal';font-variant-ligatures:normal;font-variant-caps:normal;font-variant-numeric:normal;font-variant-east-asian:normal;stroke-width:0.830059">Voeux d'Origines Libérés</tspan></text></svg>
