<!-- Created with qrencode 4.1.1 (https://fukuchi.org/works/qrencode/index.html) -->
<svg width="5.08cm" height="5.08cm" viewBox="0 0 25 25" preserveAspectRatio="none" version="1.1" xmlns="http://www.w3.org/2000/svg">
	<g id="QRcode">
		<rect x="0" y="0" width="25" height="25" fill="#ffffff"/>
		<path style="stroke:#000000" transform="translate(0,0.5)" d="M0,0h1M1,0h1M2,0h1M3,0h1M4,0h1M5,0h1M6,0h1M9,0h1M12,0h1M14,0h1M15,0h1M16,0h1M18,0h1M19,0h1M20,0h1M21,0h1M22,0h1M23,0h1M24,0h1M0,1h1M6,1h1M8,1h1M11,1h1M12,1h1M15,1h1M16,1h1M18,1h1M24,1h1M0,2h1M2,2h1M3,2h1M4,2h1M6,2h1M8,2h1M9,2h1M10,2h1M11,2h1M12,2h1M15,2h1M18,2h1M20,2h1M21,2h1M22,2h1M24,2h1M0,3h1M2,3h1M3,3h1M4,3h1M6,3h1M9,3h1M10,3h1M11,3h1M13,3h1M18,3h1M20,3h1M21,3h1M22,3h1M24,3h1M0,4h1M2,4h1M3,4h1M4,4h1M6,4h1M8,4h1M14,4h1M15,4h1M16,4h1M18,4h1M20,4h1M21,4h1M22,4h1M24,4h1M0,5h1M6,5h1M8,5h1M9,5h1M11,5h1M13,5h1M15,5h1M16,5h1M18,5h1M24,5h1M0,6h1M1,6h1M2,6h1M3,6h1M4,6h1M5,6h1M6,6h1M8,6h1M10,6h1M12,6h1M14,6h1M16,6h1M18,6h1M19,6h1M20,6h1M21,6h1M22,6h1M23,6h1M24,6h1M8,7h1M9,7h1M12,7h1M14,7h1M15,7h1M16,7h1M0,8h1M1,8h1M3,8h1M6,8h1M7,8h1M10,8h1M12,8h1M13,8h1M14,8h1M15,8h1M16,8h1M18,8h1M19,8h1M20,8h1M22,8h1M23,8h1M2,9h1M5,9h1M8,9h1M10,9h1M11,9h1M13,9h1M16,9h1M18,9h1M24,9h1M0,10h1M2,10h1M3,10h1M5,10h1M6,10h1M7,10h1M9,10h1M10,10h1M12,10h1M14,10h1M17,10h1M18,10h1M19,10h1M23,10h1M24,10h1M1,11h1M2,11h1M3,11h1M4,11h1M7,11h1M8,11h1M13,11h1M14,11h1M16,11h1M17,11h1M1,12h1M2,12h1M6,12h1M12,12h1M14,12h1M17,12h1M18,12h1M21,12h1M23,12h1M24,12h1M1,13h1M2,13h1M3,13h1M10,13h1M11,13h1M18,13h1M19,13h1M21,13h1M22,13h1M24,13h1M0,14h1M4,14h1M6,14h1M12,14h1M13,14h1M14,14h1M16,14h1M18,14h1M19,14h1M20,14h1M22,14h1M24,14h1M1,15h1M3,15h1M9,15h1M10,15h1M11,15h1M13,15h1M16,15h1M17,15h1M20,15h1M23,15h1M0,16h1M1,16h1M2,16h1M4,16h1M5,16h1M6,16h1M7,16h1M8,16h1M12,16h1M13,16h1M14,16h1M15,16h1M16,16h1M17,16h1M18,16h1M19,16h1M20,16h1M21,16h1M22,16h1M8,17h1M10,17h1M13,17h1M14,17h1M15,17h1M16,17h1M20,17h1M21,17h1M24,17h1M0,18h1M1,18h1M2,18h1M3,18h1M4,18h1M5,18h1M6,18h1M8,18h1M10,18h1M12,18h1M14,18h1M15,18h1M16,18h1M18,18h1M20,18h1M21,18h1M23,18h1M24,18h1M0,19h1M6,19h1M11,19h1M15,19h1M16,19h1M20,19h1M21,19h1M22,19h1M0,20h1M2,20h1M3,20h1M4,20h1M6,20h1M11,20h1M12,20h1M16,20h1M17,20h1M18,20h1M19,20h1M20,20h1M21,20h1M23,20h1M24,20h1M0,21h1M2,21h1M3,21h1M4,21h1M6,21h1M8,21h1M9,21h1M10,21h1M11,21h1M13,21h1M19,21h1M20,21h1M21,21h1M22,21h1M0,22h1M2,22h1M3,22h1M4,22h1M6,22h1M9,22h1M12,22h1M13,22h1M14,22h1M16,22h1M17,22h1M19,22h1M20,22h1M22,22h1M24,22h1M0,23h1M6,23h1M8,23h1M9,23h1M10,23h1M13,23h1M14,23h1M15,23h1M16,23h1M21,23h1M0,24h1M1,24h1M2,24h1M3,24h1M4,24h1M5,24h1M6,24h1M8,24h1M9,24h1M10,24h1M12,24h1M14,24h1M15,24h1M16,24h1M19,24h1M23,24h1M24,24h1"/>
	</g>
</svg>
