<?xml version="1.0" encoding="UTF-8" standalone="no"?>
<!-- Created with Inkscape (http://www.inkscape.org/) -->

<svg
   width="100mm"
   height="100mm"
   viewBox="0 0 100 100"
   version="1.1"
   id="svg398"
   inkscape:version="1.2.2 (b0a8486541, 2022-12-01)"
   sodipodi:docname="logo.svg"
   xmlns:inkscape="http://www.inkscape.org/namespaces/inkscape"
   xmlns:sodipodi="http://sodipodi.sourceforge.net/DTD/sodipodi-0.dtd"
   xmlns="http://www.w3.org/2000/svg"
   xmlns:svg="http://www.w3.org/2000/svg">
  <sodipodi:namedview
     id="namedview400"
     pagecolor="#ffffff"
     bordercolor="#cccccc"
     borderopacity="1"
     inkscape:showpageshadow="0"
     inkscape:pageopacity="1"
     inkscape:pagecheckerboard="0"
     inkscape:deskcolor="#d1d1d1"
     inkscape:document-units="mm"
     showgrid="false"
     showguides="true"
     inkscape:zoom="1"
     inkscape:cx="373"
     inkscape:cy="181"
     inkscape:window-width="1920"
     inkscape:window-height="1011"
     inkscape:window-x="0"
     inkscape:window-y="0"
     inkscape:window-maximized="1"
     inkscape:current-layer="layer1" />
  <defs
     id="defs395" />
  <g
     inkscape:label="NUTRI.VIN"
     inkscape:groupmode="layer"
     id="layer1">
    <g
       id="QRcode"
       transform="matrix(3.8460981,0,0,3.8461305,1.9230491,1.9230653)"
       style="opacity:0.54;fill:none;fill-opacity:1;stroke:#208060;stroke-opacity:1">
      <path
         style="fill:none;fill-opacity:1;stroke:#208060;stroke-opacity:1"
         transform="translate(0,0.5)"
         d="m 0,0 h 1 m 0,0 h 1 m 0,0 h 1 m 0,0 h 1 m 0,0 h 1 m 0,0 h 1 m 0,0 h 1 m 1,0 h 1 m 5,0 h 1 m 0,0 h 1 m 2,0 h 1 m 0,0 h 1 m 0,0 h 1 m 0,0 h 1 m 0,0 h 1 m 0,0 h 1 m 0,0 h 1 M 0,1 h 1 m 5,0 h 1 m 1,0 h 1 m 2,0 h 1 m 0,0 h 1 m 5,0 h 1 m 5,0 h 1 M 0,2 h 1 m 1,0 h 1 m 0,0 h 1 m 0,0 h 1 m 1,0 h 1 m 1,0 h 1 m 0,0 h 1 m 2,0 h 1 m 1,0 h 1 m 3,0 h 1 m 1,0 h 1 m 0,0 h 1 m 0,0 h 1 m 1,0 h 1 M 0,3 h 1 m 1,0 h 1 m 0,0 h 1 m 0,0 h 1 m 1,0 h 1 m 1,0 h 1 m 0,0 h 1 m 0,0 h 1 m 1,0 h 1 m 3,0 h 1 m 1,0 h 1 m 1,0 h 1 m 0,0 h 1 m 0,0 h 1 m 1,0 h 1 M 0,4 h 1 m 1,0 h 1 m 0,0 h 1 m 0,0 h 1 m 1,0 h 1 m 2,0 h 1 m 0,0 h 1 m 1,0 h 1 m 1,0 h 1 m 0,0 h 1 m 0,0 h 1 m 1,0 h 1 m 1,0 h 1 m 0,0 h 1 m 0,0 h 1 m 1,0 h 1 M 0,5 h 1 m 5,0 h 1 m 1,0 h 1 m 0,0 h 1 m 0,0 h 1 m 5,0 h 1 m 1,0 h 1 m 5,0 h 1 M 0,6 h 1 m 0,0 h 1 m 0,0 h 1 m 0,0 h 1 m 0,0 h 1 m 0,0 h 1 m 0,0 h 1 m 1,0 h 1 m 1,0 h 1 m 1,0 h 1 m 1,0 h 1 m 1,0 h 1 m 1,0 h 1 m 0,0 h 1 m 0,0 h 1 m 0,0 h 1 m 0,0 h 1 m 0,0 h 1 m 0,0 h 1 M 10,7 h 1 m 0,0 h 1 m 1,0 h 1 m 1,0 h 1 m 0,0 h 1 M 0,8 h 1 m 0,0 h 1 m 2,0 h 1 m 0,0 h 1 m 0,0 h 1 m 3,0 h 1 m 1,0 h 1 m 0,0 h 1 m 1,0 h 1 m 3,0 h 1 m 1,0 h 1 m 0,0 h 1 m 0,0 h 1 m 0,0 h 1 M 0,9 h 1 m 0,0 h 1 m 2,0 h 1 m 2,0 h 1 m 5,0 h 1 m 0,0 h 1 m 0,0 h 1 m 0,0 h 1 m 0,0 h 1 m 2,0 h 1 m 0,0 h 1 m 1,0 h 1 M 3,10 h 1 m 0,0 h 1 m 1,0 h 1 m 0,0 h 1 m 0,0 h 1 m 0,0 h 1 m 0,0 h 1 m 4,0 h 1 m 0,0 h 1 m 3,0 h 1 m 0,0 h 1 m 0,0 h 1 M 1,11 h 1 m 1,0 h 1 m 0,0 h 1 m 2,0 h 1 m 0,0 h 1 m 0,0 h 1 m 2,0 h 1 m 1,0 h 1 m 4,0 h 1 m 0,0 h 1 m 1,0 h 1 m 0,0 h 1 M 0,12 h 1 m 1,0 h 1 m 3,0 h 1 m 0,0 h 1 m 3,0 h 1 m 1,0 h 1 m 0,0 h 1 m 1,0 h 1 m 0,0 h 1 m 0,0 h 1 m 0,0 h 1 m 1,0 h 1 m 0,0 h 1 m 0,0 h 1 m 0,0 h 1 M 0,13 h 1 m 1,0 h 1 m 1,0 h 1 m 0,0 h 1 m 4,0 h 1 m 1,0 h 1 m 2,0 h 1 m 0,0 h 1 m 0,0 h 1 m 2,0 h 1 m 2,0 h 1 M 2,14 h 1 m 1,0 h 1 m 1,0 h 1 m 0,0 h 1 m 3,0 h 1 m 0,0 h 1 m 0,0 h 1 m 0,0 h 1 m 0,0 h 1 m 0,0 h 1 m 2,0 h 1 m 0,0 h 1 m 0,0 h 1 m 0,0 h 1 M 3,15 h 1 m 3,0 h 1 m 1,0 h 1 m 1,0 h 1 m 1,0 h 1 m 3,0 h 1 m 1,0 h 1 m 0,0 h 1 m 1,0 h 1 m 0,0 h 1 M 0,16 h 1 m 0,0 h 1 m 2,0 h 1 m 0,0 h 1 m 0,0 h 1 m 1,0 h 1 m 3,0 h 1 m 0,0 h 1 m 1,0 h 1 m 0,0 h 1 m 0,0 h 1 m 0,0 h 1 m 0,0 h 1 m 0,0 h 1 m 0,0 h 1 m 0,0 h 1 M 8,17 h 1 m 1,0 h 1 m 2,0 h 1 m 0,0 h 1 m 1,0 h 1 m 3,0 h 1 M 0,18 h 1 m 0,0 h 1 m 0,0 h 1 m 0,0 h 1 m 0,0 h 1 m 0,0 h 1 m 0,0 h 1 m 2,0 h 1 m 0,0 h 1 m 5,0 h 1 m 1,0 h 1 m 1,0 h 1 M 0,19 h 1 m 5,0 h 1 m 1,0 h 1 m 3,0 h 1 m 1,0 h 1 m 0,0 h 1 m 0,0 h 1 m 3,0 h 1 m 0,0 h 1 m 0,0 h 1 m 0,0 h 1 m 0,0 h 1 M 0,20 h 1 m 1,0 h 1 m 0,0 h 1 m 0,0 h 1 m 1,0 h 1 m 1,0 h 1 m 0,0 h 1 m 1,0 h 1 m 1,0 h 1 m 0,0 h 1 m 1,0 h 1 m 0,0 h 1 m 0,0 h 1 m 0,0 h 1 m 0,0 h 1 m 0,0 h 1 m 0,0 h 1 m 1,0 h 1 M 0,21 h 1 m 1,0 h 1 m 0,0 h 1 m 0,0 h 1 m 1,0 h 1 m 2,0 h 1 m 0,0 h 1 m 1,0 h 1 m 2,0 h 1 m 1,0 h 1 m 0,0 h 1 m 0,0 h 1 m 2,0 h 1 m 0,0 h 1 m 0,0 h 1 M 0,22 h 1 m 1,0 h 1 m 0,0 h 1 m 0,0 h 1 m 1,0 h 1 m 4,0 h 1 m 0,0 h 1 m 0,0 h 1 m 0,0 h 1 m 0,0 h 1 m 2,0 h 1 m 2,0 h 1 m 1,0 h 1 M 0,23 h 1 m 5,0 h 1 m 1,0 h 1 m 0,0 h 1 m 1,0 h 1 m 1,0 h 1 m 1,0 h 1 m 1,0 h 1 m 1,0 h 1 m 0,0 h 1 m 0,0 h 1 m 0,0 h 1 m 0,0 h 1 M 0,24 h 1 m 0,0 h 1 m 0,0 h 1 m 0,0 h 1 m 0,0 h 1 m 0,0 h 1 m 0,0 h 1 m 1,0 h 1 m 3,0 h 1 m 0,0 h 1 m 1,0 h 1 m 6,0 h 1 m 0,0 h 1 m 0,0 h 1"
         id="path260" />
    </g>
    <g
       id="g1457"
       inkscape:label="transparence"
       style="opacity:0.88;stroke:none"
       transform="matrix(1.8921383,0,0,1.9006861,-183.20514,-155.32814)">
      <rect
         style="fill:#ffffff;fill-opacity:1;stroke:none;stroke-width:0.173072;stroke-linecap:round;stroke-linejoin:bevel;stroke-opacity:1"
         id="rect1448"
         width="46.753983"
         height="16.187838"
         x="99.873848"
         y="84.757889"
         inkscape:label="haut" />
      <rect
         style="fill:#ffffff;fill-opacity:1;stroke:none;stroke-width:0.16535;stroke-linecap:round;stroke-linejoin:bevel;stroke-opacity:1"
         id="rect1445"
         width="46.753983"
         height="22.277504"
         x="99.873848"
         y="109.03226"
         inkscape:label="bas" />
      <rect
         style="display:inline;fill:#ffffff;fill-opacity:1;stroke:none;stroke-width:0.216382;stroke-linecap:round;stroke-linejoin:bevel;stroke-opacity:1"
         id="rect1451"
         width="10.160187"
         height="8.4089365"
         x="118.17338"
         y="100.82451"
         inkscape:label="milieu" />
    </g>
    <g
       id="g1391"
       inkscape:label="text"
       style="display:inline"
       transform="matrix(1.8921383,0,0,1.8939752,-183.20514,-154.75043)">
      <text
         xml:space="preserve"
         style="font-size:14.6886px;line-height:20.8185px;font-family:'Latin Modern Math';-inkscape-font-specification:'Latin Modern Math';text-align:center;writing-mode:lr-tb;text-anchor:middle;fill:#277767;fill-opacity:1;stroke:none;stroke-width:0.147812;stroke-linecap:round;stroke-linejoin:bevel;stroke-opacity:0.941176"
         x="139.91171"
         y="87.207489"
         id="text594"
         transform="scale(0.88091964,1.1351773)"
         inkscape:label="NUTRI"><tspan
           sodipodi:role="line"
           id="tspan592"
           style="font-style:normal;font-variant:normal;font-weight:bold;font-stretch:normal;font-size:14.6886px;font-family:sans-serif;-inkscape-font-specification:'sans-serif Bold';fill:#277767;fill-opacity:1;stroke:none;stroke-width:0.147812"
           x="139.91171"
           y="87.207489">NUTRI</tspan></text>
      <ellipse
         style="fill:#ffcc00;fill-opacity:1;stroke:none;stroke-width:0.234432;stroke-linecap:round;stroke-linejoin:bevel;stroke-opacity:0.941176"
         id="path750"
         cx="123.24781"
         cy="104.662"
         rx="2.6209209"
         ry="2.4022222"
         inkscape:label="point" />
      <text
         xml:space="preserve"
         style="font-style:normal;font-variant:normal;font-weight:bold;font-stretch:normal;font-size:23.8073px;line-height:16.8713px;font-family:sans-serif;-inkscape-font-specification:'sans-serif Bold';text-align:center;writing-mode:lr-tb;text-anchor:middle;fill:#277767;fill-opacity:1;stroke:none;stroke-width:0.171124;stroke-linecap:round;stroke-linejoin:bevel;stroke-opacity:0.941176"
         x="130.77332"
         y="122.83778"
         id="text754"
         transform="scale(0.94782399,1.0550482)"
         inkscape:label="VIN"><tspan
           sodipodi:role="line"
           id="tspan752"
           style="font-size:23.8073px;fill:#277767;fill-opacity:1;stroke:none;stroke-width:0.171124"
           x="130.77332"
           y="122.83778">VIN</tspan></text>
    </g>
  </g>
</svg>
