<?xml version="1.0" encoding="UTF-8" standalone="no"?>
<!-- Created with Inkscape (http://www.inkscape.org/) -->

<svg
   width="50mm"
   height="50mm"
   viewBox="0 0 50 50"
   version="1.1"
   id="svg1"
   xml:space="preserve"
   inkscape:version="1.2.2 (b0a8486541, 2022-12-01)"
   sodipodi:docname="verso_fetes.svg"
   xmlns:inkscape="http://www.inkscape.org/namespaces/inkscape"
   xmlns:sodipodi="http://sodipodi.sourceforge.net/DTD/sodipodi-0.dtd"
   xmlns="http://www.w3.org/2000/svg"
   xmlns:svg="http://www.w3.org/2000/svg"><sodipodi:namedview
     id="namedview1"
     pagecolor="#ffffff"
     bordercolor="#666666"
     borderopacity="1.0"
     inkscape:showpageshadow="2"
     inkscape:pageopacity="0.0"
     inkscape:pagecheckerboard="0"
     inkscape:deskcolor="#d1d1d1"
     inkscape:document-units="mm"
     inkscape:zoom="3.579874"
     inkscape:cx="78.773722"
     inkscape:cy="49.443081"
     inkscape:window-width="1624"
     inkscape:window-height="1011"
     inkscape:window-x="0"
     inkscape:window-y="32"
     inkscape:window-maximized="1"
     inkscape:current-layer="layer3"
     showgrid="false"
     showguides="false" /><defs
     id="defs1"><rect
       x="43.104309"
       y="78.993553"
       width="375.68048"
       height="160.76846"
       id="rect5" /><rect
       x="29.823702"
       y="106.74288"
       width="424.85135"
       height="28.238562"
       id="rect4" /><rect
       x="123.97382"
       y="25.924829"
       width="345.48266"
       height="49.056341"
       id="rect3" /><rect
       x="68.271973"
       y="281.48441"
       width="251.15109"
       height="81.845618"
       id="rect2" /><rect
       x="43.104309"
       y="78.993553"
       width="375.68048"
       height="160.76846"
       id="rect5-7" /></defs><g
     inkscape:label="Calque 1"
     inkscape:groupmode="layer"
     id="layer1"><rect
       style="font-variation-settings:normal;opacity:1;vector-effect:none;fill:#33497b;fill-opacity:1;fill-rule:evenodd;stroke:none;stroke-width:0;stroke-linecap:butt;stroke-linejoin:miter;stroke-miterlimit:4;stroke-dasharray:none;stroke-dashoffset:0;stroke-opacity:1;-inkscape-stroke:none;stop-color:#000000;stop-opacity:1"
       id="rect1"
       width="56.711903"
       height="55.735783"
       x="-3.0258572"
       y="-2.61853" /></g><g
     inkscape:groupmode="layer"
     id="layer3"
     inkscape:label="Calque 2"><text
   xml:space="preserve"
   transform="matrix(0.13339012,0,0,0.13339012,4.0280851,5.7786713)"
   id="text1"
   style="font-style:normal;font-weight:normal;font-size:11.9012px;line-height:1.25;font-family:sans-serif;letter-spacing:0px;word-spacing:0px;white-space:pre;shape-inside:url(#rect2);display:inline;fill:#000000;fill-opacity:1;stroke:none"
   inkscape:label="product of france"><tspan
     x="68.271484"
     y="292.01415"
     id="tspan10727"><tspan
       style="font-family:Loma;-inkscape-font-specification:Loma;fill:#cfbea1"
       id="tspan10725">Mis en bouteille dans le 18ème
</tspan></tspan><tspan
     x="68.271484"
     y="306.89064"
     id="tspan10731"><tspan
       style="font-family:Loma;-inkscape-font-specification:Loma;fill:#cfbea1"
       id="tspan10729">Produit de France
</tspan></tspan><tspan
     x="68.271484"
     y="321.76714"
     id="tspan10735"><tspan
       style="font-family:Loma;-inkscape-font-specification:Loma;fill:#cfbea1"
       id="tspan10733">100% made with free software</tspan></tspan></text><text
   xml:space="preserve"
   transform="matrix(0.10152308,0,0,0.10152308,-1.804193,24.283014)"
   id="text3"
   style="font-style:normal;font-weight:normal;font-size:20px;line-height:1.25;font-family:sans-serif;letter-spacing:0px;word-spacing:0px;white-space:pre;shape-inside:url(#rect4);display:inline;fill:#cfbea1;fill-opacity:1;stroke:none"
   inkscape:label="ingredients"><tspan
     x="29.824219"
     y="125.36219"
     id="tspan10739"><tspan
       style="font-family:'Latin Modern Roman Unslanted';-inkscape-font-specification:'Latin Modern Roman Unslanted'"
       id="tspan10737">Ingrédients</tspan></tspan></text>
           <text
   xml:space="preserve"
   id="text3431"
   style="font-size:2.40102px;line-height:2.98846px;font-family:Helvetica;-inkscape-font-specification:'Helvetica, Normal';font-variant-ligatures:normal;font-variant-caps:normal;font-variant-numeric:normal;font-variant-east-asian:normal;text-align:center;letter-spacing:0px;word-spacing:0px;writing-mode:lr-tb;text-anchor:middle;fill:#cfbea1;fill-opacity:1;stroke:none;stroke-width:0.264583px;stroke-linecap:butt;stroke-linejoin:miter;stroke-opacity:1"
   inkscape:label="HISTOIRE1"
   x="25.001841"
   y="17.123766"><tspan
     sodipodi:role="line"
     id="tspan52731"
     x="25.001841"
     y="17.123766"
     style="font-style:normal;font-variant:normal;font-weight:normal;font-stretch:normal;font-size:2.40102px;font-family:'Latin Modern Roman Unslanted';-inkscape-font-specification:'Latin Modern Roman Unslanted';fill:#cfbea1;fill-opacity:1;stroke:none">%HISTOIRE1%</tspan></text><text
   xml:space="preserve"
   id="text3431-3"
   style="font-size:2.40102px;line-height:2.98846px;font-family:Helvetica;-inkscape-font-specification:'Helvetica, Normal';font-variant-ligatures:normal;font-variant-caps:normal;font-variant-numeric:normal;font-variant-east-asian:normal;text-align:center;letter-spacing:0px;word-spacing:0px;writing-mode:lr-tb;text-anchor:middle;fill:#cfbea1;fill-opacity:1;stroke:none;stroke-width:0.264583px;stroke-linecap:butt;stroke-linejoin:miter;stroke-opacity:1"
   inkscape:label="HISTOIRE1"
   x="25.001841"
   y="19.828773"><tspan
     sodipodi:role="line"
     id="tspan52731-5"
     x="25.001841"
     y="19.828773"
     style="font-style:normal;font-variant:normal;font-weight:normal;font-stretch:normal;font-size:2.40102px;font-family:'Latin Modern Roman Unslanted';-inkscape-font-specification:'Latin Modern Roman Unslanted';fill:#cfbea1;fill-opacity:1;stroke:none">%HISTOIRE2%</tspan></text>
           <text
   xml:space="preserve"
   style="font-style:normal;font-weight:normal;font-size:2.11667px;line-height:1.25;font-family:sans-serif;letter-spacing:0px;word-spacing:0px;baseline-shift:baseline;fill:#cfbea1;fill-opacity:1;stroke:none;stroke-width:0.264583"
   x="24.954178"
   y="10.591024"
   id="text6"
   inkscape:label="appellation"><tspan
     sodipodi:role="line"
     id="tspan5"
     style="font-style:normal;font-variant:normal;font-weight:normal;font-stretch:normal;font-size:2.11667px;font-family:'Latin Modern Roman Unslanted';-inkscape-font-specification:'Latin Modern Roman Unslanted';text-align:center;baseline-shift:baseline;text-anchor:middle;fill:#cfbea1;fill-opacity:1;stroke-width:0.264583"
     x="24.954178"
     y="10.591024">AOC Bonne Année</tspan></text>
       <text
   xml:space="preserve"
   style="font-size:3.43958px;font-family:'Latin Modern Roman Unslanted';-inkscape-font-specification:'Latin Modern Roman Unslanted';font-variant-ligatures:normal;font-variant-caps:normal;font-variant-numeric:normal;font-variant-east-asian:normal;text-align:center;letter-spacing:0px;word-spacing:0px;writing-mode:lr-tb;text-anchor:middle;fill:#cfbea1;fill-opacity:1;stroke:none;stroke-width:0.264583px;stroke-linecap:butt;stroke-linejoin:miter;stroke-opacity:1"
   x="25.003082"
   y="5.1446881"
   id="text3335"
   inkscape:label="Domaine"><tspan
     sodipodi:role="line"
     id="tspan437"
     x="25.003082"
     y="5.1446881">Cuvée %CUVEE%</tspan></text>
       <g
   id="g488"
   inkscape:label="separation"><path
     style="fill:none;stroke:#cfbea1;stroke-width:0.264583px;stroke-linecap:butt;stroke-linejoin:miter;stroke-opacity:1"
     d="M 18.401302,12.526998 H 31.598698"
     id="path488-5"
     inkscape:label="bas" /><path
     style="fill:none;stroke:#cfbea1;stroke-width:0.264583px;stroke-linecap:butt;stroke-linejoin:miter;stroke-opacity:1"
     d="M 18.401301,7.5602546 H 31.598698"
     id="path488"
     inkscape:label="haut" /></g><g
   id="QRcode"
   transform="matrix(0.43827266,0,0,0.43827266,1.0410375,38.070136)"
   inkscape:label="QRcode"
   style="display:inline;"><rect
     x="0"
     y="0"
     width="25"
     height="25"
     fill="#33497b"
     id="rect3659"
     inkscape:label="rect3659" /><g
     style="stroke:#ccb684;"
     id="g8392">%QRCODE%</g></g></g><g
     inkscape:groupmode="layer"
     id="layer2"
     inkscape:label="crest"><g
       id="g12"
       transform="matrix(0.32186465,0,0,0.32186465,-13.513568,-71.943888)"
       style="fill:#ffffff;fill-opacity:0.30000001"><g
         id="OBJECTS"
         transform="matrix(0.36476903,0,0,0.36476903,72.938826,261.72596)"
         style="fill:#ffffff;fill-opacity:0.30000001">




	<g
   id="g6"
   style="fill:#ffffff;fill-opacity:0.30000001">
		<path
   style="fill:#ffffff;fill-opacity:0.30000001"
   d="m 314.401,150.096 c 0,35.296 0,70.592 0,105.889 -21.059,14.101 -42.15,28.203 -64.407,40.729 -22.256,-12.522 -43.352,-26.626 -64.4,-40.729 0,-35.297 0,-70.591 0,-105.886 44.841,-10.02 83.964,-10.023 128.807,-0.003 m 1.745,-1.054 c -46.181,-10.867 -86.116,-10.866 -132.296,-0.003 0,35.861 0,71.724 0,107.585 21.592,14.608 43.241,29.219 66.144,42.121 22.906,-12.905 44.552,-27.513 66.152,-42.121 0,-35.86 0,-71.72 0,-107.582 z"
   id="path1-6" />
		<rect
   x="135.371"
   y="319.03601"
   style="fill:#ffffff;fill-opacity:0.30000001"
   width="229.255"
   height="2.3670001"
   id="rect2-9" />





			<text
   transform="translate(228.0908,162.7905)"
   style="font-size:11.6952px;font-family:NadiaSerifNormal;fill:#ffffff;fill-opacity:0.30000001"
   id="text4-7"
   inkscape:label="text4">EST 2015</text>
		<path
   style="fill:#ffffff;fill-opacity:0.30000001"
   d="m 378.346,183.977 c -11.426,-9.289 -28.189,-3.096 -29.788,11.424 -1.603,14.522 17.19,18.896 22.742,7.9 5.548,-10.997 -5.232,-14.947 -8.543,-10.997 -3.31,3.95 0.852,9.074 6.297,7.153 0,0 -5.12,8.114 -11.637,4.911 -6.511,-3.202 -7.368,-17.938 3.31,-20.392 10.677,-2.455 24.555,6.726 18.684,21.887 -5.87,15.16 -26.158,17.294 -36.301,6.512 -10.144,-10.784 -10.833,-27.011 -10.892,-32.563 -0.006,-0.517 -0.067,-1.118 -0.165,-1.768 1.657,3.04 4.227,5.802 8.228,7.042 5.705,1.768 11.196,-2.111 13.21,-5.987 1.836,-3.517 1.242,-9.275 -3.476,-12.878 -4.31,-3.301 -10.054,-1.875 -12.148,0.34 -2.309,2.443 -2.424,6.607 -0.462,9.06 1.848,2.309 4.348,2.73 5.721,2.621 2.104,-0.18 4.297,-1.235 5.433,-4.28 0,0 -2.922,3.377 -6.921,1.583 -4.19,-1.875 -3.167,-5.806 -1.331,-7.388 1.587,-1.373 5.058,-1.421 7.889,0.587 3.378,2.421 3.741,6.832 2.617,8.979 -1.279,2.468 -5.152,5.53 -10.045,4.081 0,0 -8.774,-3.206 -11.597,-15.204 0,-8.181 0,-16.36 0,-24.541 -2.646,-0.874 -5.278,-1.691 -7.904,-2.478 0.149,-0.046 0.294,-0.083 0.445,-0.133 13.694,-4.525 9.357,-22.416 1.068,-27.637 -8.286,-5.221 -19.504,-5.34 -28.563,5.311 0,0 -0.07,-10.673 -7.726,-11.42 -7.657,-0.751 -9.495,6.54 -9.495,6.54 0,0 13.15,-8.359 14.117,6.881 0,0 -4.387,9.333 -13.382,11.26 -18.544,-2.222 -36.868,-2.194 -55.33,0.028 -9.083,-1.863 -13.513,-11.288 -13.513,-11.288 0.968,-15.24 14.117,-6.881 14.117,-6.881 0,0 -1.841,-7.291 -9.5,-6.54 -7.647,0.747 -7.724,11.42 -7.724,11.42 -9.054,-10.65 -20.277,-10.531 -28.561,-5.311 -8.291,5.221 -12.625,23.111 1.065,27.637 0.165,0.054 0.323,0.095 0.485,0.145 -2.64,0.784 -5.285,1.598 -7.942,2.466 0,8.182 0,16.364 0,24.546 -2.825,11.994 -11.596,15.199 -11.596,15.199 -4.888,1.448 -8.764,-1.613 -10.045,-4.081 -1.124,-2.146 -0.76,-6.558 2.619,-8.979 2.831,-2.008 6.301,-1.96 7.889,-0.587 1.836,1.582 2.859,5.513 -1.332,7.388 -3.996,1.794 -6.92,-1.583 -6.92,-1.583 1.136,3.045 3.328,4.101 5.431,4.28 1.376,0.109 3.874,-0.312 5.722,-2.621 1.961,-2.452 1.846,-6.616 -0.464,-9.06 -2.092,-2.215 -7.836,-3.641 -12.146,-0.34 -4.72,3.602 -5.313,9.361 -3.477,12.878 2.014,3.876 7.506,7.756 13.208,5.987 4,-1.24 6.569,-4 8.227,-7.037 -0.098,0.647 -0.16,1.247 -0.165,1.763 -0.055,5.551 -0.745,21.778 -10.888,32.56 -10.144,10.783 -30.43,8.65 -36.301,-6.51 -5.87,-15.162 8.008,-24.342 18.684,-21.887 10.674,2.454 9.82,17.19 3.312,20.392 -6.518,3.203 -11.638,-4.911 -11.638,-4.911 5.445,1.921 9.607,-3.203 6.297,-7.153 -3.311,-3.95 -14.092,0 -8.542,10.997 5.551,10.996 24.343,6.622 22.741,-7.9 -1.603,-14.52 -18.362,-20.713 -29.788,-11.424 -11.424,9.287 -9.502,35.233 13.243,38.969 22.738,3.735 32.455,-16.763 32.455,-16.763 0,0 -0.108,17.508 -2.775,18.791 -2.669,1.28 -4.377,-2.455 -4.377,-2.455 -0.431,5.552 1.6,4.482 5.444,12.066 3.847,7.58 2.102,22.153 -7.046,23.734 -9.148,1.579 -13.916,-6.76 -10.173,-11.526 4.324,-5.512 9.745,0.283 9.745,0.283 0,0 -3.875,-0.961 -4.943,2.025 -1.498,4.19 2.47,6.55 5.968,4.801 3.5,-1.751 4.127,-10.739 -5.499,-11.584 -9.938,-0.873 -14.315,15.756 0,19.78 13.447,3.783 16.554,-9.416 17.132,-12.881 0,4.274 0,8.548 0,12.822 10.173,7.569 20.352,15.162 30.685,22.575 -7.711,-2.923 -16.013,-2.868 -22.246,-2.855 -8.888,0.016 -11.695,-10.315 -7.042,-11.283 4.654,-0.975 3.285,3.954 3.285,3.954 6.998,-1.647 -1.435,-13.357 -7.584,-3.759 -4.608,7.188 4.719,12.765 4.719,12.765 -9.325,0.882 -11.263,8.317 -11.263,8.317 0,0 8.846,-10.239 34.778,-4.755 0,0 -6.632,0.091 -10.92,4.649 -4.281,4.56 -9.446,4.117 -9.446,4.117 0,0 3.942,3.724 8.834,-0.17 4.9,-3.9 9.236,-2.628 9.236,-2.628 -15.68,15.05 -0.04,20.4 -0.04,20.4 -10.272,-5.866 -1.304,-13.361 -1.304,-13.361 3.871,7.114 9.403,1.393 9.403,1.393 -7.223,2.077 -6.953,-8.477 3.472,-8.337 10.421,0.134 13.766,14.524 7.548,18.36 -6.209,3.838 -7.961,-1.026 -7.961,-1.026 7.961,1.026 5.833,-8.482 -0.288,-5.922 -6.113,2.563 -2.901,13.828 7.272,10.153 8.99,-3.246 8.691,-13.145 1.866,-21.328 11.713,8.088 23.694,15.844 36.159,22.972 12.468,-7.129 24.455,-14.887 36.175,-22.976 -6.829,8.184 -7.129,18.085 1.862,21.332 10.17,3.675 13.386,-7.59 7.271,-10.153 -6.12,-2.561 -8.249,6.948 -0.287,5.922 0,0 -1.755,4.864 -7.962,1.026 -6.217,-3.837 -2.875,-18.227 7.551,-18.36 10.423,-0.14 10.691,10.414 3.472,8.337 0,0 5.53,5.722 9.398,-1.393 0,0 8.971,7.496 -1.302,13.361 0,0 15.639,-5.351 -0.04,-20.4 0,0 4.336,-1.271 9.237,2.628 4.895,3.893 8.834,0.17 8.834,0.17 0,0 -5.165,0.443 -9.443,-4.117 -4.292,-4.559 -10.923,-4.649 -10.923,-4.649 25.932,-5.484 34.776,4.755 34.776,4.755 0,0 -1.933,-7.435 -11.261,-8.317 0,0 9.328,-5.577 4.719,-12.765 -6.148,-9.599 -14.582,2.111 -7.582,3.759 0,0 -1.369,-4.929 3.283,-3.954 4.653,0.968 1.847,11.299 -7.041,11.283 -6.232,-0.013 -14.533,-0.067 -22.245,2.855 10.334,-7.411 20.513,-15.004 30.683,-22.574 0,-4.276 0,-8.554 0,-12.83 0.574,3.453 3.677,16.676 17.135,12.89 14.314,-4.024 9.938,-20.653 0,-19.78 -9.623,0.845 -8.999,9.833 -5.5,11.584 3.5,1.749 7.468,-0.61 5.97,-4.801 -1.068,-2.986 -4.944,-2.025 -4.944,-2.025 0,0 5.42,-5.795 9.745,-0.283 3.742,4.767 -1.026,13.105 -10.173,11.526 -9.148,-1.581 -10.893,-16.154 -7.047,-23.734 3.843,-7.582 5.875,-6.514 5.444,-12.066 0,0 -1.704,3.735 -4.377,2.455 -2.668,-1.282 -2.775,-18.791 -2.775,-18.791 0,0 9.717,20.498 32.458,16.763 22.743,-3.736 24.666,-29.682 13.242,-38.97 z m -89.353,-55.831 c 9.143,-8.185 15.271,-17.382 27.663,-10.786 12.389,6.6 6.891,15.703 3.331,18.16 -3.563,2.455 -10.956,1.792 -11.389,-5.047 0,0 7.377,3.397 8.577,-1.982 1.197,-5.381 -6.826,-7.77 -10.853,-2.127 -1.778,2.501 -1.646,6.241 0.241,9.239 -7.475,-1.802 -14.889,-3.257 -22.258,-4.348 1.513,-0.679 3.089,-1.674 4.688,-3.109 z m -95.316,-1.782 c -4.028,-5.646 -12.049,-3.255 -10.851,2.127 1.199,5.38 8.578,1.982 8.578,1.982 -0.434,6.839 -7.827,7.502 -11.39,5.047 -3.563,-2.457 -9.063,-11.56 3.333,-18.16 12.389,-6.596 18.516,2.602 27.658,10.786 1.629,1.46 3.232,2.466 4.77,3.145 -7.42,1.102 -14.872,2.565 -22.375,4.368 1.921,-3.007 2.068,-6.778 0.277,-9.295 z m 128.68,133.683 c -23.67,16.747 -47.347,32.997 -72.363,48.07 -25.014,-15.072 -48.689,-31.321 -72.356,-48.072 0,-38.238 0,-76.478 0,-114.72 50.315,-14.659 94.407,-14.659 144.719,0 0,38.242 0,76.482 0,114.722 z"
   id="path4-9" />
		<g
   id="g5"
   style="fill:#ffffff;fill-opacity:0.30000001">
			<path
   style="fill:#ffffff;fill-opacity:0.30000001"
   d="m 271.019,125.262 6.588,-23.124 -6.77,4.722 c 0,0 0.716,6.841 -3.203,8.021 -3.919,1.179 -5.344,-5.662 -3.387,-12.033 l -6.412,4.481 -1.245,-4.955 2.494,-4.246 c 0,0 -6.77,-4.719 -9.084,-10.145 -2.315,5.426 -9.082,10.145 -9.082,10.145 l 2.491,4.246 -1.247,4.955 -6.412,-4.481 c 1.958,6.371 0.534,13.212 -3.384,12.033 -3.919,-1.181 -3.204,-8.021 -3.204,-8.021 l -6.769,-4.722 6.589,23.122 c 0.001,0 23.039,-3.398 42.037,0.002 z"
   id="path5-4" />
		</g>
		<path
   style="fill:#ffffff;fill-opacity:0.30000001"
   d="M 364.626,382.867 H 135.371 v 2.367 h 82.131 c -5.74,4.134 -1.901,12.902 2.943,15 5.13,2.226 11.48,1.314 15.663,-5.487 0,0 0.971,6.017 5.358,5.771 3.034,-0.169 4.163,-2.264 4.571,-3.542 -0.106,1.037 -0.175,2.12 -0.188,3.252 -0.063,5.061 1.609,7.939 4.013,11.789 2.498,-3.799 4.236,-6.639 4.291,-11.698 0.013,-1.064 -0.021,-2.088 -0.094,-3.07 0.477,1.283 1.647,3.112 4.474,3.27 4.387,0.247 5.36,-5.771 5.36,-5.771 4.183,6.802 10.53,7.713 15.664,5.487 4.842,-2.098 8.679,-10.866 2.941,-15 h 82.128 z m -141.209,13.701 c -7.573,-2.645 -5.262,-8.267 -3.464,-9.962 1.797,-1.698 6.028,-1.971 6.87,1.854 0,0 -4.462,-1.275 -4.672,1.869 -0.206,3.142 4.536,3.791 6.314,0.253 0.814,-1.621 0.357,-3.811 -1.079,-5.349 h 14.343 c -1.192,0.507 -2.442,1.374 -3.637,2.83 -4.443,5.421 -7.102,11.148 -14.675,8.505 z m 14.27,-3.223 c 0,0 2.374,-8.033 9.793,-8.11 h 1.935 c -1.123,2.199 -2.646,5.934 -3.276,10.86 -0.891,0.725 -6.723,5.111 -8.452,-2.75 z m 16.272,2.83 c -0.516,-4.948 -1.957,-8.72 -3.029,-10.94 h 1.59 c 7.42,0.077 9.791,8.11 9.791,8.11 -1.674,7.609 -7.192,3.744 -8.352,2.83 z m 17.574,-5.592 c 1.779,3.538 6.52,2.889 6.313,-0.253 -0.208,-3.145 -4.671,-1.869 -4.671,-1.869 0.842,-3.825 5.074,-3.553 6.871,-1.854 1.8,1.695 4.104,7.317 -3.464,9.962 -7.573,2.643 -10.232,-3.084 -14.678,-8.504 -1.194,-1.456 -2.443,-2.323 -3.636,-2.83 h 14.343 c -1.436,1.537 -1.892,3.727 -1.078,5.348 z"
   id="path6-9" /><g
   id="use1"
   style="fill:#ffffff;fill-opacity:0.30000001;stroke:none"
   transform="matrix(0.2444312,0,0,0.2444312,205.74173,168.14264)"><title
     id="title489">Bar</title><path
     d="m 361.946,11.5 h -0.251 c 0.287,-0.248 0.445,-0.498 0.445,-0.75 C 362.14,4.813 281.073,0 181.07,0 81.068,0 0,4.813 0,10.75 0,11.002 0.158,11.252 0.446,11.5 H 0 l 160.474,148.535 v 168.073 l -103.962,74.32 h 0.255 c -0.5,0.27 -0.765,0.544 -0.765,0.821 0,4.102 55.996,7.425 125.07,7.425 69.075,0 125.07,-3.323 125.07,-7.425 0,-0.277 -0.266,-0.552 -0.765,-0.821 h 0.06 L 201.475,328.108 V 160.036 Z m -175.71,119.639 c -2.895,2.679 -7.631,2.679 -10.526,0 L 98.175,59.371004 c -2.895,-2.679 -2.036,-4.872 1.909,-4.872 h 161.779 c 3.944,0 4.804,2.192 1.909,4.872 z"
     id="path490"
     style="fill:#ffffff;fill-opacity:0.30000001" /></g>
	</g>
</g></g></g></svg>
